ScienceGothic-CtrS.ufo
<glyph name="exclam" format="2">
  <advance width="766"/>
  <unicode hex="0021"/>
  <outline>
    <contour>
      <point x="126.286" y="111" type="line"/>
      <point x="140.286" y="190" type="line" smooth="yes"/>
      <point x="148.286" y="233"/>
      <point x="160.286" y="280"/>
      <point x="187.286" y="303"/>
      <point x="236.286" y="307"/>
      <point x="280.286" y="307" type="qcurve" smooth="yes"/>
      <point x="356.286" y="307" type="line" smooth="yes"/>
      <point x="400.286" y="307"/>
      <point x="447.286" y="303"/>
      <point x="466.286" y="280"/>
      <point x="463.286" y="233"/>
      <point x="455.286" y="190" type="qcurve" smooth="yes"/>
      <point x="441.286" y="111" type="line" smooth="yes"/>
      <point x="434.286" y="67"/>
      <point x="421.286" y="19"/>
      <point x="394.286" y="-4"/>
      <point x="345.286" y="-8"/>
      <point x="301.286" y="-8" type="qcurve" smooth="yes"/>
      <point x="225.286" y="-8" type="line" smooth="yes"/>
      <point x="181.286" y="-8"/>
      <point x="134.286" y="-4"/>
      <point x="115.286" y="19"/>
      <point x="119.286" y="67"/>
      <point x="126.286" y="111" type="qcurve"/>
    </contour>
    <contour>
      <point x="328.286" y="462" type="line"/>
      <point x="322.286" y="1400" type="line"/>
      <point x="695.286" y="1400" type="line"/>
      <point x="363.286" y="462" type="line"/>
    </contour>
  </outline>
</glyph>
<glyph name="ampersand" format="2">
  <advance width="1647"/>
  <unicode hex="0026"/>
  <outline>
    <contour>
      <point x="175" y="-10" type="line"/>
      <point x="437" y="-10" type="line" smooth="yes"/>
      <point x="500" y="-10"/>
      <point x="603" y="5"/>
      <point x="700" y="42"/>
      <point x="798" y="102"/>
      <point x="855" y="147" type="qcurve" smooth="yes"/>
      <point x="973" y="240" type="line"/>
      <point x="1169" y="0" type="line"/>
      <point x="1527" y="0" type="line"/>
      <point x="1195" y="407" type="line"/>
      <point x="1505" y="656" type="line"/>
      <point x="1484" y="682" type="line"/>
      <point x="1174" y="433" type="line"/>
      <point x="646" y="1074" type="line"/>
      <point x="646" y="1074"/>
      <point x="646" y="1074"/>
      <point x="646" y="1074"/>
      <point x="646" y="1074"/>
      <point x="646" y="1074" type="qcurve"/>
      <point x="699" y="1374" type="line"/>
      <point x="699" y="1374"/>
      <point x="699" y="1374"/>
      <point x="699" y="1374"/>
      <point x="699" y="1374"/>
      <point x="699" y="1374" type="qcurve"/>
      <point x="1055" y="1374" type="line"/>
      <point x="1055" y="1374"/>
      <point x="1055" y="1374"/>
      <point x="1055" y="1374"/>
      <point x="1055" y="1374"/>
      <point x="1055" y="1374" type="qcurve"/>
      <point x="983" y="962" type="line"/>
      <point x="1216" y="1012" type="line"/>
      <point x="1246" y="1188" type="line" smooth="yes"/>
      <point x="1256" y="1244"/>
      <point x="1238" y="1327"/>
      <point x="1187" y="1382"/>
      <point x="1102" y="1410"/>
      <point x="1045" y="1410" type="qcurve" smooth="yes"/>
      <point x="721" y="1410" type="line" smooth="yes"/>
      <point x="655" y="1410"/>
      <point x="547" y="1373"/>
      <point x="467" y="1303"/>
      <point x="415" y="1199"/>
      <point x="403" y="1132" type="qcurve"/>
      <point x="400" y="1120" type="line"/>
      <point x="390" y="1060"/>
      <point x="394" y="978"/>
      <point x="423" y="912"/>
      <point x="473" y="849"/>
      <point x="507" y="807" type="qcurve"/>
      <point x="128" y="580" type="line" smooth="yes"/>
      <point x="98" y="562"/>
      <point x="53" y="523"/>
      <point x="20" y="479"/>
      <point x="-1" y="428"/>
      <point x="-6" y="398" type="qcurve" smooth="yes"/>
      <point x="-39" y="204" type="line" smooth="yes"/>
      <point x="-49" y="149"/>
      <point x="-28" y="68"/>
      <point x="27" y="16"/>
      <point x="116" y="-10"/>
      <point x="175" y="-10" type="qcurve"/>
    </contour>
    <contour>
      <point x="188" y="26" type="line"/>
      <point x="188" y="26"/>
      <point x="188" y="26"/>
      <point x="188" y="26"/>
      <point x="188" y="26"/>
      <point x="188" y="26" type="qcurve"/>
      <point x="295" y="642" type="line"/>
      <point x="295" y="642"/>
      <point x="295" y="642"/>
      <point x="295" y="642"/>
      <point x="295" y="642"/>
      <point x="295" y="642" type="qcurve"/>
      <point x="528" y="782" type="line"/>
      <point x="951" y="266" type="line"/>
      <point x="835" y="174" type="line" smooth="yes"/>
      <point x="783" y="133"/>
      <point x="694" y="77"/>
      <point x="605" y="42"/>
      <point x="507" y="26"/>
      <point x="445" y="26" type="qcurve" smooth="yes"/>
    </contour>
  </outline>
</glyph>
<glyph name="quotesingle" format="2">
  <advance width="382"/>
  <unicode hex="0027"/>
  <outline>
    <contour>
      <point x="153.241" y="1236" type="line"/>
      <point x="170.241" y="1335" type="line" smooth="yes"/>
      <point x="178.241" y="1378"/>
      <point x="189.241" y="1425"/>
      <point x="212.241" y="1448"/>
      <point x="253.241" y="1452"/>
      <point x="289.241" y="1452" type="qcurve" smooth="yes"/>
      <point x="363.241" y="1452" type="line" smooth="yes"/>
      <point x="399.241" y="1452"/>
      <point x="439.241" y="1448"/>
      <point x="454.241" y="1425"/>
      <point x="450.241" y="1378"/>
      <point x="442.241" y="1335" type="qcurve" smooth="yes"/>
      <point x="425.241" y="1236" type="line"/>
      <point x="275.241" y="835" type="line"/>
      <point x="163.241" y="835" type="line"/>
    </contour>
  </outline>
</glyph>
<glyph name="parenleft" format="2">
  <advance width="635"/>
  <unicode hex="0028"/>
  <outline>
    <contour>
      <point x="458.625" y="-256" type="line"/>
      <point x="423.625" y="-256" type="line"/>
      <point x="333.625" y="-188"/>
      <point x="199.625" y="-7"/>
      <point x="121.625" y="211"/>
      <point x="101.625" y="460"/>
      <point x="125.625" y="597" type="qcurve" smooth="yes"/>
      <point x="149.625" y="734"/>
      <point x="255.625" y="980"/>
      <point x="409.625" y="1195"/>
      <point x="606.625" y="1376"/>
      <point x="721.625" y="1448" type="qcurve"/>
      <point x="756.625" y="1448" type="line"/>
      <point x="705.625" y="1386"/>
      <point x="634.625" y="1293"/>
      <point x="581.625" y="1201"/>
      <point x="542.625" y="1096"/>
      <point x="507.625" y="948"/>
      <point x="469.625" y="743"/>
      <point x="443.625" y="597" type="qcurve" smooth="yes"/>
      <point x="417.625" y="450"/>
      <point x="383.625" y="243"/>
      <point x="367.625" y="94"/>
      <point x="369.625" y="-11"/>
      <point x="390.625" y="-102"/>
      <point x="429.625" y="-194"/>
      <point x="458.625" y="-256" type="qcurve"/>
    </contour>
  </outline>
</glyph>
<glyph name="asterisk" format="2">
  <advance width="764"/>
  <unicode hex="002A"/>
  <outline>
    <contour>
      <point x="331" y="778" type="line"/>
      <point x="434" y="1082" type="line"/>
      <point x="444" y="1141" type="line"/>
      <point x="448" y="1448" type="line"/>
      <point x="586" y="1448" type="line"/>
      <point x="480" y="1141" type="line"/>
      <point x="470" y="1082" type="line"/>
      <point x="469" y="778" type="line"/>
    </contour>
    <contour>
      <point x="113" y="982" type="line"/>
      <point x="425" y="1112" type="line"/>
      <point x="480" y="1141" type="line"/>
      <point x="749" y="1348" type="line"/>
      <point x="805" y="1241" type="line"/>
      <point x="490" y="1112" type="line"/>
      <point x="434" y="1082" type="line"/>
      <point x="169" y="875" type="line"/>
    </contour>
    <contour>
      <point x="153" y="1238" type="line"/>
      <point x="252" y="1351" type="line"/>
      <point x="444" y="1141" type="line"/>
      <point x="490" y="1112" type="line"/>
      <point x="763" y="988" type="line"/>
      <point x="665" y="875" type="line"/>
      <point x="470" y="1082" type="line"/>
      <point x="425" y="1112" type="line"/>
    </contour>
  </outline>
</glyph>
<glyph name="comma" format="2">
  <advance width="709"/>
  <unicode hex="002C"/>
  <outline>
    <contour>
      <point x="133" y="-302" type="line"/>
      <point x="105" y="-292" type="line"/>
      <point x="287" y="0" type="line"/>
      <point x="195" y="0" type="line" smooth="yes"/>
      <point x="151" y="0"/>
      <point x="104" y="4"/>
      <point x="85" y="27"/>
      <point x="90" y="75"/>
      <point x="97" y="119" type="qcurve" smooth="yes"/>
      <point x="109" y="190" type="line" smooth="yes"/>
      <point x="117" y="233"/>
      <point x="129" y="280"/>
      <point x="156" y="303"/>
      <point x="205" y="307"/>
      <point x="249" y="307" type="qcurve" smooth="yes"/>
      <point x="326" y="307" type="line" smooth="yes"/>
      <point x="370" y="307"/>
      <point x="417" y="303"/>
      <point x="436" y="280"/>
      <point x="432" y="233"/>
      <point x="424" y="190" type="qcurve" smooth="yes"/>
      <point x="412" y="119" type="line" smooth="yes"/>
      <point x="407" y="92"/>
      <point x="399" y="57"/>
      <point x="390" y="33"/>
      <point x="378" y="14"/>
      <point x="369" y="2" type="qcurve" smooth="yes"/>
    </contour>
  </outline>
</glyph>
<glyph name="hyphen" format="2">
  <advance width="1056.36"/>
  <unicode hex="002D"/>
  <outline>
    <contour>
      <point x="140.974" y="616" type="line"/>
      <point x="890.974" y="616" type="line"/>
      <point x="884.974" y="584" type="line"/>
      <point x="134.974" y="584" type="line"/>
    </contour>
  </outline>
  <guideline angle="0" x="0" y="600"/>
</glyph>
<glyph name="period" format="2">
  <advance width="709"/>
  <unicode hex="002E"/>
  <outline>
    <contour>
      <point x="95.0003" y="111" type="line"/>
      <point x="109" y="190" type="line" smooth="yes"/>
      <point x="117" y="233"/>
      <point x="129" y="280"/>
      <point x="156" y="303"/>
      <point x="205" y="307"/>
      <point x="249" y="307" type="qcurve" smooth="yes"/>
      <point x="325" y="307" type="line" smooth="yes"/>
      <point x="369" y="307"/>
      <point x="416" y="303"/>
      <point x="435" y="280"/>
      <point x="432" y="233"/>
      <point x="424" y="190" type="qcurve" smooth="yes"/>
      <point x="410" y="111" type="line" smooth="yes"/>
      <point x="403" y="67"/>
      <point x="390" y="19"/>
      <point x="363" y="-4"/>
      <point x="314" y="-8"/>
      <point x="270" y="-8" type="qcurve" smooth="yes"/>
      <point x="194" y="-8" type="line" smooth="yes"/>
      <point x="150" y="-8"/>
      <point x="103" y="-4"/>
      <point x="84.0003" y="19"/>
      <point x="88.0003" y="67"/>
      <point x="95.0003" y="111" type="qcurve"/>
    </contour>
  </outline>
</glyph>
<glyph name="slash" format="2">
  <advance width="981"/>
  <unicode hex="002F"/>
  <outline>
    <contour>
      <point x="784.081" y="1430" type="line"/>
      <point x="1014.08" y="1430" type="line"/>
      <point x="190.081" y="-100" type="line"/>
      <point x="-39.9187" y="-100" type="line"/>
    </contour>
  </outline>
</glyph>
<glyph name="one" format="2">
  <advance width="822" height="1448"/>
  <unicode hex="0031"/>
  <outline>
    <contour>
      <point x="218" y="0" type="line"/>
      <point x="482" y="0" type="line"/>
      <point x="729" y="1414" type="line"/>
      <point x="179" y="1324" type="line"/>
      <point x="173" y="1288" type="line"/>
      <point x="451" y="1333" type="line"/>
    </contour>
  </outline>
  <guideline angle="90" color="0.4,0.4,0.4,1" name="halfwidth" x="410" y="0"/>
</glyph>
<glyph name="two" format="2">
  <advance width="1683"/>
  <unicode hex="0032"/>
  <outline>
    <contour>
      <point x="98" y="0" type="line"/>
      <point x="154" y="321" type="line" smooth="yes"/>
      <point x="162" y="368"/>
      <point x="198" y="448"/>
      <point x="254" y="511"/>
      <point x="330" y="557"/>
      <point x="379" y="569" type="qcurve" smooth="yes"/>
      <point x="1136" y="754" type="line" smooth="yes"/>
      <point x="1162" y="760"/>
      <point x="1196" y="780"/>
      <point x="1216" y="808"/>
      <point x="1227" y="844"/>
      <point x="1231" y="866" type="qcurve" smooth="yes"/>
      <point x="1320" y="1374" type="line"/>
      <point x="1320" y="1374"/>
      <point x="1320" y="1374"/>
      <point x="1320" y="1374" type="qcurve"/>
      <point x="618" y="1374" type="line"/>
      <point x="618" y="1374"/>
      <point x="618" y="1374"/>
      <point x="618" y="1374" type="qcurve"/>
      <point x="532" y="882" type="line"/>
      <point x="277" y="936" type="line"/>
      <point x="314" y="1148" type="line" smooth="yes"/>
      <point x="325" y="1210"/>
      <point x="382" y="1307"/>
      <point x="473" y="1374"/>
      <point x="599" y="1410"/>
      <point x="678" y="1410" type="qcurve" smooth="yes"/>
      <point x="1272" y="1410" type="line" smooth="yes"/>
      <point x="1352" y="1410"/>
      <point x="1465" y="1379"/>
      <point x="1534" y="1316"/>
      <point x="1558" y="1224"/>
      <point x="1547" y="1162" type="qcurve" smooth="yes"/>
      <point x="1523" y="1023" type="line" smooth="yes"/>
      <point x="1515" y="976"/>
      <point x="1475" y="889"/>
      <point x="1415" y="819"/>
      <point x="1339" y="769"/>
      <point x="1294" y="758" type="qcurve" smooth="yes"/>
      <point x="579" y="583" type="line" smooth="yes"/>
      <point x="545" y="575"/>
      <point x="496" y="549"/>
      <point x="464" y="517"/>
      <point x="446" y="478"/>
      <point x="442" y="457" type="qcurve" smooth="yes"/>
      <point x="368" y="36" type="line"/>
      <point x="1150" y="36" type="line"/>
      <point x="1150" y="36"/>
      <point x="1150" y="36"/>
      <point x="1150" y="36" type="qcurve"/>
      <point x="1218" y="426" type="line"/>
      <point x="1455" y="382" type="line"/>
      <point x="1433" y="260" type="line" smooth="yes"/>
      <point x="1419" y="181"/>
      <point x="1356" y="79"/>
      <point x="1262" y="22"/>
      <point x="1141" y="0"/>
      <point x="1070" y="0" type="qcurve" smooth="yes"/>
    </contour>
  </outline>
</glyph>
<glyph name="three" format="2">
  <advance width="1719" height="1448"/>
  <unicode hex="0033"/>
  <outline>
    <contour>
      <point x="165" y="384" type="line"/>
      <point x="437" y="432" type="line"/>
      <point x="367" y="26" type="line"/>
      <point x="367" y="26"/>
      <point x="367" y="26"/>
      <point x="367" y="26"/>
      <point x="367" y="26"/>
      <point x="367" y="26" type="qcurve"/>
      <point x="1007" y="26" type="line" smooth="yes"/>
      <point x="1032" y="26"/>
      <point x="1076" y="44"/>
      <point x="1112" y="75"/>
      <point x="1137" y="117"/>
      <point x="1141" y="142" type="qcurve" smooth="yes"/>
      <point x="1219" y="590" type="line" smooth="yes"/>
      <point x="1223" y="613"/>
      <point x="1214" y="650"/>
      <point x="1192" y="677"/>
      <point x="1158" y="692"/>
      <point x="1135" y="692" type="qcurve" smooth="yes"/>
      <point x="715" y="692" type="line"/>
      <point x="721" y="728" type="line"/>
      <point x="1133" y="728" type="line" smooth="yes"/>
      <point x="1156" y="728"/>
      <point x="1196" y="743"/>
      <point x="1227" y="770"/>
      <point x="1249" y="808"/>
      <point x="1253" y="830" type="qcurve" smooth="yes"/>
      <point x="1329" y="1264" type="line" smooth="yes"/>
      <point x="1333" y="1289"/>
      <point x="1324" y="1329"/>
      <point x="1300" y="1358"/>
      <point x="1263" y="1374"/>
      <point x="1240" y="1374" type="qcurve" smooth="yes"/>
      <point x="614" y="1374" type="line"/>
      <point x="614" y="1374"/>
      <point x="614" y="1374"/>
      <point x="614" y="1374" type="qcurve"/>
      <point x="540" y="950" type="line"/>
      <point x="284" y="998" type="line"/>
      <point x="313" y="1162" type="line" smooth="yes"/>
      <point x="324" y="1224"/>
      <point x="379" y="1316"/>
      <point x="470" y="1379"/>
      <point x="595" y="1410"/>
      <point x="674" y="1410" type="qcurve" smooth="yes"/>
      <point x="1280" y="1410" type="line" smooth="yes"/>
      <point x="1447" y="1410"/>
      <point x="1593" y="1263"/>
      <point x="1564" y="1102" type="qcurve"/>
      <point x="1546" y="995" type="line" smooth="yes"/>
      <point x="1535" y="931"/>
      <point x="1490" y="836"/>
      <point x="1421" y="770"/>
      <point x="1330" y="730"/>
      <point x="1272" y="720" type="qcurve"/>
      <point x="1317" y="716"/>
      <point x="1395" y="680"/>
      <point x="1448" y="612"/>
      <point x="1469" y="509"/>
      <point x="1456" y="438" type="qcurve" smooth="yes"/>
      <point x="1432" y="300" type="line" smooth="yes"/>
      <point x="1417" y="216"/>
      <point x="1346" y="98"/>
      <point x="1242" y="24"/>
      <point x="1113" y="-10"/>
      <point x="1040" y="-10" type="qcurve" smooth="yes"/>
      <point x="414" y="-10" type="line" smooth="yes"/>
      <point x="342" y="-10"/>
      <point x="228" y="11"/>
      <point x="155" y="68"/>
      <point x="128" y="170"/>
      <point x="142" y="250" type="qcurve" smooth="yes"/>
    </contour>
  </outline>
</glyph>
<glyph name="four" format="2">
  <advance width="1607"/>
  <unicode hex="0034"/>
  <outline>
    <contour>
      <point x="-39" y="400" type="line"/>
      <point x="879" y="400" type="line"/>
      <point x="809" y="0" type="line"/>
      <point x="1073" y="0" type="line"/>
      <point x="1143" y="400" type="line"/>
      <point x="1415" y="400" type="line"/>
      <point x="1421" y="436" type="line"/>
      <point x="1149" y="436" type="line"/>
      <point x="1317" y="1400" type="line"/>
      <point x="1217" y="1400" type="line"/>
      <point x="-35" y="424" type="line"/>
    </contour>
    <contour>
      <point x="32" y="436" type="line"/>
      <point x="1018" y="1199" type="line"/>
      <point x="885" y="436" type="line"/>
    </contour>
  </outline>
</glyph>
<glyph name="five" format="2">
  <advance width="1561"/>
  <unicode hex="0035"/>
  <outline>
    <contour>
      <point x="681" y="-12" type="line"/>
      <point x="620" y="-12"/>
      <point x="463" y="-7"/>
      <point x="304" y="5"/>
      <point x="159" y="28"/>
      <point x="109" y="46" type="qcurve"/>
      <point x="77" y="91" type="line"/>
      <point x="114" y="80"/>
      <point x="193" y="61"/>
      <point x="284" y="46"/>
      <point x="388" y="35"/>
      <point x="510" y="28"/>
      <point x="653" y="24"/>
      <point x="737" y="24" type="qcurve" smooth="yes"/>
      <point x="818" y="24"/>
      <point x="945" y="56"/>
      <point x="1040" y="137"/>
      <point x="1105" y="276"/>
      <point x="1124" y="384" type="qcurve" smooth="yes"/>
      <point x="1141" y="480"/>
      <point x="1133" y="619"/>
      <point x="1066" y="709"/>
      <point x="930" y="752"/>
      <point x="818" y="752" type="qcurve" smooth="yes"/>
      <point x="722" y="752"/>
      <point x="538" y="740"/>
      <point x="372" y="718"/>
      <point x="228" y="688"/>
      <point x="172" y="670" type="qcurve"/>
      <point x="345" y="1400" type="line"/>
      <point x="1387" y="1400" type="line"/>
      <point x="1297" y="1166" type="line"/>
      <point x="326" y="1166" type="line"/>
      <point x="219" y="718" type="line"/>
      <point x="260" y="730"/>
      <point x="381" y="755"/>
      <point x="541" y="775"/>
      <point x="738" y="788"/>
      <point x="855" y="788" type="qcurve" smooth="yes"/>
      <point x="955" y="788"/>
      <point x="1120" y="773"/>
      <point x="1248" y="738"/>
      <point x="1338" y="679"/>
      <point x="1390" y="590"/>
      <point x="1402" y="467"/>
      <point x="1388" y="386" type="qcurve" smooth="yes"/>
      <point x="1373" y="298"/>
      <point x="1303" y="171"/>
      <point x="1202" y="82"/>
      <point x="1074" y="28"/>
      <point x="927" y="-2"/>
      <point x="765" y="-12"/>
      <point x="681" y="-12" type="qcurve"/>
    </contour>
  </outline>
</glyph>
<glyph name="six" format="2">
  <advance width="1638.01"/>
  <unicode hex="0036"/>
  <outline>
    <contour>
      <point x="711" y="-10" type="line"/>
      <point x="822" y="-10"/>
      <point x="1004" y="-6"/>
      <point x="1149" y="14"/>
      <point x="1261" y="56"/>
      <point x="1343" y="129"/>
      <point x="1395" y="240"/>
      <point x="1409" y="320" type="qcurve" smooth="yes"/>
      <point x="1426" y="415"/>
      <point x="1420" y="550"/>
      <point x="1374" y="640"/>
      <point x="1284" y="693"/>
      <point x="1149" y="720"/>
      <point x="966" y="727"/>
      <point x="850" y="727" type="qcurve" smooth="yes"/>
      <point x="766" y="727"/>
      <point x="612" y="717"/>
      <point x="473" y="698"/>
      <point x="351" y="670"/>
      <point x="299" y="652" type="qcurve"/>
      <point x="292" y="614" type="line"/>
      <point x="337" y="629"/>
      <point x="444" y="656"/>
      <point x="577" y="678"/>
      <point x="742" y="691"/>
      <point x="844" y="691" type="qcurve" smooth="yes"/>
      <point x="916" y="691"/>
      <point x="1025" y="680"/>
      <point x="1101" y="652"/>
      <point x="1148" y="603"/>
      <point x="1168" y="528"/>
      <point x="1164" y="423"/>
      <point x="1151" y="353" type="qcurve" smooth="yes"/>
      <point x="1139" y="286"/>
      <point x="1113" y="185"/>
      <point x="1073" y="112"/>
      <point x="1015" y="65"/>
      <point x="928" y="37"/>
      <point x="806" y="26"/>
      <point x="722" y="26" type="qcurve" smooth="yes"/>
      <point x="644" y="26"/>
      <point x="524" y="34"/>
      <point x="437" y="63"/>
      <point x="384" y="118"/>
      <point x="362" y="213"/>
      <point x="369" y="352"/>
      <point x="386" y="450" type="qcurve" smooth="yes"/>
      <point x="411" y="591"/>
      <point x="477" y="839"/>
      <point x="566" y="1045"/>
      <point x="678" y="1207"/>
      <point x="818" y="1319"/>
      <point x="988" y="1378"/>
      <point x="1090" y="1378" type="qcurve" smooth="yes"/>
      <point x="1112" y="1378"/>
      <point x="1160" y="1376"/>
      <point x="1209" y="1372"/>
      <point x="1258" y="1367"/>
      <point x="1281" y="1364" type="qcurve"/>
      <point x="1262" y="1402" type="line"/>
      <point x="1252" y="1404"/>
      <point x="1218" y="1408"/>
      <point x="1175" y="1411"/>
      <point x="1122" y="1414"/>
      <point x="1092" y="1414" type="qcurve" smooth="yes"/>
      <point x="958" y="1414"/>
      <point x="725" y="1356"/>
      <point x="528" y="1247"/>
      <point x="367" y="1089"/>
      <point x="243" y="888"/>
      <point x="156" y="646"/>
      <point x="132" y="508" type="qcurve" smooth="yes"/>
      <point x="112" y="391"/>
      <point x="106" y="223"/>
      <point x="144" y="108"/>
      <point x="229" y="39"/>
      <point x="372" y="2"/>
      <point x="575" y="-10"/>
      <point x="711" y="-10" type="qcurve"/>
    </contour>
  </outline>
</glyph>
<glyph name="nine" format="2">
  <advance width="1606"/>
  <unicode hex="0039"/>
  <outline>
    <contour>
      <point x="899" y="1414" type="line"/>
      <point x="789" y="1414"/>
      <point x="607" y="1408"/>
      <point x="460" y="1382"/>
      <point x="346" y="1331"/>
      <point x="262" y="1243"/>
      <point x="206" y="1110"/>
      <point x="189" y="1015" type="qcurve" smooth="yes"/>
      <point x="175" y="933"/>
      <point x="183" y="814"/>
      <point x="231" y="730"/>
      <point x="320" y="678"/>
      <point x="455" y="648"/>
      <point x="637" y="638"/>
      <point x="753" y="638" type="qcurve" smooth="yes"/>
      <point x="837" y="638"/>
      <point x="992" y="648"/>
      <point x="1131" y="667"/>
      <point x="1253" y="695"/>
      <point x="1304" y="713" type="qcurve"/>
      <point x="1311" y="751" type="line"/>
      <point x="1266" y="736"/>
      <point x="1160" y="709"/>
      <point x="1027" y="687"/>
      <point x="863" y="674"/>
      <point x="760" y="674" type="qcurve" smooth="yes"/>
      <point x="688" y="674"/>
      <point x="580" y="688"/>
      <point x="505" y="721"/>
      <point x="459" y="774"/>
      <point x="439" y="852"/>
      <point x="443" y="955"/>
      <point x="454" y="1022" type="qcurve"/>
      <point x="467" y="1093"/>
      <point x="494" y="1201"/>
      <point x="535" y="1281"/>
      <point x="595" y="1333"/>
      <point x="683" y="1365"/>
      <point x="806" y="1378"/>
      <point x="889" y="1378" type="qcurve" smooth="yes"/>
      <point x="968" y="1378"/>
      <point x="1086" y="1361"/>
      <point x="1170" y="1319"/>
      <point x="1220" y="1248"/>
      <point x="1240" y="1140"/>
      <point x="1231" y="992"/>
      <point x="1214" y="894" type="qcurve" smooth="yes"/>
      <point x="1189" y="753"/>
      <point x="1124" y="514"/>
      <point x="1038" y="321"/>
      <point x="929" y="175"/>
      <point x="792" y="76"/>
      <point x="623" y="26"/>
      <point x="521" y="26" type="qcurve" smooth="yes"/>
      <point x="499" y="26"/>
      <point x="452" y="28"/>
      <point x="402" y="32"/>
      <point x="353" y="37"/>
      <point x="329" y="40" type="qcurve"/>
      <point x="348" y="2" type="line"/>
      <point x="359" y="1"/>
      <point x="392" y="-4"/>
      <point x="436" y="-7"/>
      <point x="488" y="-10"/>
      <point x="518" y="-10" type="qcurve" smooth="yes"/>
      <point x="652" y="-10"/>
      <point x="884" y="43"/>
      <point x="1081" y="146"/>
      <point x="1240" y="296"/>
      <point x="1363" y="491"/>
      <point x="1449" y="728"/>
      <point x="1473" y="866" type="qcurve" smooth="yes"/>
      <point x="1494" y="983"/>
      <point x="1500" y="1155"/>
      <point x="1464" y="1277"/>
      <point x="1379" y="1354"/>
      <point x="1238" y="1398"/>
      <point x="1035" y="1414"/>
      <point x="899" y="1414" type="qcurve"/>
    </contour>
  </outline>
</glyph>
<glyph name="colon" format="2">
  <advance width="709.456"/>
  <unicode hex="003A"/>
  <outline>
    <contour>
      <point x="96" y="111" type="line"/>
      <point x="110" y="190" type="line" smooth="yes"/>
      <point x="117" y="233"/>
      <point x="130" y="280"/>
      <point x="157" y="303"/>
      <point x="206" y="307"/>
      <point x="250" y="307" type="qcurve" smooth="yes"/>
      <point x="326" y="307" type="line" smooth="yes"/>
      <point x="370" y="307"/>
      <point x="417" y="303"/>
      <point x="436" y="280"/>
      <point x="432" y="233"/>
      <point x="425" y="190" type="qcurve" smooth="yes"/>
      <point x="411" y="111" type="line" smooth="yes"/>
      <point x="403" y="67"/>
      <point x="391" y="19"/>
      <point x="364" y="-4"/>
      <point x="315" y="-8"/>
      <point x="271" y="-8" type="qcurve" smooth="yes"/>
      <point x="195" y="-8" type="line" smooth="yes"/>
      <point x="151" y="-8"/>
      <point x="104" y="-4"/>
      <point x="85" y="19"/>
      <point x="88" y="67"/>
      <point x="96" y="111" type="qcurve"/>
    </contour>
    <contour>
      <point x="219" y="814" type="line"/>
      <point x="233" y="893" type="line" smooth="yes"/>
      <point x="240" y="936"/>
      <point x="253" y="983"/>
      <point x="279" y="1006"/>
      <point x="328" y="1010"/>
      <point x="372" y="1010" type="qcurve" smooth="yes"/>
      <point x="448" y="1010" type="line" smooth="yes"/>
      <point x="492" y="1010"/>
      <point x="540" y="1006"/>
      <point x="559" y="983"/>
      <point x="555" y="936"/>
      <point x="548" y="893" type="qcurve" smooth="yes"/>
      <point x="534" y="814" type="line" smooth="yes"/>
      <point x="526" y="770"/>
      <point x="513" y="722"/>
      <point x="486" y="699"/>
      <point x="437" y="695"/>
      <point x="393" y="695" type="qcurve" smooth="yes"/>
      <point x="317" y="695" type="line" smooth="yes"/>
      <point x="273" y="695"/>
      <point x="226" y="699"/>
      <point x="207" y="722"/>
      <point x="211" y="770"/>
      <point x="219" y="814" type="qcurve"/>
    </contour>
  </outline>
</glyph>
<glyph name="semicolon" format="2">
  <advance width="709.672"/>
  <unicode hex="003B"/>
  <outline>
    <contour>
      <point x="98" y="121" type="line"/>
      <point x="110" y="190" type="line" smooth="yes"/>
      <point x="117" y="233"/>
      <point x="130" y="280"/>
      <point x="157" y="303"/>
      <point x="206" y="307"/>
      <point x="250" y="307" type="qcurve" smooth="yes"/>
      <point x="326" y="307" type="line" smooth="yes"/>
      <point x="370" y="307"/>
      <point x="417" y="303"/>
      <point x="436" y="280"/>
      <point x="432" y="233"/>
      <point x="425" y="190" type="qcurve" smooth="yes"/>
      <point x="413" y="121" type="line" smooth="yes"/>
      <point x="405" y="77"/>
      <point x="392" y="29"/>
      <point x="365" y="6"/>
      <point x="316" y="2"/>
      <point x="272" y="2" type="qcurve" smooth="yes"/>
      <point x="196" y="2" type="line" smooth="yes"/>
      <point x="152" y="2"/>
      <point x="105" y="6"/>
      <point x="86" y="29"/>
      <point x="90" y="77"/>
      <point x="98" y="121" type="qcurve"/>
    </contour>
    <contour>
      <point x="219" y="814" type="line"/>
      <point x="233" y="893" type="line" smooth="yes"/>
      <point x="240" y="936"/>
      <point x="253" y="983"/>
      <point x="279" y="1006"/>
      <point x="328" y="1010"/>
      <point x="372" y="1010" type="qcurve" smooth="yes"/>
      <point x="448" y="1010" type="line" smooth="yes"/>
      <point x="492" y="1010"/>
      <point x="540" y="1006"/>
      <point x="559" y="983"/>
      <point x="555" y="936"/>
      <point x="548" y="893" type="qcurve" smooth="yes"/>
      <point x="534" y="814" type="line" smooth="yes"/>
      <point x="526" y="770"/>
      <point x="513" y="722"/>
      <point x="486" y="699"/>
      <point x="437" y="695"/>
      <point x="393" y="695" type="qcurve" smooth="yes"/>
      <point x="317" y="695" type="line" smooth="yes"/>
      <point x="273" y="695"/>
      <point x="226" y="699"/>
      <point x="207" y="722"/>
      <point x="211" y="770"/>
      <point x="219" y="814" type="qcurve"/>
    </contour>
    <contour>
      <point x="106" y="-290" type="line"/>
      <point x="302" y="25" type="line"/>
      <point x="386" y="25" type="line"/>
      <point x="134" y="-300" type="line"/>
      <point x="106" y="-290" type="line"/>
    </contour>
  </outline>
</glyph>
<glyph name="less" format="2">
  <advance width="1463"/>
  <unicode hex="003C"/>
  <outline>
    <contour>
      <point x="1200.29" y="0" type="line"/>
      <point x="1207.29" y="40" type="line"/>
      <point x="147.291" y="596" type="line"/>
      <point x="143.291" y="572" type="line"/>
      <point x="1397.29" y="1128" type="line"/>
      <point x="1404.29" y="1168" type="line"/>
      <point x="127.291" y="602" type="line"/>
      <point x="121.291" y="566" type="line"/>
    </contour>
  </outline>
</glyph>
<glyph name="equal" format="2">
  <advance width="1465"/>
  <unicode hex="003D"/>
  <outline>
    <contour>
      <point x="153" y="749" type="line"/>
      <point x="160" y="785" type="line"/>
      <point x="1338" y="785" type="line"/>
      <point x="1331" y="749" type="line"/>
    </contour>
    <contour>
      <point x="92" y="389" type="line"/>
      <point x="99" y="425" type="line"/>
      <point x="1277" y="425" type="line"/>
      <point x="1270" y="389" type="line"/>
    </contour>
  </outline>
</glyph>
<glyph name="question" format="2">
  <advance width="1142"/>
  <unicode hex="003F"/>
  <outline>
    <contour>
      <point x="466.398" y="462" type="line"/>
      <point x="490.398" y="602" type="line" smooth="yes"/>
      <point x="497.398" y="641"/>
      <point x="533.398" y="703"/>
      <point x="591.398" y="747"/>
      <point x="668.398" y="770"/>
      <point x="716.398" y="770" type="qcurve" smooth="yes"/>
      <point x="825.398" y="770" type="line"/>
      <point x="825.398" y="770"/>
      <point x="825.398" y="770"/>
      <point x="825.398" y="770"/>
      <point x="825.398" y="770"/>
      <point x="825.398" y="770" type="qcurve"/>
      <point x="932.398" y="1378" type="line"/>
      <point x="932.398" y="1378"/>
      <point x="932.398" y="1378"/>
      <point x="932.398" y="1378"/>
      <point x="932.398" y="1378"/>
      <point x="932.398" y="1378" type="qcurve"/>
      <point x="422.398" y="1378" type="line"/>
      <point x="422.398" y="1378"/>
      <point x="422.398" y="1378"/>
      <point x="422.398" y="1378"/>
      <point x="422.398" y="1378"/>
      <point x="422.398" y="1378" type="qcurve"/>
      <point x="352.398" y="980" type="line"/>
      <point x="105.398" y="1032" type="line"/>
      <point x="129.398" y="1166" type="line" smooth="yes"/>
      <point x="140.398" y="1232"/>
      <point x="182.398" y="1326"/>
      <point x="250.398" y="1386"/>
      <point x="350.398" y="1414"/>
      <point x="420.398" y="1414" type="qcurve" smooth="yes"/>
      <point x="934.398" y="1414" type="line" smooth="yes"/>
      <point x="1005.4" y="1414"/>
      <point x="1095.4" y="1387"/>
      <point x="1142.4" y="1327"/>
      <point x="1151.4" y="1233"/>
      <point x="1139.4" y="1166" type="qcurve" smooth="yes"/>
      <point x="1094.4" y="912" type="line" smooth="yes"/>
      <point x="1088.4" y="878"/>
      <point x="1052.4" y="813"/>
      <point x="989.398" y="764"/>
      <point x="896.398" y="734"/>
      <point x="833.398" y="734" type="qcurve" smooth="yes"/>
      <point x="710.398" y="734" type="line" smooth="yes"/>
      <point x="672.398" y="734"/>
      <point x="610.398" y="716"/>
      <point x="565.398" y="682"/>
      <point x="536.398" y="633"/>
      <point x="530.398" y="602" type="qcurve" smooth="yes"/>
      <point x="506.398" y="462" type="line"/>
    </contour>
    <contour>
      <point x="265.398" y="111" type="line"/>
      <point x="279.398" y="190" type="line" smooth="yes"/>
      <point x="287.398" y="233"/>
      <point x="299.398" y="280"/>
      <point x="326.398" y="303"/>
      <point x="375.398" y="307"/>
      <point x="419.398" y="307" type="qcurve" smooth="yes"/>
      <point x="495.398" y="307" type="line" smooth="yes"/>
      <point x="539.398" y="307"/>
      <point x="586.398" y="303"/>
      <point x="605.398" y="280"/>
      <point x="602.398" y="233"/>
      <point x="594.398" y="190" type="qcurve" smooth="yes"/>
      <point x="580.398" y="111" type="line" smooth="yes"/>
      <point x="573.398" y="67"/>
      <point x="560.398" y="19"/>
      <point x="533.398" y="-4"/>
      <point x="484.398" y="-8"/>
      <point x="440.398" y="-8" type="qcurve" smooth="yes"/>
      <point x="364.398" y="-8" type="line" smooth="yes"/>
      <point x="320.398" y="-8"/>
      <point x="273.398" y="-4"/>
      <point x="254.398" y="19"/>
      <point x="258.398" y="67"/>
      <point x="265.398" y="111" type="qcurve"/>
    </contour>
  </outline>
</glyph>
<glyph name="at" format="2">
  <advance width="1930" height="1020.84"/>
  <unicode hex="0040"/>
  <outline>
    <contour>
      <point x="85" y="94" type="line"/>
      <point x="236" y="957" type="line" smooth="yes"/>
      <point x="251" y="1042"/>
      <point x="319" y="1148"/>
      <point x="419" y="1208"/>
      <point x="548" y="1229"/>
      <point x="623" y="1229" type="qcurve" smooth="yes"/>
      <point x="1494" y="1229" type="line" smooth="yes"/>
      <point x="1569" y="1229"/>
      <point x="1691" y="1208"/>
      <point x="1771" y="1148"/>
      <point x="1803" y="1042"/>
      <point x="1788" y="957" type="qcurve" smooth="yes"/>
      <point x="1678" y="329" type="line" smooth="yes"/>
      <point x="1663" y="241"/>
      <point x="1602" y="151"/>
      <point x="1519" y="114"/>
      <point x="1417" y="113"/>
      <point x="1361" y="113" type="qcurve" smooth="yes"/>
      <point x="1243" y="113" type="line" smooth="yes"/>
      <point x="1205" y="113"/>
      <point x="1148" y="129"/>
      <point x="1107" y="156"/>
      <point x="1081" y="191"/>
      <point x="1074" y="209" type="qcurve"/>
      <point x="1067" y="199"/>
      <point x="1046" y="181"/>
      <point x="1019" y="168"/>
      <point x="984" y="160"/>
      <point x="962" y="160" type="qcurve" smooth="yes"/>
      <point x="649" y="160" type="line" smooth="yes"/>
      <point x="599" y="160"/>
      <point x="530" y="178"/>
      <point x="491" y="217"/>
      <point x="481" y="277"/>
      <point x="488" y="320" type="qcurve" smooth="yes"/>
      <point x="557" y="719" type="line" smooth="yes"/>
      <point x="564" y="759"/>
      <point x="596" y="817"/>
      <point x="649" y="854"/>
      <point x="723" y="872"/>
      <point x="773" y="872" type="qcurve" smooth="yes"/>
      <point x="1120" y="872" type="line" smooth="yes"/>
      <point x="1140" y="872"/>
      <point x="1162" y="861"/>
      <point x="1167" y="854" type="qcurve"/>
      <point x="1170" y="872" type="line"/>
      <point x="1379" y="872" type="line"/>
      <point x="1265" y="216" type="line" smooth="yes"/>
      <point x="1261" y="196"/>
      <point x="1265" y="167"/>
      <point x="1280" y="149"/>
      <point x="1309" y="141"/>
      <point x="1330" y="141" type="qcurve" smooth="yes"/>
      <point x="1375" y="141" type="line" smooth="yes"/>
      <point x="1394" y="141"/>
      <point x="1425" y="149"/>
      <point x="1447" y="167"/>
      <point x="1462" y="195"/>
      <point x="1466" y="216" type="qcurve" smooth="yes"/>
      <point x="1618" y="1090" type="line" smooth="yes"/>
      <point x="1622" y="1113"/>
      <point x="1617" y="1151"/>
      <point x="1589" y="1178"/>
      <point x="1533" y="1193"/>
      <point x="1487" y="1193" type="qcurve" smooth="yes"/>
      <point x="616" y="1193" type="line" smooth="yes"/>
      <point x="583" y="1193"/>
      <point x="528" y="1185"/>
      <point x="485" y="1162"/>
      <point x="457" y="1122"/>
      <point x="451" y="1090" type="qcurve" smooth="yes"/>
      <point x="254" y="-39" type="line" smooth="yes"/>
      <point x="250" y="-65"/>
      <point x="254" y="-107"/>
      <point x="281" y="-137"/>
      <point x="336" y="-153"/>
      <point x="381" y="-153" type="qcurve" smooth="yes"/>
      <point x="1411" y="-153" type="line"/>
      <point x="1405" y="-189" type="line"/>
      <point x="375" y="-189" type="line" smooth="yes"/>
      <point x="296" y="-189"/>
      <point x="174" y="-166"/>
      <point x="97" y="-103"/>
      <point x="70" y="7"/>
      <point x="85" y="94" type="qcurve"/>
    </contour>
    <contour>
      <point x="692" y="192" type="line"/>
      <point x="692" y="192"/>
      <point x="692" y="192"/>
      <point x="692" y="192" type="qcurve"/>
      <point x="967" y="192" type="line" smooth="yes"/>
      <point x="1011" y="192"/>
      <point x="1059" y="238"/>
      <point x="1067" y="283" type="qcurve" smooth="yes"/>
      <point x="1165" y="840" type="line"/>
      <point x="805" y="840" type="line"/>
      <point x="805" y="840"/>
      <point x="805" y="840"/>
      <point x="805" y="840" type="qcurve"/>
    </contour>
  </outline>
  <guideline angle="0" x="0" y="993"/>
</glyph>
<glyph name="C" format="2">
  <advance width="1647" height="1448"/>
  <unicode hex="0043"/>
  <anchor x="990" y="1560" name="top"/>
  <anchor x="690" y="-160" name="bottom"/>
  <outline>
    <contour>
      <point x="267" y="1136" type="line"/>
      <point x="117" y="276" type="line" smooth="yes"/>
      <point x="104" y="199"/>
      <point x="122" y="90"/>
      <point x="191" y="21"/>
      <point x="316" y="-10"/>
      <point x="409" y="-10" type="qcurve" smooth="yes"/>
      <point x="1035" y="-10" type="line" smooth="yes"/>
      <point x="1128" y="-10"/>
      <point x="1264" y="21"/>
      <point x="1359" y="90"/>
      <point x="1416" y="199"/>
      <point x="1429" y="276" type="qcurve" smooth="yes"/>
      <point x="1465" y="482" type="line"/>
      <point x="1210" y="534" type="line"/>
      <point x="1122" y="26" type="line"/>
      <point x="1122" y="26"/>
      <point x="1122" y="26"/>
      <point x="1122" y="26"/>
      <point x="1122" y="26"/>
      <point x="1122" y="26" type="qcurve"/>
      <point x="338" y="26" type="line"/>
      <point x="338" y="26"/>
      <point x="338" y="26"/>
      <point x="338" y="26"/>
      <point x="338" y="26"/>
      <point x="338" y="26" type="qcurve"/>
      <point x="573" y="1374" type="line"/>
      <point x="573" y="1374"/>
      <point x="573" y="1374"/>
      <point x="573" y="1374"/>
      <point x="573" y="1374"/>
      <point x="573" y="1374" type="qcurve"/>
      <point x="1349" y="1374" type="line"/>
      <point x="1349" y="1374"/>
      <point x="1349" y="1374"/>
      <point x="1349" y="1374"/>
      <point x="1349" y="1374"/>
      <point x="1349" y="1374" type="qcurve"/>
      <point x="1265" y="896" type="line"/>
      <point x="1538" y="944" type="line"/>
      <point x="1571" y="1136" type="line" smooth="yes"/>
      <point x="1584" y="1210"/>
      <point x="1564" y="1314"/>
      <point x="1492" y="1380"/>
      <point x="1367" y="1410"/>
      <point x="1275" y="1410" type="qcurve" smooth="yes"/>
      <point x="657" y="1410" type="line" smooth="yes"/>
      <point x="566" y="1410"/>
      <point x="430" y="1380"/>
      <point x="336" y="1314"/>
      <point x="280" y="1210"/>
      <point x="267" y="1136" type="qcurve"/>
    </contour>
  </outline>
</glyph>
<glyph name="D" format="2">
  <advance width="1848"/>
  <unicode hex="0044"/>
  <anchor x="832" y="1550" name="top"/>
  <anchor x="832" y="-150" name="bottom"/>
  <outline>
    <contour>
      <point x="369.982" y="36" type="line"/>
      <point x="841.982" y="36" type="line" smooth="yes"/>
      <point x="916.982" y="36"/>
      <point x="1047.39" y="67"/>
      <point x="1160.26" y="135"/>
      <point x="1255.93" y="242"/>
      <point x="1334.28" y="393"/>
      <point x="1394.83" y="591"/>
      <point x="1416.47" y="715" type="qcurve" smooth="yes"/>
      <point x="1437.23" y="834"/>
      <point x="1443.21" y="1023"/>
      <point x="1416.34" y="1167"/>
      <point x="1356.14" y="1269"/>
      <point x="1266.48" y="1334"/>
      <point x="1146.72" y="1364"/>
      <point x="1073.72" y="1364" type="qcurve" smooth="yes"/>
      <point x="601.718" y="1364" type="line"/>
    </contour>
    <contour>
      <point x="99.7" y="0" type="line"/>
      <point x="344" y="1400" type="line"/>
      <point x="1123" y="1400" type="line" smooth="yes"/>
      <point x="1220" y="1400"/>
      <point x="1391.37" y="1362"/>
      <point x="1530.93" y="1285"/>
      <point x="1636.69" y="1169"/>
      <point x="1698.47" y="1013"/>
      <point x="1712.44" y="818"/>
      <point x="1691.85" y="700" type="qcurve" smooth="yes"/>
      <point x="1670.04" y="575"/>
      <point x="1585.79" y="373"/>
      <point x="1468.74" y="218"/>
      <point x="1323.2" y="106"/>
      <point x="1156.63" y="34"/>
      <point x="973.7" y="0"/>
      <point x="878.7" y="0" type="qcurve" smooth="yes"/>
    </contour>
  </outline>
  <guideline y="1549"/>
  <guideline y="1325"/>
  <guideline y="73"/>
</glyph>
<glyph name="G" format="2">
  <advance width="1767" height="1448"/>
  <unicode hex="0047"/>
  <anchor x="1042" y="1560" name="top"/>
  <anchor x="742" y="-160" name="bottom"/>
  <outline>
    <contour>
      <point x="274.517" y="1176" type="line"/>
      <point x="110.517" y="236" type="line" smooth="yes"/>
      <point x="97.5171" y="163"/>
      <point x="114.517" y="68"/>
      <point x="174.517" y="12"/>
      <point x="276.517" y="-10"/>
      <point x="349.517" y="-10" type="qcurve" smooth="yes"/>
      <point x="1181.52" y="-10" type="line" smooth="yes"/>
      <point x="1254.52" y="-10"/>
      <point x="1365.52" y="12"/>
      <point x="1444.52" y="67"/>
      <point x="1495.52" y="163"/>
      <point x="1508.52" y="236" type="qcurve" smooth="yes"/>
      <point x="1589.52" y="700" type="line"/>
      <point x="885.517" y="700" type="line"/>
      <point x="879.517" y="664" type="line"/>
      <point x="1319.52" y="664" type="line"/>
      <point x="1208.52" y="26" type="line"/>
      <point x="1208.52" y="26"/>
      <point x="1208.52" y="26"/>
      <point x="1208.52" y="26"/>
      <point x="1208.52" y="26"/>
      <point x="1208.52" y="26" type="qcurve"/>
      <point x="338.517" y="26" type="line"/>
      <point x="338.517" y="26"/>
      <point x="338.517" y="26"/>
      <point x="338.517" y="26"/>
      <point x="338.517" y="26"/>
      <point x="338.517" y="26" type="qcurve"/>
      <point x="573.517" y="1374" type="line"/>
      <point x="573.517" y="1374"/>
      <point x="573.517" y="1374"/>
      <point x="573.517" y="1374"/>
      <point x="573.517" y="1374"/>
      <point x="573.517" y="1374" type="qcurve"/>
      <point x="1437.52" y="1374" type="line"/>
      <point x="1437.52" y="1374"/>
      <point x="1437.52" y="1374"/>
      <point x="1437.52" y="1374"/>
      <point x="1437.52" y="1374"/>
      <point x="1437.52" y="1374" type="qcurve"/>
      <point x="1368.52" y="980" type="line"/>
      <point x="1644.52" y="1038" type="line"/>
      <point x="1668.52" y="1176" type="line" smooth="yes"/>
      <point x="1680.52" y="1247"/>
      <point x="1660.52" y="1338"/>
      <point x="1599.52" y="1390"/>
      <point x="1497.52" y="1410"/>
      <point x="1427.52" y="1410" type="qcurve" smooth="yes"/>
      <point x="597.517" y="1410" type="line" smooth="yes"/>
      <point x="527.517" y="1410"/>
      <point x="417.517" y="1390"/>
      <point x="338.517" y="1338"/>
      <point x="286.517" y="1247"/>
      <point x="274.517" y="1176" type="qcurve"/>
    </contour>
  </outline>
  <guideline y="574"/>
  <guideline y="1036"/>
  <guideline y="980"/>
  <guideline y="806"/>
  <guideline y="700"/>
  <guideline y="906"/>
  <guideline y="494"/>
</glyph>
<glyph name="H" format="2">
  <advance width="1858" height="1448"/>
  <unicode hex="0048"/>
  <anchor x="1081" y="1550" name="top"/>
  <anchor x="784" y="-150" name="bottom"/>
  <anchor x="122" y="700" name="left"/>
  <outline>
    <contour>
      <point x="100" y="0" type="line"/>
      <point x="364" y="0" type="line"/>
      <point x="488" y="712" type="line"/>
      <point x="1378" y="712" type="line"/>
      <point x="1254" y="0" type="line"/>
      <point x="1518" y="0" type="line"/>
      <point x="1762" y="1400" type="line"/>
      <point x="1498" y="1400" type="line"/>
      <point x="1385" y="748" type="line"/>
      <point x="495" y="748" type="line"/>
      <point x="608" y="1400" type="line"/>
      <point x="344" y="1400" type="line"/>
    </contour>
  </outline>
  <guideline x="809" y="0" angle="260.108" color="1,0,0,1"/>
</glyph>
<glyph name="J" format="2">
  <advance width="1693.5" height="1448"/>
  <unicode hex="004A"/>
  <anchor x="1501" y="1560" name="top"/>
  <anchor x="667" y="-150" name="bottom"/>
  <outline>
    <contour>
      <point x="1613" y="1400" type="line"/>
      <point x="1333" y="1400" type="line"/>
      <point x="1094" y="26" type="line"/>
      <point x="1094" y="26"/>
      <point x="1094" y="26"/>
      <point x="1094" y="26"/>
      <point x="1094" y="26"/>
      <point x="1094" y="26" type="qcurve"/>
      <point x="270" y="26" type="line"/>
      <point x="270" y="26"/>
      <point x="270" y="26"/>
      <point x="270" y="26"/>
      <point x="270" y="26"/>
      <point x="270" y="26" type="qcurve"/>
      <point x="377" y="644" type="line"/>
      <point x="88" y="592" type="line"/>
      <point x="24" y="224" type="line" smooth="yes"/>
      <point x="12" y="153"/>
      <point x="32" y="62"/>
      <point x="93" y="10"/>
      <point x="195" y="-10"/>
      <point x="265" y="-10" type="qcurve" smooth="yes"/>
      <point x="1085" y="-10" type="line" smooth="yes"/>
      <point x="1156" y="-10"/>
      <point x="1265" y="10"/>
      <point x="1344" y="62"/>
      <point x="1396" y="153"/>
      <point x="1408" y="224" type="qcurve" smooth="yes"/>
    </contour>
  </outline>
</glyph>
<glyph name="K" format="2">
  <advance width="1680" height="1448"/>
  <unicode hex="004B"/>
  <anchor x="1026" y="1550" name="top"/>
  <anchor x="724" y="-150" name="bottom"/>
  <outline>
    <contour>
      <point x="100" y="0" type="line"/>
      <point x="364" y="0" type="line"/>
      <point x="484" y="685" type="line"/>
      <point x="402" y="737" type="line"/>
      <point x="1175" y="0" type="line"/>
      <point x="1560" y="0" type="line"/>
      <point x="675" y="839" type="line"/>
      <point x="552" y="754" type="line"/>
      <point x="1668" y="1400" type="line"/>
      <point x="1596" y="1400" type="line"/>
      <point x="481" y="754" type="line"/>
      <point x="495" y="748" type="line"/>
      <point x="608" y="1400" type="line"/>
      <point x="344" y="1400" type="line"/>
    </contour>
  </outline>
</glyph>
<glyph name="L" format="2">
  <advance width="1402"/>
  <unicode hex="004C"/>
  <anchor x="503" y="1550" name="top"/>
  <anchor x="660" y="-150" name="bottom"/>
  <anchor x="122" y="700" name="left"/>
  <anchor x="988" y="1400" name="right"/>
  <anchor x="1055" y="700" name="eldot"/>
  <outline>
    <contour>
      <point x="100" y="0" type="line"/>
      <point x="344" y="1400" type="line"/>
      <point x="608" y="1400" type="line"/>
      <point x="370" y="36" type="line"/>
      <point x="1278" y="36" type="line"/>
      <point x="1272" y="0" type="line"/>
    </contour>
  </outline>
</glyph>
<glyph name="M" format="2">
  <advance width="1944"/>
  <unicode hex="004D"/>
  <anchor x="1124" y="1550" name="top"/>
  <anchor x="827" y="-150" name="bottom"/>
  <outline>
    <contour>
      <point x="100" y="0" type="line"/>
      <point x="138" y="0" type="line"/>
      <point x="328" y="1087" type="line"/>
      <point x="779" y="245" type="line"/>
      <point x="1536" y="1122" type="line"/>
      <point x="1340" y="0" type="line"/>
      <point x="1604" y="0" type="line"/>
      <point x="1848" y="1400" type="line"/>
      <point x="1732" y="1400" type="line"/>
      <point x="950" y="492" type="line"/>
      <point x="464" y="1400" type="line"/>
      <point x="344" y="1400" type="line"/>
    </contour>
  </outline>
</glyph>
<glyph name="N" format="2">
  <advance width="1678"/>
  <unicode hex="004E"/>
  <anchor x="990" y="1550" name="top"/>
  <anchor x="693" y="-150" name="bottom"/>
  <outline>
    <contour>
      <point x="100" y="0" type="line"/>
      <point x="136" y="0" type="line"/>
      <point x="330" y="1110" type="line"/>
      <point x="1230" y="0" type="line"/>
      <point x="1338" y="0" type="line"/>
      <point x="1582" y="1400" type="line"/>
      <point x="1546" y="1400" type="line"/>
      <point x="1352" y="284" type="line"/>
      <point x="447" y="1400" type="line"/>
      <point x="344" y="1400" type="line"/>
    </contour>
  </outline>
</glyph>
<glyph name="O" format="2">
  <advance width="1830.79" height="1448"/>
  <unicode hex="004F"/>
  <anchor x="1065" y="1560" name="top"/>
  <anchor x="766" y="-160" name="bottom"/>
  <anchor x="1719" y="1136" name="horn"/>
  <anchor x="811" y="0" name="ogonek"/>
  <outline>
    <contour>
      <point x="267.45" y="1136" type="line"/>
      <point x="117.45" y="276" type="line" smooth="yes"/>
      <point x="102.45" y="188"/>
      <point x="129.45" y="77"/>
      <point x="206.45" y="14"/>
      <point x="329.45" y="-10"/>
      <point x="409.45" y="-10" type="qcurve" smooth="yes"/>
      <point x="1175.45" y="-10" type="line" smooth="yes"/>
      <point x="1255.45" y="-10"/>
      <point x="1387.45" y="13"/>
      <point x="1487.45" y="76"/>
      <point x="1554.45" y="188"/>
      <point x="1569.45" y="276" type="qcurve" smooth="yes"/>
      <point x="1719.45" y="1136" type="line" smooth="yes"/>
      <point x="1734.45" y="1222"/>
      <point x="1702.45" y="1329"/>
      <point x="1621.45" y="1389"/>
      <point x="1499.45" y="1410"/>
      <point x="1423.45" y="1410" type="qcurve" smooth="yes"/>
      <point x="657.45" y="1410" type="line" smooth="yes"/>
      <point x="581.45" y="1410"/>
      <point x="452.45" y="1389"/>
      <point x="351.45" y="1329"/>
      <point x="282.45" y="1222"/>
      <point x="267.45" y="1136" type="qcurve"/>
    </contour>
    <contour>
      <point x="573.45" y="1374" type="line"/>
      <point x="573.45" y="1374"/>
      <point x="573.45" y="1374"/>
      <point x="573.45" y="1374"/>
      <point x="573.45" y="1374"/>
      <point x="573.45" y="1374" type="qcurve"/>
      <point x="1497.45" y="1374" type="line"/>
      <point x="1497.45" y="1374"/>
      <point x="1497.45" y="1374"/>
      <point x="1497.45" y="1374"/>
      <point x="1497.45" y="1374"/>
      <point x="1497.45" y="1374" type="qcurve"/>
      <point x="1262.45" y="26" type="line"/>
      <point x="1262.45" y="26"/>
      <point x="1262.45" y="26"/>
      <point x="1262.45" y="26"/>
      <point x="1262.45" y="26"/>
      <point x="1262.45" y="26" type="qcurve"/>
      <point x="338.45" y="26" type="line"/>
      <point x="338.45" y="26"/>
      <point x="338.45" y="26"/>
      <point x="338.45" y="26"/>
      <point x="338.45" y="26"/>
      <point x="338.45" y="26" type="qcurve"/>
    </contour>
  </outline>
</glyph>
<glyph name="P" format="2">
  <advance width="1599"/>
  <unicode hex="0050"/>
  <outline>
    <contour>
      <point x="100" y="0" type="line"/>
      <point x="364" y="0" type="line"/>
      <point x="453" y="512" type="line"/>
      <point x="1121" y="512" type="line" smooth="yes"/>
      <point x="1197" y="512"/>
      <point x="1329" y="534"/>
      <point x="1432" y="594"/>
      <point x="1503" y="701"/>
      <point x="1518" y="786" type="qcurve" smooth="yes"/>
      <point x="1578" y="1126" type="line" smooth="yes"/>
      <point x="1593" y="1212"/>
      <point x="1562" y="1319"/>
      <point x="1483" y="1379"/>
      <point x="1362" y="1400"/>
      <point x="1286" y="1400" type="qcurve" smooth="yes"/>
      <point x="344" y="1400" type="line"/>
    </contour>
    <contour>
      <point x="460" y="548" type="line"/>
      <point x="602" y="1364" type="line"/>
      <point x="1128" y="1364" type="line" smooth="yes"/>
      <point x="1185" y="1364"/>
      <point x="1265" y="1335"/>
      <point x="1313" y="1283"/>
      <point x="1328" y="1209"/>
      <point x="1320" y="1164" type="qcurve" smooth="yes"/>
      <point x="1248" y="748" type="line" smooth="yes"/>
      <point x="1240" y="703"/>
      <point x="1196" y="629"/>
      <point x="1126" y="577"/>
      <point x="1033" y="548"/>
      <point x="976" y="548" type="qcurve" smooth="yes"/>
    </contour>
  </outline>
  <guideline x="799.5" name="halfwidth" color="0.4,0.4,0.4,1"/>
</glyph>
<glyph name="R" format="2">
  <advance width="1662"/>
  <unicode hex="0052"/>
  <anchor x="831" y="-150" name="bottom"/>
  <anchor x="831" y="1550" name="top"/>
  <outline>
    <contour>
      <point x="100" y="0" type="line"/>
      <point x="364" y="0" type="line"/>
      <point x="470" y="610" type="line"/>
      <point x="674" y="610" type="line"/>
      <point x="1130" y="0" type="line"/>
      <point x="1472" y="0" type="line"/>
      <point x="1009" y="610" type="line"/>
      <point x="1144" y="610" type="line" smooth="yes"/>
      <point x="1220" y="610"/>
      <point x="1350" y="632"/>
      <point x="1452" y="692"/>
      <point x="1521" y="799"/>
      <point x="1536" y="884" type="qcurve" smooth="yes"/>
      <point x="1579" y="1126" type="line" smooth="yes"/>
      <point x="1594" y="1212"/>
      <point x="1561" y="1319"/>
      <point x="1480" y="1379"/>
      <point x="1358" y="1400"/>
      <point x="1282" y="1400" type="qcurve" smooth="yes"/>
      <point x="344" y="1400" type="line"/>
    </contour>
    <contour>
      <point x="477" y="646" type="line"/>
      <point x="602" y="1364" type="line"/>
      <point x="1124" y="1364" type="line" smooth="yes"/>
      <point x="1181" y="1364"/>
      <point x="1263" y="1335"/>
      <point x="1312" y="1283"/>
      <point x="1329" y="1209"/>
      <point x="1321" y="1164" type="qcurve" smooth="yes"/>
      <point x="1266" y="846" type="line" smooth="yes"/>
      <point x="1258" y="801"/>
      <point x="1215" y="727"/>
      <point x="1148" y="675"/>
      <point x="1056" y="646"/>
      <point x="999" y="646" type="qcurve" smooth="yes"/>
    </contour>
  </outline>
  <guideline x="831" name="halfwidth" color="0.4,0.4,0.4,1"/>
</glyph>
<glyph name="V" format="2">
  <advance width="1580"/>
  <unicode hex="0056"/>
  <anchor x="944" y="1550" name="top"/>
  <anchor x="647" y="-150" name="bottom"/>
  <outline>
    <contour>
      <point x="127" y="1400" type="line"/>
      <point x="451" y="1400" type="line"/>
      <point x="849" y="153" type="line"/>
      <point x="1667" y="1400" type="line"/>
      <point x="1707" y="1400" type="line"/>
      <point x="785" y="0" type="line"/>
      <point x="585" y="0" type="line"/>
    </contour>
  </outline>
</glyph>
<glyph name="W" format="2">
  <advance width="1994"/>
  <unicode hex="0057"/>
  <anchor x="921" y="-150" name="bottom"/>
  <anchor x="1150" y="1550" name="top"/>
  <outline>
    <contour>
      <point x="352.858" y="0" type="line"/>
      <point x="552.858" y="0" type="line"/>
      <point x="1101.86" y="1224" type="line"/>
      <point x="1295.86" y="0" type="line"/>
      <point x="1488.86" y="0" type="line"/>
      <point x="2120.86" y="1400" type="line"/>
      <point x="2080.86" y="1400" type="line"/>
      <point x="1533.86" y="187" type="line"/>
      <point x="1340.86" y="1400" type="line"/>
      <point x="1140.86" y="1400" type="line"/>
      <point x="591.858" y="176" type="line"/>
      <point x="394.858" y="1400" type="line"/>
      <point x="126.858" y="1400" type="line"/>
    </contour>
  </outline>
</glyph>
<glyph name="X" format="2">
  <advance width="1475"/>
  <unicode hex="0058"/>
  <anchor x="890" y="1550" name="top"/>
  <anchor x="593" y="-150" name="bottom"/>
  <outline>
    <contour>
      <point x="-114.142" y="0" type="line"/>
      <point x="-61.1422" y="0" type="line"/>
      <point x="632.858" y="636" type="line"/>
      <point x="1052.86" y="0" type="line"/>
      <point x="1354.86" y="0" type="line"/>
      <point x="830.858" y="793" type="line"/>
      <point x="1495.86" y="1400" type="line"/>
      <point x="1442.86" y="1400" type="line"/>
      <point x="810.858" y="823" type="line"/>
      <point x="429.858" y="1400" type="line"/>
      <point x="126.858" y="1400" type="line"/>
      <point x="611.858" y="666" type="line"/>
    </contour>
  </outline>
</glyph>
<glyph name="Y" format="2">
  <advance width="1559"/>
  <unicode hex="0059"/>
  <anchor x="1107" y="1556" name="top"/>
  <anchor x="769" y="-150" name="bottom"/>
  <outline>
    <contour>
      <point x="567.858" y="1" type="line"/>
      <point x="831.858" y="1" type="line"/>
      <point x="945.858" y="656" type="line"/>
      <point x="1685.86" y="1400" type="line"/>
      <point x="1634.86" y="1400" type="line"/>
      <point x="927.858" y="689" type="line"/>
      <point x="440.858" y="1400" type="line"/>
      <point x="126.858" y="1400" type="line"/>
      <point x="672.858" y="603" type="line"/>
    </contour>
  </outline>
  <guideline x="759" y="0" angle="260.109" color="1,0,0,1"/>
</glyph>
<glyph name="Z" format="2">
  <advance width="1294"/>
  <unicode hex="005A"/>
  <anchor x="647" y="1550" name="top"/>
  <anchor x="647" y="-150" name="bottom"/>
  <outline>
    <contour>
      <point x="-109.826" y="0" type="line"/>
      <point x="1164.17" y="0" type="line"/>
      <point x="1168.17" y="36" type="line"/>
      <point x="213.174" y="36" type="line"/>
      <point x="1402.17" y="1374" type="line"/>
      <point x="1406.17" y="1400" type="line"/>
      <point x="218.174" y="1400" type="line"/>
      <point x="212.174" y="1364" type="line"/>
      <point x="1086.17" y="1364" type="line"/>
      <point x="-106.826" y="18" type="line"/>
    </contour>
  </outline>
</glyph>
<glyph name="bracketleft" format="2">
  <advance width="820"/>
  <unicode hex="005B"/>
  <outline>
    <contour>
      <point x="54.4637" y="-256" type="line"/>
      <point x="352.464" y="1448" type="line"/>
      <point x="886.464" y="1448" type="line"/>
      <point x="880.464" y="1416" type="line"/>
      <point x="594.464" y="1416" type="line"/>
      <point x="308.464" y="-224" type="line"/>
      <point x="594.464" y="-224" type="line"/>
      <point x="588.464" y="-256" type="line"/>
    </contour>
  </outline>
</glyph>
<glyph name="backslash" format="2">
  <advance width="976"/>
  <unicode hex="005C"/>
  <outline>
    <contour>
      <point x="449.862" y="1430" type="line"/>
      <point x="229.862" y="1430" type="line"/>
      <point x="519.862" y="-100" type="line"/>
      <point x="739.862" y="-100" type="line"/>
    </contour>
  </outline>
</glyph>
<glyph name="asciicircum" format="2">
  <advance width="880"/>
  <unicode hex="005E"/>
  <outline>
    <contour>
      <point x="40" y="850" type="line"/>
      <point x="483" y="1400" type="line"/>
      <point x="631" y="1400" type="line"/>
      <point x="900" y="850" type="line"/>
      <point x="675" y="850" type="line"/>
      <point x="477" y="1339" type="line"/>
      <point x="86" y="850" type="line"/>
    </contour>
  </outline>
  <guideline angle="0" x="0" y="850"/>
</glyph>
<glyph name="a" format="2">
  <advance width="1389.09" height="1448"/>
  <unicode hex="0061"/>
  <anchor x="767" y="1150" name="top"/>
  <anchor x="540" y="-150" name="bottom"/>
  <anchor x="868" y="0" name="ogonek"/>
  <outline>
    <contour>
      <point x="284.093" y="-6" type="line" smooth="yes"/>
      <point x="226.093" y="-6"/>
      <point x="138.093" y="11"/>
      <point x="82.0934" y="56"/>
      <point x="63.0934" y="135"/>
      <point x="74.0934" y="198" type="qcurve" smooth="yes"/>
      <point x="98.0934" y="340" type="line" smooth="yes"/>
      <point x="109.093" y="402"/>
      <point x="171.093" y="478"/>
      <point x="258.093" y="520"/>
      <point x="363.093" y="534"/>
      <point x="418.093" y="534" type="qcurve" smooth="yes"/>
      <point x="924.093" y="534" type="line"/>
      <point x="1001.09" y="974" type="line"/>
      <point x="1001.09" y="974"/>
      <point x="1001.09" y="974"/>
      <point x="1001.09" y="974" type="qcurve"/>
      <point x="471.093" y="974" type="line"/>
      <point x="471.093" y="974"/>
      <point x="471.093" y="974"/>
      <point x="471.093" y="974" type="qcurve"/>
      <point x="425.093" y="708" type="line"/>
      <point x="185.093" y="754" type="line"/>
      <point x="194.093" y="810" type="line" smooth="yes"/>
      <point x="205.093" y="872"/>
      <point x="254.093" y="948"/>
      <point x="327.093" y="991"/>
      <point x="420.093" y="1006"/>
      <point x="475.093" y="1006" type="qcurve" smooth="yes"/>
      <point x="1009.09" y="1006" type="line" smooth="yes"/>
      <point x="1064.09" y="1006"/>
      <point x="1152.09" y="991"/>
      <point x="1209.09" y="948"/>
      <point x="1231.09" y="872"/>
      <point x="1220.09" y="810" type="qcurve" smooth="yes"/>
      <point x="1079.09" y="0" type="line"/>
      <point x="831.093" y="0" type="line"/>
      <point x="835.093" y="22" type="line"/>
      <point x="829.093" y="15"/>
      <point x="812.093" y="5"/>
      <point x="791.093" y="-2"/>
      <point x="768.093" y="-6"/>
      <point x="754.093" y="-6" type="qcurve" smooth="yes"/>
    </contour>
    <contour>
      <point x="292.093" y="26" type="line"/>
      <point x="292.093" y="26"/>
      <point x="292.093" y="26"/>
      <point x="292.093" y="26" type="qcurve"/>
      <point x="836.093" y="26" type="line"/>
      <point x="919.093" y="502" type="line"/>
      <point x="375.093" y="502" type="line"/>
      <point x="375.093" y="502"/>
      <point x="375.093" y="502"/>
      <point x="375.093" y="502" type="qcurve"/>
    </contour>
  </outline>
  <guideline angle="260.109" color="1,0,0,1" x="831" y="0"/>
</glyph>
<glyph name="b" format="2">
  <advance width="1440" height="-1448"/>
  <unicode hex="0062"/>
  <anchor x="902" y="1600" name="top"/>
  <anchor x="596" y="-152" name="bottom"/>
  <outline>
    <contour>
      <point x="77" y="0" type="line"/>
      <point x="325" y="0" type="line"/>
      <point x="329" y="22" type="line"/>
      <point x="337" y="8"/>
      <point x="373" y="-8"/>
      <point x="400" y="-8" type="qcurve" smooth="yes"/>
      <point x="892" y="-8" type="line" smooth="yes"/>
      <point x="961" y="-8"/>
      <point x="1062" y="16"/>
      <point x="1133" y="68"/>
      <point x="1175" y="150"/>
      <point x="1185" y="208" type="qcurve" smooth="yes"/>
      <point x="1289" y="804" type="line" smooth="yes"/>
      <point x="1299" y="858"/>
      <point x="1283" y="935"/>
      <point x="1230" y="985"/>
      <point x="1137" y="1008"/>
      <point x="1069" y="1008" type="qcurve" smooth="yes"/>
      <point x="577" y="1008" type="line" smooth="yes"/>
      <point x="545" y="1008"/>
      <point x="505" y="996"/>
      <point x="497" y="984" type="qcurve"/>
      <point x="578" y="1448" type="line"/>
      <point x="330" y="1448" type="line"/>
    </contour>
    <contour>
      <point x="329" y="24" type="line"/>
      <point x="495" y="976" type="line"/>
      <point x="1071" y="976" type="line"/>
      <point x="1071" y="976"/>
      <point x="1071" y="976"/>
      <point x="1071" y="976" type="qcurve"/>
      <point x="905" y="24" type="line"/>
      <point x="905" y="24"/>
      <point x="905" y="24"/>
      <point x="905" y="24" type="qcurve"/>
    </contour>
  </outline>
  <guideline y="988"/>
  <guideline y="42"/>
</glyph>
<glyph name="c" format="2">
  <advance width="1374"/>
  <unicode hex="0063"/>
  <anchor x="789" y="1150" name="top"/>
  <anchor x="562" y="-150" name="bottom"/>
  <outline>
    <contour>
      <point x="85.588" y="208" type="line"/>
      <point x="189.588" y="802" type="line" smooth="yes"/>
      <point x="198.588" y="857"/>
      <point x="241.588" y="934"/>
      <point x="311.588" y="983"/>
      <point x="413.588" y="1006"/>
      <point x="481.588" y="1006" type="qcurve" smooth="yes"/>
      <point x="1039.59" y="1006" type="line" smooth="yes"/>
      <point x="1108.59" y="1006"/>
      <point x="1201.59" y="983"/>
      <point x="1254.59" y="934"/>
      <point x="1268.59" y="857"/>
      <point x="1259.59" y="802" type="qcurve" smooth="yes"/>
      <point x="1240.59" y="696" type="line"/>
      <point x="984.588" y="650" type="line"/>
      <point x="1041.59" y="974" type="line"/>
      <point x="1041.59" y="974"/>
      <point x="1041.59" y="974"/>
      <point x="1041.59" y="974" type="qcurve"/>
      <point x="467.588" y="974" type="line"/>
      <point x="467.588" y="974"/>
      <point x="467.588" y="974"/>
      <point x="467.588" y="974" type="qcurve"/>
      <point x="302.588" y="26" type="line"/>
      <point x="302.588" y="26"/>
      <point x="302.588" y="26"/>
      <point x="302.588" y="26" type="qcurve"/>
      <point x="880.588" y="26" type="line"/>
      <point x="880.588" y="26"/>
      <point x="880.588" y="26"/>
      <point x="880.588" y="26" type="qcurve"/>
      <point x="938.588" y="360" type="line"/>
      <point x="1177.59" y="310" type="line"/>
      <point x="1159.59" y="208" type="line" smooth="yes"/>
      <point x="1149.59" y="150"/>
      <point x="1107.59" y="69"/>
      <point x="1037.59" y="18"/>
      <point x="936.588" y="-6"/>
      <point x="866.588" y="-6" type="qcurve" smooth="yes"/>
      <point x="304.588" y="-6" type="line" smooth="yes"/>
      <point x="234.588" y="-6"/>
      <point x="141.588" y="18"/>
      <point x="88.588" y="69"/>
      <point x="75.588" y="150"/>
      <point x="85.588" y="208" type="qcurve"/>
    </contour>
  </outline>
</glyph>
<glyph name="d" format="2">
  <advance width="1440" height="1448"/>
  <unicode hex="0064"/>
  <anchor x="855" y="1598" name="top"/>
  <anchor x="560" y="-150" name="bottom"/>
  <anchor x="1375" y="1448" name="right"/>
  <outline>
    <contour>
      <point x="85.5742" y="208" type="line"/>
      <point x="189.574" y="802" type="line" smooth="yes"/>
      <point x="198.574" y="856"/>
      <point x="241.574" y="933"/>
      <point x="311.574" y="983"/>
      <point x="413.574" y="1006"/>
      <point x="481.574" y="1006" type="qcurve" smooth="yes"/>
      <point x="973.574" y="1006" type="line" smooth="yes"/>
      <point x="1005.57" y="1006"/>
      <point x="1040.57" y="994"/>
      <point x="1044.57" y="982" type="qcurve"/>
      <point x="1126.57" y="1448" type="line"/>
      <point x="1374.57" y="1448" type="line"/>
      <point x="1121.57" y="0" type="line"/>
      <point x="873.574" y="0" type="line"/>
      <point x="877.574" y="22" type="line"/>
      <point x="864.574" y="8"/>
      <point x="823.574" y="-6"/>
      <point x="796.574" y="-6" type="qcurve" smooth="yes"/>
      <point x="304.574" y="-6" type="line" smooth="yes"/>
      <point x="235.574" y="-6"/>
      <point x="142.574" y="18"/>
      <point x="89.5742" y="69"/>
      <point x="75.5742" y="150"/>
      <point x="85.5742" y="208" type="qcurve"/>
    </contour>
    <contour>
      <point x="1043.57" y="974" type="line"/>
      <point x="467.574" y="974" type="line"/>
      <point x="467.574" y="974"/>
      <point x="467.574" y="974"/>
      <point x="467.574" y="974" type="qcurve"/>
      <point x="302.574" y="26" type="line"/>
      <point x="302.574" y="26"/>
      <point x="302.574" y="26"/>
      <point x="302.574" y="26" type="qcurve"/>
      <point x="878.574" y="26" type="line"/>
    </contour>
  </outline>
  <guideline y="988"/>
  <guideline y="42"/>
</glyph>
<glyph name="e" format="2">
  <advance width="1412" height="1448"/>
  <unicode hex="0065"/>
  <anchor x="787" y="1150" name="top"/>
  <anchor x="560" y="-150" name="bottom"/>
  <anchor x="804" y="-0" name="ogonek"/>
  <outline>
    <contour>
      <point x="94" y="260" type="line"/>
      <point x="180" y="750" type="line" smooth="yes"/>
      <point x="192" y="817"/>
      <point x="244" y="912"/>
      <point x="332" y="972"/>
      <point x="457" y="1000"/>
      <point x="542" y="1000" type="qcurve" smooth="yes"/>
      <point x="978" y="1000" type="line" smooth="yes"/>
      <point x="1064" y="1000"/>
      <point x="1179" y="973"/>
      <point x="1245" y="913"/>
      <point x="1264" y="818"/>
      <point x="1252" y="750" type="qcurve" smooth="yes"/>
      <point x="1207" y="490" type="line"/>
      <point x="383" y="490" type="line"/>
      <point x="303" y="32" type="line"/>
      <point x="303" y="32"/>
      <point x="303" y="32"/>
      <point x="303" y="32" type="qcurve"/>
      <point x="879" y="32" type="line"/>
      <point x="879" y="32"/>
      <point x="879" y="32"/>
      <point x="879" y="32" type="qcurve"/>
      <point x="928" y="314" type="line"/>
      <point x="1168" y="270" type="line"/>
      <point x="1166" y="260" type="line"/>
      <point x="1154" y="190"/>
      <point x="1102" y="92"/>
      <point x="1014" y="29"/>
      <point x="889" y="0"/>
      <point x="803" y="0" type="qcurve" smooth="yes"/>
      <point x="367" y="0" type="line" smooth="yes"/>
      <point x="282" y="0"/>
      <point x="166" y="29"/>
      <point x="100" y="92"/>
      <point x="82" y="190"/>
      <point x="94" y="260" type="qcurve"/>
    </contour>
    <contour>
      <point x="388" y="522" type="line"/>
      <point x="964" y="522" type="line"/>
      <point x="1042" y="968" type="line"/>
      <point x="1042" y="968"/>
      <point x="1042" y="968"/>
      <point x="1042" y="968" type="qcurve"/>
      <point x="466" y="968" type="line"/>
      <point x="466" y="968"/>
      <point x="466" y="968"/>
      <point x="466" y="968" type="qcurve"/>
    </contour>
  </outline>
  <guideline angle="0" color="1,0,0,1" x="0" y="-1000"/>
</glyph>
<glyph name="f" format="2">
  <advance width="821"/>
  <unicode hex="0066"/>
  <outline>
    <contour>
      <point x="266" y="1000" type="line"/>
      <point x="299" y="1194" type="line" smooth="yes"/>
      <point x="311" y="1261"/>
      <point x="362" y="1357"/>
      <point x="439" y="1419"/>
      <point x="539" y="1448"/>
      <point x="600" y="1448" type="qcurve" smooth="yes"/>
      <point x="954" y="1448" type="line"/>
      <point x="938" y="1416" type="line"/>
      <point x="586" y="1416" type="line"/>
      <point x="586" y="1416"/>
      <point x="586" y="1416"/>
      <point x="586" y="1416" type="qcurve"/>
      <point x="514" y="1000" type="line"/>
      <point x="846" y="1000" type="line"/>
      <point x="840" y="968" type="line"/>
      <point x="508" y="968" type="line"/>
      <point x="339" y="0" type="line"/>
      <point x="91" y="0" type="line"/>
      <point x="260" y="968" type="line"/>
      <point x="148" y="968" type="line"/>
      <point x="154" y="1000" type="line"/>
    </contour>
  </outline>
</glyph>
<glyph name="g" format="2">
  <advance width="1432" height="1448"/>
  <unicode hex="0067"/>
  <anchor x="720" y="1150" name="top"/>
  <anchor x="720" y="-578" name="bottom"/>
  <outline>
    <contour>
      <point x="302.574" y="26" type="line"/>
      <point x="467.574" y="974" type="line"/>
      <point x="467.574" y="974"/>
      <point x="467.574" y="974"/>
      <point x="467.574" y="974" type="qcurve"/>
      <point x="1043.57" y="974" type="line"/>
      <point x="878.574" y="26" type="line"/>
      <point x="302.574" y="26" type="line"/>
      <point x="302.574" y="26"/>
      <point x="302.574" y="26"/>
      <point x="302.574" y="26" type="qcurve"/>
    </contour>
    <contour>
      <point x="-15.4258" y="-428" type="line"/>
      <point x="732.574" y="-428" type="line" smooth="yes"/>
      <point x="817.574" y="-428"/>
      <point x="937.574" y="-420"/>
      <point x="1021.57" y="-372"/>
      <point x="1074.57" y="-269"/>
      <point x="1091.57" y="-174" type="qcurve" smooth="yes"/>
      <point x="1296.57" y="1000" type="line"/>
      <point x="1048.57" y="1000" type="line"/>
      <point x="1044.57" y="982" type="line"/>
      <point x="1040.57" y="994"/>
      <point x="1005.57" y="1006"/>
      <point x="973.574" y="1006" type="qcurve" smooth="yes"/>
      <point x="481.574" y="1006" type="line" smooth="yes"/>
      <point x="413.574" y="1006"/>
      <point x="311.574" y="983"/>
      <point x="241.574" y="933"/>
      <point x="198.574" y="856"/>
      <point x="189.574" y="802" type="qcurve" smooth="yes"/>
      <point x="85.5742" y="208" type="line" smooth="yes"/>
      <point x="75.5742" y="150"/>
      <point x="89.5742" y="69"/>
      <point x="142.574" y="18"/>
      <point x="235.574" y="-6"/>
      <point x="304.574" y="-6" type="qcurve" smooth="yes"/>
      <point x="796.574" y="-6" type="line" smooth="yes"/>
      <point x="823.574" y="-6"/>
      <point x="864.574" y="8"/>
      <point x="877.574" y="22" type="qcurve"/>
      <point x="804.574" y="-396" type="line"/>
      <point x="804.574" y="-396"/>
      <point x="804.574" y="-396"/>
      <point x="804.574" y="-396" type="qcurve"/>
      <point x="-19.4258" y="-396" type="line"/>
    </contour>
  </outline>
</glyph>
<glyph name="h" format="2">
  <advance width="1419" height="1448"/>
  <unicode hex="0068"/>
  <anchor x="480" y="1598" name="top"/>
  <anchor x="567" y="-150" name="bottom"/>
  <anchor x="65" y="504" name="left"/>
  <outline>
    <contour>
      <point x="77.4637" y="0" type="line"/>
      <point x="330.464" y="1448" type="line"/>
      <point x="578.464" y="1448" type="line"/>
      <point x="496.464" y="978" type="line"/>
      <point x="509.464" y="992"/>
      <point x="550.464" y="1006"/>
      <point x="577.464" y="1006" type="qcurve" smooth="yes"/>
      <point x="967.464" y="1006" type="line" smooth="yes"/>
      <point x="1052.46" y="1006"/>
      <point x="1167.46" y="978"/>
      <point x="1233.46" y="918"/>
      <point x="1253.46" y="823"/>
      <point x="1241.46" y="756" type="qcurve" smooth="yes"/>
      <point x="1109.46" y="0" type="line"/>
      <point x="861.464" y="0" type="line"/>
      <point x="1031.46" y="974" type="line"/>
      <point x="1031.46" y="974"/>
      <point x="1031.46" y="974"/>
      <point x="1031.46" y="974" type="qcurve"/>
      <point x="495.464" y="974" type="line"/>
      <point x="325.464" y="0" type="line"/>
    </contour>
  </outline>
  <guideline y="988"/>
  <guideline y="870"/>
</glyph>
<glyph name="k" format="2">
  <advance width="1411" height="1448"/>
  <unicode hex="006B"/>
  <anchor x="478" y="1598" name="top"/>
  <anchor x="573" y="-150" name="bottom"/>
  <anchor x="103" y="724" name="left"/>
  <outline>
    <contour>
      <point x="77.4637" y="0" type="line"/>
      <point x="325.464" y="0" type="line"/>
      <point x="416.464" y="520" type="line"/>
      <point x="907.464" y="0" type="line"/>
      <point x="1281.46" y="0" type="line"/>
      <point x="642.464" y="662" type="line"/>
      <point x="1324.46" y="1000" type="line"/>
      <point x="1256.46" y="1000" type="line"/>
      <point x="428.464" y="589" type="line"/>
      <point x="578.464" y="1448" type="line"/>
      <point x="330.464" y="1448" type="line"/>
    </contour>
  </outline>
</glyph>
<glyph name="m" format="2">
  <advance width="2202.47" height="1448"/>
  <unicode hex="006D"/>
  <anchor x="1101" y="1156" name="top"/>
  <anchor x="1101" y="-150" name="bottom"/>
  <anchor x="64.4692" y="504" name="left"/>
  <outline>
    <contour>
      <point x="76" y="0" type="line"/>
      <point x="324" y="0" type="line"/>
      <point x="494" y="974" type="line"/>
      <point x="1030" y="974" type="line"/>
      <point x="860" y="0" type="line"/>
      <point x="1108" y="0" type="line"/>
      <point x="1278" y="974" type="line"/>
      <point x="1814" y="974" type="line"/>
      <point x="1814" y="974"/>
      <point x="1814" y="974"/>
      <point x="1814" y="974" type="qcurve"/>
      <point x="1644" y="0" type="line"/>
      <point x="1892" y="0" type="line"/>
      <point x="2024" y="756" type="line" smooth="yes"/>
      <point x="2036" y="823"/>
      <point x="2017" y="918"/>
      <point x="1951" y="978"/>
      <point x="1835" y="1006"/>
      <point x="1750" y="1006" type="qcurve" smooth="yes"/>
      <point x="1294" y="1006" type="line" smooth="yes"/>
      <point x="1281" y="1006"/>
      <point x="1257" y="1002"/>
      <point x="1237" y="995"/>
      <point x="1221" y="985"/>
      <point x="1214" y="979" type="qcurve"/>
      <point x="1194" y="987"/>
      <point x="1149" y="998"/>
      <point x="1103" y="1004"/>
      <point x="1055" y="1006"/>
      <point x="1032" y="1006" type="qcurve" smooth="yes"/>
      <point x="576" y="1006" type="line" smooth="yes"/>
      <point x="549" y="1006"/>
      <point x="508" y="992"/>
      <point x="495" y="978" type="qcurve"/>
      <point x="499" y="1000" type="line"/>
      <point x="251" y="1000" type="line"/>
    </contour>
  </outline>
</glyph>
<glyph name="n" format="2">
  <advance width="1418.47" height="1448"/>
  <unicode hex="006E"/>
  <anchor x="794" y="1156" name="top"/>
  <anchor x="566" y="-150" name="bottom"/>
  <anchor x="64" y="504" name="left"/>
  <outline>
    <contour>
      <point x="76.4692" y="0" type="line"/>
      <point x="251.469" y="1000" type="line"/>
      <point x="499.469" y="1000" type="line"/>
      <point x="495.469" y="978" type="line"/>
      <point x="508.469" y="992"/>
      <point x="549.469" y="1006"/>
      <point x="576.469" y="1006" type="qcurve" smooth="yes"/>
      <point x="966.469" y="1006" type="line" smooth="yes"/>
      <point x="1051.47" y="1006"/>
      <point x="1166.47" y="978"/>
      <point x="1232.47" y="918"/>
      <point x="1252.47" y="823"/>
      <point x="1240.47" y="756" type="qcurve" smooth="yes"/>
      <point x="1108.47" y="0" type="line"/>
      <point x="860.469" y="0" type="line"/>
      <point x="1030.47" y="974" type="line"/>
      <point x="1030.47" y="974"/>
      <point x="1030.47" y="974"/>
      <point x="1030.47" y="974" type="qcurve"/>
      <point x="494.469" y="974" type="line"/>
      <point x="324.469" y="0" type="line"/>
    </contour>
  </outline>
  <guideline angle="0" x="0" y="988"/>
  <guideline angle="0" x="0" y="870"/>
</glyph>
<glyph name="o" format="2">
  <advance width="1432" height="1448"/>
  <unicode hex="006F"/>
  <anchor x="797" y="1150" name="top"/>
  <anchor x="570" y="-150" name="bottom"/>
  <anchor x="1282" y="802" name="horn"/>
  <anchor x="615" y="0" name="ogonek"/>
  <outline>
    <contour>
      <point x="85.558" y="208" type="line"/>
      <point x="189.558" y="802" type="line" smooth="yes"/>
      <point x="198.558" y="856"/>
      <point x="241.558" y="933"/>
      <point x="311.558" y="983"/>
      <point x="413.558" y="1006"/>
      <point x="481.558" y="1006" type="qcurve" smooth="yes"/>
      <point x="1061.56" y="1006" type="line" smooth="yes"/>
      <point x="1198.56" y="1006"/>
      <point x="1300.56" y="910"/>
      <point x="1281.56" y="802" type="qcurve" smooth="yes"/>
      <point x="1177.56" y="208" type="line" smooth="yes"/>
      <point x="1167.56" y="150"/>
      <point x="1125.56" y="69"/>
      <point x="1055.56" y="18"/>
      <point x="954.558" y="-6"/>
      <point x="884.558" y="-6" type="qcurve" smooth="yes"/>
      <point x="304.558" y="-6" type="line" smooth="yes"/>
      <point x="235.558" y="-6"/>
      <point x="142.558" y="18"/>
      <point x="89.558" y="69"/>
      <point x="75.558" y="150"/>
      <point x="85.558" y="208" type="qcurve"/>
    </contour>
    <contour>
      <point x="302.558" y="26" type="line"/>
      <point x="302.558" y="26"/>
      <point x="302.558" y="26"/>
      <point x="302.558" y="26" type="qcurve"/>
      <point x="898.558" y="26" type="line"/>
      <point x="898.558" y="26"/>
      <point x="898.558" y="26"/>
      <point x="898.558" y="26" type="qcurve"/>
      <point x="1063.56" y="974" type="line"/>
      <point x="1063.56" y="974"/>
      <point x="1063.56" y="974"/>
      <point x="1063.56" y="974" type="qcurve"/>
      <point x="467.558" y="974" type="line"/>
      <point x="467.558" y="974"/>
      <point x="467.558" y="974"/>
      <point x="467.558" y="974" type="qcurve"/>
    </contour>
  </outline>
</glyph>
<glyph name="p" format="2">
  <advance width="1440" height="1448"/>
  <unicode hex="0070"/>
  <anchor x="879" y="1598" name="top"/>
  <anchor x="521" y="-578" name="bottom"/>
  <outline>
    <contour>
      <point x="1" y="-428" type="line"/>
      <point x="251" y="1000" type="line"/>
      <point x="499" y="1000" type="line"/>
      <point x="495" y="978" type="line"/>
      <point x="508" y="992"/>
      <point x="549" y="1006"/>
      <point x="576" y="1006" type="qcurve" smooth="yes"/>
      <point x="1068" y="1006" type="line" smooth="yes"/>
      <point x="1137" y="1006"/>
      <point x="1230" y="982"/>
      <point x="1282" y="931"/>
      <point x="1296" y="850"/>
      <point x="1286" y="792" type="qcurve" smooth="yes"/>
      <point x="1183" y="198" type="line" smooth="yes"/>
      <point x="1173" y="144"/>
      <point x="1131" y="67"/>
      <point x="1060" y="17"/>
      <point x="959" y="-6"/>
      <point x="891" y="-6" type="qcurve" smooth="yes"/>
      <point x="399" y="-6" type="line" smooth="yes"/>
      <point x="367" y="-6"/>
      <point x="331" y="6"/>
      <point x="327" y="18" type="qcurve"/>
      <point x="249" y="-428" type="line"/>
    </contour>
    <contour>
      <point x="329" y="26" type="line"/>
      <point x="905" y="26" type="line"/>
      <point x="905" y="26"/>
      <point x="905" y="26"/>
      <point x="905" y="26" type="qcurve"/>
      <point x="1070" y="974" type="line"/>
      <point x="1070" y="974"/>
      <point x="1070" y="974"/>
      <point x="1070" y="974" type="qcurve"/>
      <point x="494" y="974" type="line"/>
    </contour>
  </outline>
</glyph>
<glyph name="q" format="2">
  <advance width="1440" height="1448"/>
  <unicode hex="0071"/>
  <anchor x="855" y="1598" name="top"/>
  <anchor x="540" y="-150" name="bottom"/>
  <outline>
    <contour>
      <point x="86" y="208" type="line"/>
      <point x="190" y="802" type="line" smooth="yes"/>
      <point x="199" y="856"/>
      <point x="242" y="933"/>
      <point x="312" y="983"/>
      <point x="414" y="1006"/>
      <point x="482" y="1006" type="qcurve" smooth="yes"/>
      <point x="974" y="1006" type="line" smooth="yes"/>
      <point x="1006" y="1006"/>
      <point x="1041" y="994"/>
      <point x="1045" y="982" type="qcurve"/>
      <point x="1049" y="1000" type="line"/>
      <point x="1297" y="1000" type="line"/>
      <point x="1047" y="-428" type="line"/>
      <point x="799" y="-428" type="line"/>
      <point x="878" y="22" type="line"/>
      <point x="865" y="8"/>
      <point x="824" y="-6"/>
      <point x="797" y="-6" type="qcurve" smooth="yes"/>
      <point x="305" y="-6" type="line" smooth="yes"/>
      <point x="236" y="-6"/>
      <point x="143" y="18"/>
      <point x="90" y="69"/>
      <point x="76" y="150"/>
      <point x="86" y="208" type="qcurve"/>
    </contour>
    <contour>
      <point x="303" y="26" type="line"/>
      <point x="303" y="26"/>
      <point x="303" y="26"/>
      <point x="303" y="26" type="qcurve"/>
      <point x="879" y="26" type="line"/>
      <point x="1044" y="974" type="line"/>
      <point x="468" y="974" type="line"/>
      <point x="468" y="974"/>
      <point x="468" y="974"/>
      <point x="468" y="974" type="qcurve"/>
    </contour>
  </outline>
  <guideline angle="0" x="0" y="988"/>
  <guideline angle="0" x="0" y="42"/>
</glyph>
<glyph name="r" format="2">
  <advance width="1168" height="1448"/>
  <unicode hex="0072"/>
  <anchor x="729" y="1156" name="top"/>
  <anchor x="174" y="-150" name="bottom"/>
  <anchor x="64" y="503" name="left"/>
  <outline>
    <contour>
      <point x="76" y="0" type="line"/>
      <point x="251" y="1000" type="line"/>
      <point x="499" y="1000" type="line"/>
      <point x="495" y="978" type="line"/>
      <point x="508" y="992"/>
      <point x="549" y="1006"/>
      <point x="576" y="1006" type="qcurve" smooth="yes"/>
      <point x="836" y="1006" type="line" smooth="yes"/>
      <point x="921" y="1006"/>
      <point x="1036" y="978"/>
      <point x="1102" y="918"/>
      <point x="1122" y="823"/>
      <point x="1110" y="756" type="qcurve" smooth="yes"/>
      <point x="1100" y="697" type="line"/>
      <point x="843" y="650" type="line"/>
      <point x="900" y="974" type="line"/>
      <point x="900" y="974"/>
      <point x="900" y="974"/>
      <point x="900" y="974" type="qcurve"/>
      <point x="494" y="974" type="line"/>
      <point x="324" y="0" type="line"/>
    </contour>
  </outline>
  <guideline angle="0" x="0" y="988"/>
  <guideline angle="0" x="0" y="870"/>
</glyph>
<glyph name="s" format="2">
  <advance width="1313"/>
  <unicode hex="0073"/>
  <anchor x="737" y="1150" name="top"/>
  <anchor x="510" y="-150" name="bottom"/>
  <outline>
    <contour>
      <point x="84.3399" y="262" type="line"/>
      <point x="312.34" y="308" type="line"/>
      <point x="263.34" y="26" type="line"/>
      <point x="263.34" y="26"/>
      <point x="263.34" y="26"/>
      <point x="263.34" y="26" type="qcurve"/>
      <point x="817.34" y="26" type="line"/>
      <point x="817.34" y="26"/>
      <point x="817.34" y="26"/>
      <point x="817.34" y="26" type="qcurve"/>
      <point x="897.34" y="487" type="line"/>
      <point x="897.34" y="487"/>
      <point x="897.34" y="487"/>
      <point x="897.34" y="487" type="qcurve"/>
      <point x="389.34" y="487" type="line" smooth="yes"/>
      <point x="332.34" y="487"/>
      <point x="245.34" y="504"/>
      <point x="190.34" y="550"/>
      <point x="170.34" y="630"/>
      <point x="181.34" y="693" type="qcurve" smooth="yes"/>
      <point x="201.34" y="810" type="line" smooth="yes"/>
      <point x="212.34" y="871"/>
      <point x="261.34" y="947"/>
      <point x="333.34" y="990"/>
      <point x="426.34" y="1006"/>
      <point x="480.34" y="1006" type="qcurve" smooth="yes"/>
      <point x="948.34" y="1006" type="line" smooth="yes"/>
      <point x="1003.34" y="1006"/>
      <point x="1091.34" y="990"/>
      <point x="1148.34" y="947"/>
      <point x="1170.34" y="871"/>
      <point x="1159.34" y="810" type="qcurve" smooth="yes"/>
      <point x="1149.34" y="750" type="line"/>
      <point x="921.34" y="706" type="line"/>
      <point x="968.34" y="974" type="line"/>
      <point x="968.34" y="974"/>
      <point x="968.34" y="974"/>
      <point x="968.34" y="974" type="qcurve"/>
      <point x="450.34" y="974" type="line"/>
      <point x="450.34" y="974"/>
      <point x="450.34" y="974"/>
      <point x="450.34" y="974" type="qcurve"/>
      <point x="371.34" y="519" type="line"/>
      <point x="371.34" y="519"/>
      <point x="371.34" y="519"/>
      <point x="371.34" y="519" type="qcurve"/>
      <point x="877.34" y="519" type="line" smooth="yes"/>
      <point x="932.34" y="519"/>
      <point x="1020.34" y="504"/>
      <point x="1077.34" y="462"/>
      <point x="1099.34" y="385"/>
      <point x="1088.34" y="323" type="qcurve" smooth="yes"/>
      <point x="1067.34" y="198" type="line" smooth="yes"/>
      <point x="1056.34" y="135"/>
      <point x="1008.34" y="56"/>
      <point x="937.34" y="11"/>
      <point x="843.34" y="-6"/>
      <point x="785.34" y="-6" type="qcurve" smooth="yes"/>
      <point x="281.34" y="-6" type="line" smooth="yes"/>
      <point x="224.34" y="-6"/>
      <point x="136.34" y="11"/>
      <point x="81.3399" y="56"/>
      <point x="62.3399" y="135"/>
      <point x="73.3399" y="198" type="qcurve" smooth="yes"/>
    </contour>
  </outline>
</glyph>
<glyph name="t" format="2">
  <advance width="879"/>
  <unicode hex="0074"/>
  <anchor x="566" y="1394" name="top"/>
  <anchor x="296" y="-156" name="bottom"/>
  <anchor x="625" y="1400" name="right"/>
  <outline>
    <contour>
      <point x="386.741" y="-6" type="line" smooth="yes"/>
      <point x="317.741" y="-6"/>
      <point x="224.741" y="18"/>
      <point x="171.741" y="69"/>
      <point x="157.741" y="150"/>
      <point x="167.741" y="208" type="qcurve" smooth="yes"/>
      <point x="300.741" y="968" type="line"/>
      <point x="128.741" y="968" type="line"/>
      <point x="134.741" y="1000" type="line"/>
      <point x="306.741" y="1000" type="line"/>
      <point x="348.741" y="1244" type="line"/>
      <point x="596.741" y="1244" type="line"/>
      <point x="554.741" y="1000" type="line"/>
      <point x="856.741" y="1000" type="line"/>
      <point x="850.741" y="968" type="line"/>
      <point x="548.741" y="968" type="line"/>
      <point x="384.741" y="26" type="line"/>
      <point x="384.741" y="26"/>
      <point x="384.741" y="26"/>
      <point x="384.741" y="26" type="qcurve"/>
      <point x="656.741" y="26" type="line"/>
      <point x="640.741" y="-6" type="line"/>
    </contour>
  </outline>
</glyph>
<glyph name="u" format="2">
  <advance width="1230"/>
  <unicode hex="0075"/>
  <anchor x="696" y="1150" name="top"/>
  <anchor x="469" y="-150" name="bottom"/>
  <anchor x="514" y="0" name="ogonek"/>
  <anchor x="1186" y="1000" name="horn"/>
  <outline>
    <contour>
      <point x="12.8981" y="194" type="line"/>
      <point x="153.898" y="1000" type="line"/>
      <point x="401.898" y="1000" type="line"/>
      <point x="230.898" y="22" type="line"/>
      <point x="230.898" y="22"/>
      <point x="230.898" y="22"/>
      <point x="230.898" y="22" type="qcurve"/>
      <point x="766.898" y="22" type="line"/>
      <point x="766.898" y="22"/>
      <point x="766.898" y="22"/>
      <point x="766.898" y="22" type="qcurve"/>
      <point x="937.898" y="1000" type="line"/>
      <point x="1185.9" y="1000" type="line"/>
      <point x="1044.9" y="194" type="line" smooth="yes"/>
      <point x="1033.9" y="131"/>
      <point x="985.898" y="52"/>
      <point x="913.898" y="7"/>
      <point x="819.898" y="-10"/>
      <point x="762.898" y="-10" type="qcurve" smooth="yes"/>
      <point x="220.898" y="-10" type="line" smooth="yes"/>
      <point x="163.898" y="-10"/>
      <point x="76.8981" y="7"/>
      <point x="21.8981" y="52"/>
      <point x="1.89809" y="131"/>
      <point x="12.8981" y="194" type="qcurve"/>
    </contour>
  </outline>
</glyph>
<glyph name="v" format="2">
  <advance width="1096"/>
  <unicode hex="0076"/>
  <anchor x="630" y="1150" name="top"/>
  <anchor x="403" y="-150" name="bottom"/>
  <outline>
    <contour>
      <point x="393" y="0" type="line"/>
      <point x="483" y="0" type="line"/>
      <point x="1142" y="1000" type="line"/>
      <point x="1106" y="1000" type="line"/>
      <point x="587" y="212" type="line"/>
      <point x="347" y="1000" type="line"/>
      <point x="66" y="1000" type="line"/>
    </contour>
  </outline>
</glyph>
<glyph name="w" format="2">
  <advance width="1612.51"/>
  <unicode hex="0077"/>
  <anchor x="1005" y="1150" name="top"/>
  <anchor x="678" y="-150" name="bottom"/>
  <outline>
    <contour>
      <point x="243.084" y="0" type="line"/>
      <point x="430.084" y="0" type="line"/>
      <point x="817.084" y="738" type="line"/>
      <point x="934.084" y="0" type="line"/>
      <point x="1131.08" y="0" type="line"/>
      <point x="1659.08" y="1000" type="line"/>
      <point x="1621.08" y="1000" type="line"/>
      <point x="1160.08" y="125" type="line"/>
      <point x="1022.08" y="1000" type="line"/>
      <point x="916.084" y="1000" type="line"/>
      <point x="462.084" y="133" type="line"/>
      <point x="331.084" y="1000" type="line"/>
      <point x="66.0841" y="1000" type="line"/>
    </contour>
  </outline>
</glyph>
<glyph name="x" format="2">
  <advance width="1171"/>
  <unicode hex="0078"/>
  <anchor x="667" y="1150" name="top"/>
  <anchor x="440" y="-150" name="bottom"/>
  <outline>
    <contour>
      <point x="-108.916" y="0" type="line"/>
      <point x="-53.9159" y="0" type="line"/>
      <point x="450.084" y="434" type="line"/>
      <point x="750.084" y="0" type="line"/>
      <point x="1041.08" y="0" type="line"/>
      <point x="627.084" y="577" type="line"/>
      <point x="1114.08" y="1000" type="line"/>
      <point x="1063.08" y="1000" type="line"/>
      <point x="608.084" y="604" type="line"/>
      <point x="349.084" y="1000" type="line"/>
      <point x="66.0841" y="1000" type="line"/>
      <point x="431.084" y="462" type="line"/>
    </contour>
  </outline>
</glyph>
<glyph name="y" format="2">
  <advance width="1096"/>
  <unicode hex="0079"/>
  <anchor x="692" y="1150" name="top"/>
  <anchor x="638" y="-220" name="bottom"/>
  <outline>
    <contour>
      <point x="-151" y="-428" type="line"/>
      <point x="71" y="-428" type="line" smooth="yes"/>
      <point x="110" y="-428"/>
      <point x="168" y="-416"/>
      <point x="218" y="-385"/>
      <point x="265" y="-331"/>
      <point x="293" y="-288" type="qcurve" smooth="yes"/>
      <point x="1142" y="1000" type="line"/>
      <point x="1103" y="1000" type="line"/>
      <point x="575" y="200" type="line"/>
      <point x="323" y="1000" type="line"/>
      <point x="66" y="1000" type="line"/>
      <point x="411" y="-52" type="line"/>
      <point x="261" y="-278" type="line" smooth="yes"/>
      <point x="236" y="-315"/>
      <point x="198" y="-361"/>
      <point x="158" y="-387"/>
      <point x="112" y="-396"/>
      <point x="79" y="-396" type="qcurve" smooth="yes"/>
      <point x="-152" y="-396" type="line"/>
    </contour>
  </outline>
</glyph>
<glyph name="z" format="2">
  <advance width="1155.74"/>
  <unicode hex="007A"/>
  <anchor x="659" y="1150" name="top"/>
  <anchor x="432" y="-150" name="bottom"/>
  <outline>
    <contour>
      <point x="-30.6397" y="0" type="line"/>
      <point x="945.36" y="0" type="line"/>
      <point x="950.36" y="32" type="line"/>
      <point x="244.36" y="32" type="line"/>
      <point x="248.36" y="23" type="line"/>
      <point x="1112.36" y="992" type="line"/>
      <point x="1113.36" y="1000" type="line"/>
      <point x="203.36" y="1000" type="line"/>
      <point x="198.36" y="968" type="line"/>
      <point x="838.36" y="968" type="line"/>
      <point x="834.36" y="977" type="line"/>
      <point x="-29.6397" y="8" type="line"/>
    </contour>
  </outline>
</glyph>
<glyph name="braceleft" format="2">
  <advance width="829"/>
  <unicode hex="007B"/>
  <outline>
    <contour>
      <point x="182.684" y="18" type="line"/>
      <point x="249.684" y="403" type="line" smooth="yes"/>
      <point x="256.684" y="444"/>
      <point x="245.684" y="510"/>
      <point x="207.684" y="556"/>
      <point x="140.684" y="581"/>
      <point x="90.6838" y="581" type="qcurve"/>
      <point x="96.6838" y="613" type="line"/>
      <point x="146.684" y="613"/>
      <point x="222.684" y="638"/>
      <point x="276.684" y="685"/>
      <point x="310.684" y="751"/>
      <point x="317.684" y="791" type="qcurve" smooth="yes"/>
      <point x="382.684" y="1164" type="line" smooth="yes"/>
      <point x="394.684" y="1232"/>
      <point x="454.684" y="1337"/>
      <point x="545.684" y="1410"/>
      <point x="662.684" y="1448"/>
      <point x="729.684" y="1448" type="qcurve" smooth="yes"/>
      <point x="950.684" y="1448" type="line"/>
      <point x="945.684" y="1416" type="line"/>
      <point x="796.684" y="1416" type="line" smooth="yes"/>
      <point x="763.684" y="1416"/>
      <point x="715.684" y="1403"/>
      <point x="680.684" y="1375"/>
      <point x="659.684" y="1333"/>
      <point x="654.684" y="1304" type="qcurve" smooth="yes"/>
      <point x="580.684" y="877" type="line" smooth="yes"/>
      <point x="561.684" y="766"/>
      <point x="432.684" y="624"/>
      <point x="331.684" y="597" type="qcurve"/>
      <point x="377.684" y="584"/>
      <point x="443.684" y="534"/>
      <point x="481.684" y="464"/>
      <point x="492.684" y="373"/>
      <point x="482.684" y="317" type="qcurve" smooth="yes"/>
      <point x="407.684" y="-112" type="line" smooth="yes"/>
      <point x="402.684" y="-141"/>
      <point x="409.684" y="-183"/>
      <point x="433.684" y="-211"/>
      <point x="477.684" y="-224"/>
      <point x="510.684" y="-224" type="qcurve" smooth="yes"/>
      <point x="659.684" y="-224" type="line"/>
      <point x="653.684" y="-256" type="line"/>
      <point x="432.684" y="-256" type="line" smooth="yes"/>
      <point x="365.684" y="-256"/>
      <point x="261.684" y="-218"/>
      <point x="195.684" y="-147"/>
      <point x="171.684" y="-46"/>
      <point x="182.684" y="18" type="qcurve"/>
    </contour>
  </outline>
</glyph>
<glyph name="bar" format="2">
  <advance width="670.796"/>
  <unicode hex="007C"/>
  <outline>
    <contour>
      <point x="365" y="1520" type="line"/>
      <point x="595" y="1520" type="line"/>
      <point x="246" y="-480" type="line"/>
      <point x="16" y="-480" type="line"/>
    </contour>
  </outline>
</glyph>
<glyph name="asciitilde" format="2">
  <advance width="1025"/>
  <unicode hex="007E"/>
  <outline>
    <contour>
      <point x="-27" y="468" type="line"/>
      <point x="-5" y="521"/>
      <point x="42" y="605"/>
      <point x="92" y="669"/>
      <point x="147" y="713"/>
      <point x="207" y="741"/>
      <point x="274" y="754"/>
      <point x="311" y="754" type="qcurve" smooth="yes"/>
      <point x="356" y="754"/>
      <point x="447" y="731"/>
      <point x="536" y="696"/>
      <point x="623" y="655"/>
      <point x="707" y="620"/>
      <point x="787" y="597"/>
      <point x="824" y="597" type="qcurve" smooth="yes"/>
      <point x="856" y="597"/>
      <point x="906" y="611"/>
      <point x="944" y="641"/>
      <point x="974" y="687"/>
      <point x="987" y="718" type="qcurve"/>
      <point x="1021" y="712" type="line"/>
      <point x="999" y="658"/>
      <point x="954" y="573"/>
      <point x="908" y="508"/>
      <point x="859" y="462"/>
      <point x="803" y="433"/>
      <point x="739" y="420"/>
      <point x="702" y="420" type="qcurve" smooth="yes"/>
      <point x="657" y="420"/>
      <point x="563" y="444"/>
      <point x="470" y="480"/>
      <point x="378" y="523"/>
      <point x="290" y="559"/>
      <point x="207" y="583"/>
      <point x="170" y="583" type="qcurve" smooth="yes"/>
      <point x="138" y="583"/>
      <point x="88" y="569"/>
      <point x="50" y="539"/>
      <point x="20" y="493"/>
      <point x="7" y="462" type="qcurve"/>
    </contour>
  </outline>
</glyph>
<glyph name="cent" format="2">
  <advance width="1374"/>
  <unicode hex="00A2"/>
  <outline>
    <contour>
      <point x="464" y="-100" type="line"/>
      <point x="678" y="-100" type="line"/>
      <point x="720" y="144" type="line"/>
      <point x="893" y="144" type="line" smooth="yes"/>
      <point x="963" y="144"/>
      <point x="1064" y="168"/>
      <point x="1135" y="219"/>
      <point x="1176" y="300"/>
      <point x="1186" y="358" type="qcurve" smooth="yes"/>
      <point x="1204" y="460" type="line"/>
      <point x="969" y="510" type="line"/>
      <point x="911" y="176" type="line"/>
      <point x="911" y="176"/>
      <point x="911" y="176"/>
      <point x="911" y="176" type="qcurve"/>
      <point x="726" y="176" type="line"/>
      <point x="891" y="1124" type="line"/>
      <point x="1072" y="1124" type="line"/>
      <point x="1072" y="1124"/>
      <point x="1072" y="1124"/>
      <point x="1072" y="1124" type="qcurve"/>
      <point x="1016" y="800" type="line"/>
      <point x="1268" y="846" type="line"/>
      <point x="1286" y="952" type="line" smooth="yes"/>
      <point x="1296" y="1007"/>
      <point x="1281" y="1084"/>
      <point x="1228" y="1133"/>
      <point x="1135" y="1156"/>
      <point x="1066" y="1156" type="qcurve" smooth="yes"/>
      <point x="897" y="1156" type="line"/>
      <point x="939" y="1400" type="line"/>
      <point x="725" y="1400" type="line"/>
      <point x="683" y="1156" type="line"/>
      <point x="508" y="1156" type="line" smooth="yes"/>
      <point x="440" y="1156"/>
      <point x="339" y="1133"/>
      <point x="268" y="1084"/>
      <point x="226" y="1007"/>
      <point x="216" y="952" type="qcurve" smooth="yes"/>
      <point x="112" y="358" type="line" smooth="yes"/>
      <point x="102" y="300"/>
      <point x="116" y="219"/>
      <point x="168" y="168"/>
      <point x="261" y="144"/>
      <point x="331" y="144" type="qcurve" smooth="yes"/>
      <point x="506" y="144" type="line"/>
    </contour>
    <contour>
      <point x="677" y="1124" type="line"/>
      <point x="512" y="176" type="line"/>
      <point x="329" y="176" type="line"/>
      <point x="329" y="176"/>
      <point x="329" y="176"/>
      <point x="329" y="176" type="qcurve"/>
      <point x="494" y="1124" type="line"/>
      <point x="494" y="1124"/>
      <point x="494" y="1124"/>
      <point x="494" y="1124" type="qcurve"/>
    </contour>
  </outline>
</glyph>
<glyph name="currency" format="2">
  <advance width="1696" height="1448"/>
  <unicode hex="00A4"/>
  <outline>
    <contour>
      <point x="228" y="408" type="line"/>
      <point x="332" y="1002" type="line" smooth="yes"/>
      <point x="341" y="1056"/>
      <point x="383" y="1133"/>
      <point x="454" y="1183"/>
      <point x="555" y="1206"/>
      <point x="623" y="1206" type="qcurve" smooth="yes"/>
      <point x="1253" y="1206" type="line" smooth="yes"/>
      <point x="1390" y="1206"/>
      <point x="1493" y="1110"/>
      <point x="1474" y="1002" type="qcurve" smooth="yes"/>
      <point x="1370" y="408" type="line" smooth="yes"/>
      <point x="1360" y="350"/>
      <point x="1318" y="269"/>
      <point x="1248" y="218"/>
      <point x="1147" y="194"/>
      <point x="1077" y="194" type="qcurve" smooth="yes"/>
      <point x="447" y="194" type="line" smooth="yes"/>
      <point x="378" y="194"/>
      <point x="285" y="218"/>
      <point x="232" y="269"/>
      <point x="218" y="350"/>
      <point x="228" y="408" type="qcurve"/>
    </contour>
    <contour>
      <point x="444" y="226" type="line"/>
      <point x="444" y="226"/>
      <point x="444" y="226"/>
      <point x="444" y="226" type="qcurve"/>
      <point x="1090" y="226" type="line"/>
      <point x="1090" y="226"/>
      <point x="1090" y="226"/>
      <point x="1090" y="226" type="qcurve"/>
      <point x="1256" y="1174" type="line"/>
      <point x="1256" y="1174"/>
      <point x="1256" y="1174"/>
      <point x="1256" y="1174" type="qcurve"/>
      <point x="610" y="1174" type="line"/>
      <point x="610" y="1174"/>
      <point x="610" y="1174"/>
      <point x="610" y="1174" type="qcurve"/>
    </contour>
    <contour>
      <point x="-32" y="-45" type="line"/>
      <point x="-52" y="-20" type="line"/>
      <point x="273" y="257" type="line"/>
      <point x="293" y="232" type="line"/>
    </contour>
    <contour>
      <point x="199" y="1420" type="line"/>
      <point x="228" y="1445" type="line"/>
      <point x="457" y="1168" type="line"/>
      <point x="427" y="1143" type="line"/>
    </contour>
    <contour>
      <point x="1732" y="1445" type="line"/>
      <point x="1753" y="1420" type="line"/>
      <point x="1427" y="1143" type="line"/>
      <point x="1407" y="1168" type="line"/>
    </contour>
    <contour>
      <point x="1502" y="-20" type="line"/>
      <point x="1472" y="-45" type="line"/>
      <point x="1243" y="232" type="line"/>
      <point x="1273" y="257" type="line"/>
    </contour>
  </outline>
</glyph>
<glyph name="yen" format="2">
  <advance width="1501"/>
  <unicode hex="00A5"/>
  <outline>
    <component base="Y" yxScale="0.1745" xOffset="-94"/>
    <contour>
      <point x="243" y="689" type="line"/>
      <point x="1258" y="689" type="line"/>
      <point x="1265" y="725" type="line"/>
      <point x="250" y="725" type="line"/>
    </contour>
    <contour>
      <point x="205" y="469" type="line"/>
      <point x="1220" y="469" type="line"/>
      <point x="1226" y="505" type="line"/>
      <point x="211" y="505" type="line"/>
    </contour>
  </outline>
</glyph>
<glyph name="brokenbar" format="2">
  <advance width="670.796"/>
  <unicode hex="00A6"/>
  <outline>
    <contour>
      <point x="365" y="1520" type="line"/>
      <point x="595" y="1520" type="line"/>
      <point x="456" y="720" type="line"/>
      <point x="226" y="720" type="line"/>
    </contour>
    <contour>
      <point x="156" y="320" type="line"/>
      <point x="386" y="320" type="line"/>
      <point x="246" y="-480" type="line"/>
      <point x="16" y="-480" type="line"/>
    </contour>
  </outline>
</glyph>
<glyph name="section" format="2">
  <advance width="1526"/>
  <unicode hex="00A7"/>
  <outline>
    <contour>
      <point x="158" y="113" type="line"/>
      <point x="386" y="159" type="line"/>
      <point x="337" y="-123" type="line"/>
      <point x="337" y="-123"/>
      <point x="337" y="-123"/>
      <point x="337" y="-123" type="qcurve"/>
      <point x="891" y="-123" type="line"/>
      <point x="891" y="-123"/>
      <point x="891" y="-123"/>
      <point x="891" y="-123" type="qcurve"/>
      <point x="971" y="338" type="line"/>
      <point x="971" y="338"/>
      <point x="971" y="338"/>
      <point x="971" y="338" type="qcurve"/>
      <point x="363" y="338" type="line" smooth="yes"/>
      <point x="306" y="338"/>
      <point x="218" y="355"/>
      <point x="163" y="400"/>
      <point x="144" y="480"/>
      <point x="155" y="543" type="qcurve" smooth="yes"/>
      <point x="185" y="716" type="line" smooth="yes"/>
      <point x="196" y="777"/>
      <point x="245" y="854"/>
      <point x="317" y="897"/>
      <point x="409" y="913"/>
      <point x="463" y="913" type="qcurve" smooth="yes"/>
      <point x="1031" y="913" type="line"/>
      <point x="1052" y="881" type="line"/>
      <point x="434" y="881" type="line"/>
      <point x="434" y="881"/>
      <point x="434" y="881"/>
      <point x="434" y="881" type="qcurve"/>
      <point x="345" y="370" type="line"/>
      <point x="345" y="370"/>
      <point x="345" y="370"/>
      <point x="345" y="370" type="qcurve"/>
      <point x="951" y="370" type="line" smooth="yes"/>
      <point x="1006" y="370"/>
      <point x="1094" y="355"/>
      <point x="1151" y="313"/>
      <point x="1173" y="236"/>
      <point x="1162" y="174" type="qcurve" smooth="yes"/>
      <point x="1141" y="49" type="line" smooth="yes"/>
      <point x="1130" y="-14"/>
      <point x="1082" y="-94"/>
      <point x="1011" y="-139"/>
      <point x="917" y="-155"/>
      <point x="859" y="-155" type="qcurve" smooth="yes"/>
      <point x="355" y="-155" type="line" smooth="yes"/>
      <point x="298" y="-155"/>
      <point x="210" y="-139"/>
      <point x="155" y="-94"/>
      <point x="136" y="-14"/>
      <point x="147" y="49" type="qcurve" smooth="yes"/>
    </contour>
    <contour>
      <point x="1077" y="370" type="line"/>
      <point x="1077" y="370"/>
      <point x="1077" y="370"/>
      <point x="1077" y="370" type="qcurve"/>
      <point x="1166" y="881" type="line"/>
      <point x="1166" y="881"/>
      <point x="1166" y="881"/>
      <point x="1166" y="881"/>
      <point x="1166" y="881"/>
      <point x="1166" y="881" type="qcurve"/>
      <point x="761" y="881" type="line"/>
      <point x="558" y="881" type="line" smooth="yes"/>
      <point x="501" y="881"/>
      <point x="413" y="898"/>
      <point x="358" y="944"/>
      <point x="339" y="1024"/>
      <point x="350" y="1087" type="qcurve" smooth="yes"/>
      <point x="370" y="1204" type="line" smooth="yes"/>
      <point x="381" y="1265"/>
      <point x="430" y="1341"/>
      <point x="502" y="1384"/>
      <point x="594" y="1400"/>
      <point x="648" y="1400" type="qcurve" smooth="yes"/>
      <point x="1116" y="1400" type="line" smooth="yes"/>
      <point x="1171" y="1400"/>
      <point x="1259" y="1384"/>
      <point x="1316" y="1341"/>
      <point x="1339" y="1265"/>
      <point x="1328" y="1204" type="qcurve" smooth="yes"/>
      <point x="1318" y="1144" type="line"/>
      <point x="1090" y="1100" type="line"/>
      <point x="1137" y="1368" type="line"/>
      <point x="1137" y="1368"/>
      <point x="1137" y="1368"/>
      <point x="1137" y="1368" type="qcurve"/>
      <point x="619" y="1368" type="line"/>
      <point x="619" y="1368"/>
      <point x="619" y="1368"/>
      <point x="619" y="1368" type="qcurve"/>
      <point x="539" y="913" type="line"/>
      <point x="539" y="913"/>
      <point x="539" y="913"/>
      <point x="539" y="913" type="qcurve"/>
      <point x="1145" y="913" type="line" smooth="yes"/>
      <point x="1200" y="913"/>
      <point x="1288" y="898"/>
      <point x="1345" y="856"/>
      <point x="1368" y="779"/>
      <point x="1357" y="717" type="qcurve" smooth="yes"/>
      <point x="1327" y="542" type="line" smooth="yes"/>
      <point x="1316" y="479"/>
      <point x="1268" y="400"/>
      <point x="1197" y="355"/>
      <point x="1103" y="338"/>
      <point x="1045" y="338" type="qcurve" smooth="yes"/>
      <point x="927" y="338" type="line"/>
      <point x="933" y="370" type="line"/>
    </contour>
  </outline>
</glyph>
<glyph name="ordfeminine" format="2">
  <advance width="993.735"/>
  <unicode hex="00AA"/>
  <outline>
    <contour>
      <point x="304" y="776" type="line" smooth="yes"/>
      <point x="266" y="776"/>
      <point x="205" y="788"/>
      <point x="167" y="820"/>
      <point x="153" y="874"/>
      <point x="160" y="917" type="qcurve" smooth="yes"/>
      <point x="175" y="1002" type="line" smooth="yes"/>
      <point x="183" y="1044"/>
      <point x="223" y="1096"/>
      <point x="280" y="1126"/>
      <point x="350" y="1136"/>
      <point x="386" y="1136" type="qcurve" smooth="yes"/>
      <point x="730" y="1136" type="line"/>
      <point x="779" y="1416" type="line"/>
      <point x="779" y="1416"/>
      <point x="779" y="1416"/>
      <point x="779" y="1416" type="qcurve"/>
      <point x="459" y="1416" type="line"/>
      <point x="459" y="1416"/>
      <point x="459" y="1416"/>
      <point x="459" y="1416" type="qcurve"/>
      <point x="429" y="1245" type="line"/>
      <point x="236" y="1282" type="line"/>
      <point x="241" y="1311" type="line" smooth="yes"/>
      <point x="248" y="1353"/>
      <point x="282" y="1406"/>
      <point x="332" y="1437"/>
      <point x="395" y="1448"/>
      <point x="432" y="1448" type="qcurve" smooth="yes"/>
      <point x="816" y="1448" type="line" smooth="yes"/>
      <point x="854" y="1448"/>
      <point x="914" y="1437"/>
      <point x="953" y="1406"/>
      <point x="969" y="1352"/>
      <point x="961" y="1309" type="qcurve" smooth="yes"/>
      <point x="869" y="783" type="line"/>
      <point x="669" y="783" type="line"/>
      <point x="672" y="804" type="line"/>
      <point x="664" y="796"/>
      <point x="643" y="785"/>
      <point x="618" y="779"/>
      <point x="587" y="776"/>
      <point x="568" y="776" type="qcurve" smooth="yes"/>
    </contour>
    <contour>
      <point x="341" y="808" type="line"/>
      <point x="341" y="808"/>
      <point x="341" y="808"/>
      <point x="341" y="808" type="qcurve"/>
      <point x="673" y="808" type="line"/>
      <point x="725" y="1104" type="line"/>
      <point x="393" y="1104" type="line"/>
      <point x="393" y="1104"/>
      <point x="393" y="1104"/>
      <point x="393" y="1104" type="qcurve"/>
    </contour>
  </outline>
  <guideline angle="0" x="0" y="36"/>
  <guideline angle="0" x="0" y="36"/>
</glyph>
<glyph name="logicalnot" format="2">
  <advance width="1450.97"/>
  <unicode hex="00AC"/>
  <outline>
    <contour>
      <point x="1257" y="389" type="line"/>
      <point x="1217" y="389" type="line"/>
      <point x="1280" y="749" type="line"/>
      <point x="154" y="749" type="line"/>
      <point x="160" y="785" type="line"/>
      <point x="1326" y="785" type="line"/>
    </contour>
  </outline>
</glyph>
<glyph name="registered" format="2">
  <advance width="1015"/>
  <unicode hex="00AE"/>
  <outline>
    <contour>
      <point x="468" y="1196" type="line"/>
      <point x="617" y="1196" type="line"/>
      <point x="617" y="1196" type="line"/>
      <point x="697" y="1196" type="line" smooth="yes"/>
      <point x="719" y="1196"/>
      <point x="754" y="1203"/>
      <point x="781" y="1220"/>
      <point x="798" y="1248"/>
      <point x="801" y="1269" type="qcurve" smooth="yes"/>
      <point x="811" y="1326" type="line" smooth="yes"/>
      <point x="819" y="1371"/>
      <point x="773" y="1400"/>
      <point x="732" y="1400" type="qcurve" smooth="yes"/>
      <point x="503" y="1400" type="line"/>
      <point x="498" y="1368" type="line"/>
      <point x="695" y="1368" type="line" smooth="yes"/>
      <point x="706" y="1368"/>
      <point x="714" y="1359"/>
      <point x="712" y="1349" type="qcurve" smooth="yes"/>
      <point x="695" y="1247" type="line" smooth="yes"/>
      <point x="693" y="1236"/>
      <point x="681" y="1228"/>
      <point x="670" y="1228" type="qcurve" smooth="yes"/>
      <point x="473" y="1228" type="line"/>
    </contour>
    <contour>
      <point x="392" y="1060" type="line"/>
      <point x="497" y="1060" type="line"/>
      <point x="556" y="1400" type="line"/>
      <point x="503" y="1400" type="line"/>
      <point x="451" y="1400" type="line"/>
    </contour>
    <contour>
      <point x="662" y="1060" type="line"/>
      <point x="795" y="1060" type="line"/>
      <point x="677" y="1201" type="line"/>
      <point x="549" y="1201" type="line"/>
    </contour>
    <contour>
      <point x="230" y="1057" type="line"/>
      <point x="293" y="1413" type="line"/>
      <point x="304" y="1482"/>
      <point x="392" y="1555"/>
      <point x="461" y="1555" type="qcurve" smooth="yes"/>
      <point x="855" y="1555" type="line" smooth="yes"/>
      <point x="924" y="1555"/>
      <point x="987" y="1482"/>
      <point x="976" y="1413" type="qcurve"/>
      <point x="913" y="1057" type="line" smooth="yes"/>
      <point x="901" y="988"/>
      <point x="813" y="914"/>
      <point x="744" y="914" type="qcurve" smooth="yes"/>
      <point x="350" y="914" type="line" smooth="yes"/>
      <point x="281" y="914"/>
      <point x="218" y="988"/>
      <point x="230" y="1057" type="qcurve"/>
    </contour>
    <contour>
      <point x="297" y="1057" type="line" smooth="yes"/>
      <point x="290" y="1017"/>
      <point x="321" y="975"/>
      <point x="360" y="975" type="qcurve" smooth="yes"/>
      <point x="754" y="975" type="line" smooth="yes"/>
      <point x="794" y="975"/>
      <point x="839" y="1017"/>
      <point x="846" y="1057" type="qcurve" smooth="yes"/>
      <point x="909" y="1413" type="line" smooth="yes"/>
      <point x="916" y="1453"/>
      <point x="885" y="1494"/>
      <point x="845" y="1494" type="qcurve" smooth="yes"/>
      <point x="451" y="1494" type="line" smooth="yes"/>
      <point x="412" y="1494"/>
      <point x="367" y="1453"/>
      <point x="360" y="1413" type="qcurve" smooth="yes"/>
    </contour>
  </outline>
</glyph>
<glyph name="degree" format="2">
  <advance width="657"/>
  <unicode hex="00B0"/>
  <outline>
    <contour>
      <point x="185" y="1254" type="line"/>
      <point x="207" y="1378" type="line" smooth="yes"/>
      <point x="220" y="1452"/>
      <point x="312" y="1518"/>
      <point x="406" y="1518" type="qcurve" smooth="yes"/>
      <point x="543" y="1518" type="line" smooth="yes"/>
      <point x="636" y="1518"/>
      <point x="707" y="1452"/>
      <point x="694" y="1378" type="qcurve" smooth="yes"/>
      <point x="672" y="1254" type="line" smooth="yes"/>
      <point x="658" y="1175"/>
      <point x="566" y="1106"/>
      <point x="471" y="1106" type="qcurve" smooth="yes"/>
      <point x="334" y="1106" type="line" smooth="yes"/>
      <point x="240" y="1106"/>
      <point x="171" y="1174"/>
      <point x="185" y="1254" type="qcurve"/>
    </contour>
    <contour>
      <point x="335" y="1138" type="line"/>
      <point x="335" y="1138"/>
      <point x="335" y="1138"/>
      <point x="335" y="1138" type="qcurve"/>
      <point x="482" y="1138" type="line"/>
      <point x="482" y="1138"/>
      <point x="482" y="1138"/>
      <point x="482" y="1138" type="qcurve"/>
      <point x="542" y="1486" type="line"/>
      <point x="542" y="1486"/>
      <point x="542" y="1486"/>
      <point x="542" y="1486" type="qcurve"/>
      <point x="395" y="1486" type="line"/>
      <point x="395" y="1486"/>
      <point x="395" y="1486"/>
      <point x="395" y="1486" type="qcurve"/>
    </contour>
  </outline>
</glyph>
<glyph name="plusminus" format="2">
  <advance width="1451"/>
  <unicode hex="00B1"/>
  <outline>
    <contour>
      <point x="1316" y="726" type="line"/>
      <point x="1309" y="690" type="line"/>
      <point x="746" y="690" type="line"/>
      <point x="669" y="248" type="line"/>
      <point x="629" y="248" type="line"/>
      <point x="706" y="690" type="line"/>
      <point x="143" y="690" type="line"/>
      <point x="150" y="726" type="line"/>
      <point x="713" y="726" type="line"/>
      <point x="790" y="1168" type="line"/>
      <point x="830" y="1168" type="line"/>
      <point x="753" y="726" type="line"/>
    </contour>
    <contour>
      <point x="21.4902" y="0" type="line"/>
      <point x="27.4902" y="36" type="line"/>
      <point x="1193.49" y="36" type="line"/>
      <point x="1187.49" y="0" type="line"/>
    </contour>
  </outline>
</glyph>
<glyph name="uni00B5" format="2">
  <advance width="1424"/>
  <unicode hex="00B5"/>
  <outline>
    <contour>
      <point x="1" y="-428" type="line"/>
      <point x="259" y="-374" type="line"/>
      <point x="333" y="54" type="line"/>
      <point x="348" y="23"/>
      <point x="416" y="-6"/>
      <point x="477" y="-6" type="qcurve" smooth="yes"/>
      <point x="705" y="-6" type="line" smooth="yes"/>
      <point x="736" y="-6"/>
      <point x="785" y="1"/>
      <point x="825" y="16"/>
      <point x="856" y="39"/>
      <point x="869" y="54" type="qcurve"/>
      <point x="860" y="0" type="line"/>
      <point x="1108" y="0" type="line"/>
      <point x="1283" y="1000" type="line"/>
      <point x="1035" y="1000" type="line"/>
      <point x="887" y="154" type="line" smooth="yes"/>
      <point x="881" y="122"/>
      <point x="854" y="74"/>
      <point x="811" y="42"/>
      <point x="755" y="26"/>
      <point x="721" y="26" type="qcurve" smooth="yes"/>
      <point x="473" y="26" type="line" smooth="yes"/>
      <point x="439" y="26"/>
      <point x="388" y="42"/>
      <point x="357" y="74"/>
      <point x="345" y="122"/>
      <point x="351" y="154" type="qcurve" smooth="yes"/>
      <point x="499" y="1000" type="line"/>
      <point x="251" y="1000" type="line"/>
    </contour>
  </outline>
</glyph>
<glyph name="paragraph" format="2">
  <advance width="1207.55"/>
  <unicode hex="00B6"/>
  <outline>
    <contour>
      <point x="868" y="0" type="line"/>
      <point x="788" y="0" type="line"/>
      <point x="1026" y="1364" type="line"/>
      <point x="922" y="1364" type="line"/>
      <point x="684" y="0" type="line"/>
      <point x="604" y="0" type="line"/>
      <point x="696" y="528" type="line"/>
      <point x="418" y="528" type="line" smooth="yes"/>
      <point x="331" y="528"/>
      <point x="208" y="560"/>
      <point x="133" y="625"/>
      <point x="108" y="723"/>
      <point x="120" y="788" type="qcurve" smooth="yes"/>
      <point x="179" y="1126" type="line" smooth="yes"/>
      <point x="193" y="1212"/>
      <point x="262" y="1319"/>
      <point x="364" y="1379"/>
      <point x="494" y="1400"/>
      <point x="570" y="1400" type="qcurve" smooth="yes"/>
      <point x="1112" y="1400" type="line"/>
    </contour>
  </outline>
  <guideline angle="90" color="0.4,0.4,0.4,1" name="halfwidth" x="603.775" y="0"/>
</glyph>
<glyph name="ordmasculine" format="2">
  <advance width="1010"/>
  <unicode hex="00BA"/>
  <outline>
    <contour>
      <point x="139" y="747" type="line"/>
      <point x="206" y="1131" type="line"/>
      <point x="220" y="1205"/>
      <point x="312" y="1271"/>
      <point x="406" y="1271" type="qcurve" smooth="yes"/>
      <point x="813" y="1271" type="line" smooth="yes"/>
      <point x="906" y="1271"/>
      <point x="977" y="1205"/>
      <point x="963" y="1131" type="qcurve"/>
      <point x="896" y="747" type="line"/>
      <point x="883" y="668"/>
      <point x="791" y="599"/>
      <point x="696" y="599" type="qcurve" smooth="yes"/>
      <point x="289" y="599" type="line" smooth="yes"/>
      <point x="195" y="599"/>
      <point x="125" y="667"/>
      <point x="139" y="747" type="qcurve"/>
    </contour>
    <contour>
      <point x="319" y="631" type="line"/>
      <point x="319" y="631"/>
      <point x="319" y="631"/>
      <point x="319" y="631" type="qcurve"/>
      <point x="676" y="631" type="line"/>
      <point x="676" y="631"/>
      <point x="676" y="631"/>
      <point x="676" y="631" type="qcurve"/>
      <point x="782" y="1239" type="line"/>
      <point x="782" y="1239"/>
      <point x="782" y="1239"/>
      <point x="782" y="1239" type="qcurve"/>
      <point x="425" y="1239" type="line"/>
      <point x="425" y="1239"/>
      <point x="425" y="1239"/>
      <point x="425" y="1239" type="qcurve"/>
    </contour>
  </outline>
</glyph>
<glyph name="AE" format="2">
  <advance width="2243"/>
  <unicode hex="00C6"/>
  <anchor x="1448" y="1550" name="top"/>
  <anchor x="971" y="-150" name="bottom"/>
  <outline>
    <contour>
      <point x="-120" y="0" type="line"/>
      <point x="830" y="1400" type="line"/>
      <point x="2337" y="1400" type="line"/>
      <point x="2331" y="1364" type="line"/>
      <point x="1357" y="1364" type="line"/>
      <point x="1247" y="736" type="line"/>
      <point x="1835" y="736" type="line"/>
      <point x="1829" y="700" type="line"/>
      <point x="1241" y="700" type="line"/>
      <point x="1125" y="36" type="line"/>
      <point x="2119" y="36" type="line"/>
      <point x="2113" y="0" type="line"/>
      <point x="855" y="0" type="line"/>
      <point x="918" y="362" type="line"/>
      <point x="170" y="362" type="line"/>
      <point x="-76" y="0" type="line"/>
    </contour>
    <contour>
      <point x="194" y="398" type="line"/>
      <point x="924" y="398" type="line"/>
      <point x="1093" y="1364" type="line"/>
      <point x="850" y="1364" type="line"/>
    </contour>
  </outline>
</glyph>
<glyph name="Eth" format="2">
  <advance width="1839"/>
  <unicode hex="00D0"/>
  <anchor x="828" y="1550" name="top"/>
  <anchor x="828" y="-150" name="bottom"/>
  <outline>
    <contour>
      <point x="106.972" y="716" type="line"/>
      <point x="826.972" y="716" type="line"/>
      <point x="820.972" y="684" type="line"/>
      <point x="100.972" y="684" type="line"/>
    </contour>
    <contour>
      <point x="370" y="36" type="line"/>
      <point x="842" y="36" type="line" smooth="yes"/>
      <point x="917" y="36"/>
      <point x="1048" y="67"/>
      <point x="1161" y="135"/>
      <point x="1256" y="242"/>
      <point x="1334" y="393"/>
      <point x="1394" y="591"/>
      <point x="1416" y="715" type="qcurve" smooth="yes"/>
      <point x="1437" y="834"/>
      <point x="1443" y="1023"/>
      <point x="1416" y="1167"/>
      <point x="1357" y="1269"/>
      <point x="1267" y="1334"/>
      <point x="1147" y="1364"/>
      <point x="1074" y="1364" type="qcurve" smooth="yes"/>
      <point x="602" y="1364" type="line"/>
    </contour>
    <contour>
      <point x="100" y="0" type="line"/>
      <point x="344" y="1400" type="line"/>
      <point x="1123" y="1400" type="line" smooth="yes"/>
      <point x="1220" y="1400"/>
      <point x="1389" y="1354"/>
      <point x="1525" y="1266"/>
      <point x="1625" y="1138"/>
      <point x="1683" y="971"/>
      <point x="1695" y="768"/>
      <point x="1674" y="650" type="qcurve" smooth="yes"/>
      <point x="1652" y="525"/>
      <point x="1571" y="331"/>
      <point x="1458" y="186"/>
      <point x="1317" y="87"/>
      <point x="1154" y="27"/>
      <point x="974" y="0"/>
      <point x="879" y="0" type="qcurve" smooth="yes"/>
    </contour>
  </outline>
</glyph>
<glyph name="multiply" format="2">
  <advance width="1179"/>
  <unicode hex="00D7"/>
  <outline>
    <contour>
      <point x="76" y="139" type="line"/>
      <point x="52" y="168" type="line"/>
      <point x="546" y="588" type="line"/>
      <point x="199" y="1008" type="line"/>
      <point x="228" y="1033" type="line"/>
      <point x="575" y="613" type="line"/>
      <point x="1067" y="1033" type="line"/>
      <point x="1091" y="1004" type="line"/>
      <point x="599" y="584" type="line"/>
      <point x="945" y="165" type="line"/>
      <point x="916" y="140" type="line"/>
      <point x="570" y="559" type="line"/>
      <point x="76" y="139" type="line"/>
    </contour>
  </outline>
  <guideline angle="40.4478" color="1,0,0,1" x="-9" y="139"/>
  <guideline angle="309.584" color="1,0,0,1" x="116" y="1006"/>
</glyph>
<glyph name="Oslash" format="2">
  <advance width="1842"/>
  <unicode hex="00D8"/>
  <anchor x="1078" y="1580" name="top"/>
  <outline>
    <contour>
      <point x="274.437" y="1136" type="line"/>
      <point x="124.437" y="276" type="line" smooth="yes"/>
      <point x="109.437" y="188"/>
      <point x="136.437" y="77"/>
      <point x="213.437" y="14"/>
      <point x="336.437" y="-10"/>
      <point x="416.437" y="-10" type="qcurve" smooth="yes"/>
      <point x="1182.44" y="-10" type="line" smooth="yes"/>
      <point x="1262.44" y="-10"/>
      <point x="1394.44" y="13"/>
      <point x="1494.44" y="76"/>
      <point x="1561.44" y="188"/>
      <point x="1576.44" y="276" type="qcurve" smooth="yes"/>
      <point x="1726.44" y="1136" type="line" smooth="yes"/>
      <point x="1741.44" y="1222"/>
      <point x="1709.44" y="1329"/>
      <point x="1628.44" y="1389"/>
      <point x="1506.44" y="1410"/>
      <point x="1430.44" y="1410" type="qcurve" smooth="yes"/>
      <point x="664.437" y="1410" type="line" smooth="yes"/>
      <point x="588.437" y="1410"/>
      <point x="459.437" y="1389"/>
      <point x="358.437" y="1329"/>
      <point x="289.437" y="1222"/>
      <point x="274.437" y="1136" type="qcurve"/>
    </contour>
    <contour>
      <point x="580.437" y="1374" type="line"/>
      <point x="580.437" y="1374"/>
      <point x="580.437" y="1374"/>
      <point x="580.437" y="1374"/>
      <point x="580.437" y="1374"/>
      <point x="580.437" y="1374" type="qcurve"/>
      <point x="1504.44" y="1374" type="line"/>
      <point x="1504.44" y="1374"/>
      <point x="1504.44" y="1374"/>
      <point x="1504.44" y="1374"/>
      <point x="1504.44" y="1374"/>
      <point x="1504.44" y="1374" type="qcurve"/>
      <point x="1269.44" y="26" type="line"/>
      <point x="1269.44" y="26"/>
      <point x="1269.44" y="26"/>
      <point x="1269.44" y="26"/>
      <point x="1269.44" y="26"/>
      <point x="1269.44" y="26" type="qcurve"/>
      <point x="345.437" y="26" type="line"/>
      <point x="345.437" y="26"/>
      <point x="345.437" y="26"/>
      <point x="345.437" y="26"/>
      <point x="345.437" y="26"/>
      <point x="345.437" y="26" type="qcurve"/>
    </contour>
    <contour>
      <point x="57.4369" y="-30" type="line"/>
      <point x="238.437" y="120" type="line"/>
      <point x="305.437" y="159" type="line"/>
      <point x="1545.44" y="1190" type="line"/>
      <point x="1632.44" y="1256" type="line"/>
      <point x="1812.44" y="1404" type="line"/>
      <point x="1791.44" y="1430" type="line"/>
      <point x="1603.44" y="1278" type="line"/>
      <point x="1524.44" y="1218" type="line"/>
      <point x="288.437" y="187" type="line"/>
      <point x="225.437" y="149" type="line"/>
      <point x="36.4369" y="-4" type="line"/>
    </contour>
  </outline>
  <guideline y="-30"/>
  <guideline y="1430"/>
</glyph>
<glyph name="Thorn" format="2">
  <advance width="1654"/>
  <unicode hex="00DE"/>
  <outline>
    <contour>
      <point x="78" y="0" type="line"/>
      <point x="342" y="0" type="line"/>
      <point x="399" y="325" type="line"/>
      <point x="1077" y="325" type="line" smooth="yes"/>
      <point x="1153" y="325"/>
      <point x="1283" y="347"/>
      <point x="1385" y="407"/>
      <point x="1454" y="514"/>
      <point x="1469" y="599" type="qcurve" smooth="yes"/>
      <point x="1512" y="849" type="line" smooth="yes"/>
      <point x="1527" y="935"/>
      <point x="1495" y="1042"/>
      <point x="1414" y="1102"/>
      <point x="1292" y="1123"/>
      <point x="1216" y="1123" type="qcurve" smooth="yes"/>
      <point x="537" y="1123" type="line"/>
      <point x="585" y="1400" type="line"/>
      <point x="322" y="1400" type="line"/>
    </contour>
    <contour>
      <point x="405" y="361" type="line"/>
      <point x="532" y="1087" type="line"/>
      <point x="1058" y="1087" type="line" smooth="yes"/>
      <point x="1115" y="1087"/>
      <point x="1197" y="1058"/>
      <point x="1246" y="1006"/>
      <point x="1263" y="932"/>
      <point x="1255" y="887" type="qcurve" smooth="yes"/>
      <point x="1198" y="561" type="line" smooth="yes"/>
      <point x="1190" y="516"/>
      <point x="1147" y="442"/>
      <point x="1080" y="390"/>
      <point x="988" y="361"/>
      <point x="931" y="361" type="qcurve" smooth="yes"/>
    </contour>
  </outline>
  <guideline x="827" name="halfwidth" color="0.4,0.4,0.4,1"/>
</glyph>
<glyph name="germandbls" format="2">
  <advance width="1369"/>
  <unicode hex="00DF"/>
  <outline>
    <contour>
      <point x="742" y="968" type="line"/>
      <point x="1000" y="968" type="line" smooth="yes"/>
      <point x="1070" y="968"/>
      <point x="1171" y="992"/>
      <point x="1241" y="1043"/>
      <point x="1283" y="1124"/>
      <point x="1293" y="1182" type="qcurve" smooth="yes"/>
      <point x="1305" y="1250" type="line" smooth="yes"/>
      <point x="1324" y="1358"/>
      <point x="1222" y="1454"/>
      <point x="1085" y="1454" type="qcurve" smooth="yes"/>
      <point x="574" y="1454" type="line" smooth="yes"/>
      <point x="506" y="1454"/>
      <point x="404" y="1431"/>
      <point x="334" y="1381"/>
      <point x="291" y="1304"/>
      <point x="282" y="1250" type="qcurve" smooth="yes"/>
      <point x="64" y="0" type="line"/>
      <point x="312" y="0" type="line"/>
      <point x="560" y="1422" type="line"/>
      <point x="560" y="1422"/>
      <point x="560" y="1422"/>
      <point x="560" y="1422" type="qcurve"/>
      <point x="1087" y="1422" type="line"/>
      <point x="1087" y="1422"/>
      <point x="1087" y="1422"/>
      <point x="1087" y="1422" type="qcurve"/>
      <point x="1014" y="1000" type="line"/>
      <point x="1014" y="1000"/>
      <point x="1014" y="1000"/>
      <point x="1014" y="1000" type="qcurve"/>
      <point x="748" y="1000" type="line"/>
    </contour>
    <contour>
      <point x="453" y="-6" type="line"/>
      <point x="829" y="-6" type="line" smooth="yes"/>
      <point x="891" y="-6"/>
      <point x="990" y="11"/>
      <point x="1064" y="56"/>
      <point x="1112" y="135"/>
      <point x="1123" y="198" type="qcurve" smooth="yes"/>
      <point x="1228" y="804" type="line" smooth="yes"/>
      <point x="1239" y="866"/>
      <point x="1216" y="943"/>
      <point x="1157" y="985"/>
      <point x="1064" y="1000"/>
      <point x="1005" y="1000" type="qcurve" smooth="yes"/>
      <point x="673" y="1000" type="line"/>
      <point x="667" y="968" type="line"/>
      <point x="1009" y="968" type="line"/>
      <point x="1009" y="968"/>
      <point x="1009" y="968"/>
      <point x="1009" y="968" type="qcurve"/>
      <point x="845" y="26" type="line"/>
      <point x="845" y="26"/>
      <point x="845" y="26"/>
      <point x="845" y="26" type="qcurve"/>
      <point x="459" y="26" type="line"/>
    </contour>
  </outline>
</glyph>
<glyph name="ae" format="2">
  <advance width="2137"/>
  <unicode hex="00E6"/>
  <anchor x="1164" y="1150" name="top"/>
  <anchor x="917" y="-150" name="bottom"/>
  <outline>
    <contour>
      <point x="312" y="-6" type="line"/>
      <point x="818" y="-6" type="line" smooth="yes"/>
      <point x="863" y="-6"/>
      <point x="930" y="27"/>
      <point x="953" y="57" type="qcurve"/>
      <point x="966" y="27"/>
      <point x="1021" y="-6"/>
      <point x="1066" y="-6" type="qcurve" smooth="yes"/>
      <point x="1566" y="-6" type="line" smooth="yes"/>
      <point x="1623" y="-6"/>
      <point x="1725" y="11"/>
      <point x="1806" y="56"/>
      <point x="1863" y="135"/>
      <point x="1874" y="198" type="qcurve" smooth="yes"/>
      <point x="1885" y="262" type="line"/>
      <point x="1645" y="308" type="line"/>
      <point x="1596" y="26" type="line"/>
      <point x="1596" y="26"/>
      <point x="1596" y="26"/>
      <point x="1596" y="26" type="qcurve"/>
      <point x="1072" y="26" type="line"/>
      <point x="1072" y="26"/>
      <point x="1072" y="26"/>
      <point x="1072" y="26" type="qcurve"/>
      <point x="1154" y="497" type="line"/>
      <point x="1934" y="497" type="line"/>
      <point x="1988" y="810" type="line" smooth="yes"/>
      <point x="1999" y="871"/>
      <point x="1968" y="947"/>
      <point x="1901" y="990"/>
      <point x="1805" y="1006"/>
      <point x="1751" y="1006" type="qcurve" smooth="yes"/>
      <point x="1243" y="1006" type="line" smooth="yes"/>
      <point x="1198" y="1006"/>
      <point x="1131" y="974"/>
      <point x="1108" y="944" type="qcurve"/>
      <point x="1095" y="974"/>
      <point x="1040" y="1006"/>
      <point x="995" y="1006" type="qcurve" smooth="yes"/>
      <point x="503" y="1006" type="line" smooth="yes"/>
      <point x="448" y="1006"/>
      <point x="346" y="990"/>
      <point x="263" y="947"/>
      <point x="205" y="871"/>
      <point x="194" y="810" type="qcurve" smooth="yes"/>
      <point x="184" y="750" type="line"/>
      <point x="424" y="706" type="line"/>
      <point x="471" y="974" type="line"/>
      <point x="471" y="974"/>
      <point x="471" y="974"/>
      <point x="471" y="974" type="qcurve"/>
      <point x="989" y="974" type="line"/>
      <point x="989" y="974"/>
      <point x="989" y="974"/>
      <point x="989" y="974" type="qcurve"/>
      <point x="914" y="545" type="line"/>
      <point x="408" y="545" type="line" smooth="yes"/>
      <point x="353" y="545"/>
      <point x="251" y="530"/>
      <point x="169" y="488"/>
      <point x="111" y="411"/>
      <point x="100" y="349" type="qcurve" smooth="yes"/>
      <point x="74" y="198" type="line" smooth="yes"/>
      <point x="63" y="135"/>
      <point x="91" y="56"/>
      <point x="157" y="11"/>
      <point x="254" y="-6"/>
      <point x="312" y="-6" type="qcurve"/>
    </contour>
    <contour>
      <point x="292" y="26" type="line"/>
      <point x="292" y="26"/>
      <point x="292" y="26"/>
      <point x="292" y="26" type="qcurve"/>
      <point x="377" y="513" type="line"/>
      <point x="377" y="513"/>
      <point x="377" y="513"/>
      <point x="377" y="513" type="qcurve"/>
      <point x="909" y="513" type="line"/>
      <point x="824" y="26" type="line"/>
      <point x="824" y="26"/>
      <point x="824" y="26"/>
      <point x="824" y="26" type="qcurve"/>
    </contour>
    <contour>
      <point x="1159" y="529" type="line"/>
      <point x="1237" y="974" type="line"/>
      <point x="1237" y="974"/>
      <point x="1237" y="974"/>
      <point x="1237" y="974" type="qcurve"/>
      <point x="1769" y="974" type="line"/>
      <point x="1769" y="974"/>
      <point x="1769" y="974"/>
      <point x="1769" y="974" type="qcurve"/>
      <point x="1691" y="529" type="line"/>
    </contour>
  </outline>
</glyph>
<glyph name="eth" format="2">
  <advance width="1478"/>
  <unicode hex="00F0"/>
  <outline>
    <contour>
      <point x="580" y="1383" type="line"/>
      <point x="666" y="1369"/>
      <point x="805" y="1303"/>
      <point x="910" y="1201"/>
      <point x="981" y="1062"/>
      <point x="1015" y="888"/>
      <point x="1012" y="678"/>
      <point x="990" y="555" type="qcurve"/>
      <point x="1233" y="526" type="line"/>
      <point x="1257" y="660"/>
      <point x="1268" y="891"/>
      <point x="1240" y="1083"/>
      <point x="1171" y="1238"/>
      <point x="1059" y="1355"/>
      <point x="902" y="1436"/>
      <point x="799" y="1458" type="qcurve"/>
    </contour>
    <contour>
      <point x="172" y="702" type="line"/>
      <point x="85" y="208" type="line" smooth="yes"/>
      <point x="75" y="150"/>
      <point x="89" y="69"/>
      <point x="142" y="18"/>
      <point x="235" y="-6"/>
      <point x="304" y="-6" type="qcurve" smooth="yes"/>
      <point x="884" y="-6" type="line" smooth="yes"/>
      <point x="954" y="-6"/>
      <point x="1055" y="18"/>
      <point x="1125" y="69"/>
      <point x="1167" y="150"/>
      <point x="1177" y="208" type="qcurve" smooth="yes"/>
      <point x="1233" y="526" type="line"/>
      <point x="1151" y="906" type="line"/>
      <point x="463" y="906" type="line" smooth="yes"/>
      <point x="395" y="906"/>
      <point x="294" y="883"/>
      <point x="223" y="833"/>
      <point x="181" y="756"/>
      <point x="172" y="702" type="qcurve"/>
    </contour>
    <contour>
      <point x="450" y="874" type="line"/>
      <point x="450" y="874"/>
      <point x="450" y="874"/>
      <point x="450" y="874" type="qcurve"/>
      <point x="1046" y="874" type="line"/>
      <point x="1040" y="840" type="line"/>
      <point x="898" y="26" type="line"/>
      <point x="898" y="26"/>
      <point x="898" y="26"/>
      <point x="898" y="26" type="qcurve"/>
      <point x="302" y="26" type="line"/>
      <point x="302" y="26"/>
      <point x="302" y="26"/>
      <point x="302" y="26" type="qcurve"/>
    </contour>
    <contour>
      <point x="564" y="1163" type="line"/>
      <point x="568" y="1134" type="line"/>
      <point x="1427" y="1360" type="line"/>
      <point x="1423" y="1389" type="line"/>
    </contour>
  </outline>
</glyph>
<glyph name="divide" format="2">
  <advance width="1450.79"/>
  <unicode hex="00F7"/>
  <outline>
    <contour>
      <point x="724" y="944" type="line"/>
      <point x="730" y="980" type="line"/>
      <point x="732" y="990"/>
      <point x="735" y="1001"/>
      <point x="740" y="1007"/>
      <point x="746" y="1009"/>
      <point x="750" y="1009" type="qcurve" smooth="yes"/>
      <point x="814" y="1009" type="line" smooth="yes"/>
      <point x="819" y="1009"/>
      <point x="825" y="1007"/>
      <point x="827" y="1001"/>
      <point x="826" y="990"/>
      <point x="824" y="980" type="qcurve"/>
      <point x="818" y="944" type="line"/>
      <point x="817" y="934"/>
      <point x="814" y="923"/>
      <point x="809" y="917"/>
      <point x="803" y="915"/>
      <point x="798" y="915" type="qcurve" smooth="yes"/>
      <point x="733" y="915" type="line" smooth="yes"/>
      <point x="729" y="915"/>
      <point x="723" y="917"/>
      <point x="721" y="923"/>
      <point x="723" y="934"/>
      <point x="724" y="944" type="qcurve"/>
    </contour>
    <contour>
      <point x="121" y="569" type="line"/>
      <point x="128" y="605" type="line"/>
      <point x="1294" y="605" type="line"/>
      <point x="1287" y="569" type="line"/>
    </contour>
    <contour>
      <point x="593" y="192" type="line"/>
      <point x="599" y="228" type="line"/>
      <point x="601" y="238"/>
      <point x="604" y="249"/>
      <point x="608" y="255"/>
      <point x="615" y="257"/>
      <point x="619" y="257" type="qcurve" smooth="yes"/>
      <point x="683" y="257" type="line" smooth="yes"/>
      <point x="688" y="257"/>
      <point x="694" y="255"/>
      <point x="696" y="249"/>
      <point x="695" y="238"/>
      <point x="693" y="228" type="qcurve"/>
      <point x="687" y="192" type="line"/>
      <point x="686" y="182"/>
      <point x="682" y="171"/>
      <point x="678" y="165"/>
      <point x="671" y="163"/>
      <point x="666" y="163" type="qcurve" smooth="yes"/>
      <point x="601" y="163" type="line" smooth="yes"/>
      <point x="597" y="163"/>
      <point x="591" y="165"/>
      <point x="590" y="171"/>
      <point x="592" y="182"/>
      <point x="593" y="192" type="qcurve"/>
    </contour>
  </outline>
</glyph>
<glyph name="oslash" format="2">
  <advance width="1444" height="1448"/>
  <unicode hex="00F8"/>
  <anchor x="804" y="1150" name="top"/>
  <outline>
    <contour>
      <point x="91.7896" y="208" type="line"/>
      <point x="195.79" y="802" type="line" smooth="yes"/>
      <point x="204.79" y="856"/>
      <point x="247.79" y="933"/>
      <point x="317.79" y="983"/>
      <point x="419.79" y="1006"/>
      <point x="487.79" y="1006" type="qcurve" smooth="yes"/>
      <point x="1067.79" y="1006" type="line" smooth="yes"/>
      <point x="1204.79" y="1006"/>
      <point x="1306.79" y="910"/>
      <point x="1287.79" y="802" type="qcurve" smooth="yes"/>
      <point x="1183.79" y="208" type="line" smooth="yes"/>
      <point x="1173.79" y="150"/>
      <point x="1131.79" y="69"/>
      <point x="1061.79" y="18"/>
      <point x="960.79" y="-6"/>
      <point x="890.79" y="-6" type="qcurve" smooth="yes"/>
      <point x="310.79" y="-6" type="line" smooth="yes"/>
      <point x="241.79" y="-6"/>
      <point x="148.79" y="18"/>
      <point x="95.7896" y="69"/>
      <point x="81.7896" y="150"/>
      <point x="91.7896" y="208" type="qcurve"/>
    </contour>
    <contour>
      <point x="308.79" y="26" type="line"/>
      <point x="308.79" y="26"/>
      <point x="308.79" y="26"/>
      <point x="308.79" y="26" type="qcurve"/>
      <point x="904.79" y="26" type="line"/>
      <point x="904.79" y="26"/>
      <point x="904.79" y="26"/>
      <point x="904.79" y="26" type="qcurve"/>
      <point x="1069.79" y="974" type="line"/>
      <point x="1069.79" y="974"/>
      <point x="1069.79" y="974"/>
      <point x="1069.79" y="974" type="qcurve"/>
      <point x="473.79" y="974" type="line"/>
      <point x="473.79" y="974"/>
      <point x="473.79" y="974"/>
      <point x="473.79" y="974" type="qcurve"/>
    </contour>
    <contour>
      <point x="34.7896" y="-26" type="line"/>
      <point x="16.7896" y="-2" type="line"/>
      <point x="209.79" y="148" type="line"/>
      <point x="273.79" y="185" type="line"/>
      <point x="1067.79" y="817" type="line"/>
      <point x="1147.79" y="874" type="line"/>
      <point x="1341.79" y="1026" type="line"/>
      <point x="1359.79" y="1002" type="line"/>
      <point x="1170.79" y="854" type="line"/>
      <point x="1082.79" y="791" type="line"/>
      <point x="286.79" y="157" type="line"/>
      <point x="220.79" y="119" type="line"/>
    </contour>
  </outline>
  <guideline y="1026"/>
  <guideline y="-26"/>
</glyph>
<glyph name="dcroat" format="2">
  <advance width="1458.1"/>
  <unicode hex="0111"/>
  <anchor x="870.575" y="1598" name="top"/>
  <outline>
    <contour>
      <point x="307" y="-6" type="line" smooth="yes"/>
      <point x="238" y="-6"/>
      <point x="144" y="18"/>
      <point x="92" y="69"/>
      <point x="77" y="150"/>
      <point x="88" y="208" type="qcurve" smooth="yes"/>
      <point x="190" y="802" type="line" smooth="yes"/>
      <point x="199" y="856"/>
      <point x="241" y="933"/>
      <point x="312" y="983"/>
      <point x="413" y="1006"/>
      <point x="482" y="1006" type="qcurve" smooth="yes"/>
      <point x="974" y="1006" type="line" smooth="yes"/>
      <point x="1005" y="1006"/>
      <point x="1041" y="994"/>
      <point x="1045" y="982" type="qcurve"/>
      <point x="1081" y="1188" type="line"/>
      <point x="738" y="1188" type="line"/>
      <point x="743" y="1220" type="line"/>
      <point x="1086" y="1220" type="line"/>
      <point x="1126" y="1448" type="line"/>
      <point x="1374" y="1448" type="line"/>
      <point x="1335" y="1220" type="line"/>
      <point x="1495" y="1220" type="line"/>
      <point x="1490" y="1188" type="line"/>
      <point x="1329" y="1188" type="line"/>
      <point x="1124" y="0" type="line"/>
      <point x="876" y="0" type="line"/>
      <point x="880" y="22" type="line"/>
      <point x="867" y="8"/>
      <point x="826" y="-6"/>
      <point x="799" y="-6" type="qcurve" smooth="yes"/>
    </contour>
    <contour>
      <point x="1044" y="974" type="line"/>
      <point x="468" y="974" type="line"/>
      <point x="468" y="974"/>
      <point x="468" y="974"/>
      <point x="468" y="974" type="qcurve"/>
      <point x="305" y="26" type="line"/>
      <point x="305" y="26"/>
      <point x="305" y="26"/>
      <point x="305" y="26" type="qcurve"/>
      <point x="881" y="26" type="line"/>
    </contour>
  </outline>
  <guideline angle="0" x="0" y="988"/>
  <guideline angle="0" x="0" y="42"/>
</glyph>
<glyph name="Hbar" format="2">
  <advance width="1955"/>
  <unicode hex="0126"/>
  <anchor x="1130" y="1550" name="top"/>
  <anchor x="833" y="-150" name="bottom"/>
  <anchor x="171" y="700" name="left"/>
  <outline>
    <contour>
      <point x="149" y="0" type="line"/>
      <point x="413" y="0" type="line"/>
      <point x="657" y="1400" type="line"/>
      <point x="393" y="1400" type="line"/>
    </contour>
    <contour>
      <point x="1303" y="0" type="line"/>
      <point x="1567" y="0" type="line"/>
      <point x="1811" y="1400" type="line"/>
      <point x="1547" y="1400" type="line"/>
    </contour>
    <contour>
      <point x="507" y="712" type="line"/>
      <point x="1457" y="712" type="line"/>
      <point x="1464" y="748" type="line"/>
      <point x="514" y="748" type="line"/>
    </contour>
    <contour>
      <point x="229" y="1034" type="line"/>
      <point x="1847" y="1034" type="line"/>
      <point x="1853" y="1066" type="line"/>
      <point x="235" y="1066" type="line"/>
    </contour>
  </outline>
  <guideline y="1050" color="1,0,0,1"/>
</glyph>
<glyph name="hbar" format="2">
  <advance width="1519"/>
  <unicode hex="0127"/>
  <anchor x="579" y="1598" name="top"/>
  <anchor x="666" y="-150" name="bottom"/>
  <anchor x="164" y="504" name="left"/>
  <outline>
    <contour>
      <point x="177.38" y="0" type="line"/>
      <point x="389.38" y="1215" type="line"/>
      <point x="239.38" y="1215" type="line"/>
      <point x="245.38" y="1247" type="line"/>
      <point x="395.38" y="1247" type="line"/>
      <point x="430.38" y="1448" type="line"/>
      <point x="678.38" y="1448" type="line"/>
      <point x="643.38" y="1247" type="line"/>
      <point x="911.38" y="1247" type="line"/>
      <point x="905.38" y="1215" type="line"/>
      <point x="637.38" y="1215" type="line"/>
      <point x="596.38" y="978" type="line"/>
      <point x="609.38" y="992"/>
      <point x="650.38" y="1006"/>
      <point x="677.38" y="1006" type="qcurve" smooth="yes"/>
      <point x="1067.38" y="1006" type="line" smooth="yes"/>
      <point x="1152.38" y="1006"/>
      <point x="1267.38" y="978"/>
      <point x="1333.38" y="918"/>
      <point x="1353.38" y="823"/>
      <point x="1341.38" y="756" type="qcurve" smooth="yes"/>
      <point x="1209.38" y="0" type="line"/>
      <point x="961.38" y="0" type="line"/>
      <point x="1131.38" y="974" type="line"/>
      <point x="1131.38" y="974"/>
      <point x="1131.38" y="974"/>
      <point x="1131.38" y="974" type="qcurve"/>
      <point x="595.38" y="974" type="line"/>
      <point x="425.38" y="0" type="line"/>
    </contour>
  </outline>
  <guideline y="1231" color="1,0,0,1"/>
  <guideline x="862" y="974" angle="260.092" color="1,0,0,1"/>
</glyph>
<glyph name="dotlessi" format="2">
  <advance width="638"/>
  <unicode hex="0131"/>
  <anchor x="172" y="-150" name="bottom"/>
  <anchor x="399" y="1150" name="top"/>
  <anchor x="113" y="0" name="ogonek"/>
  <outline>
    <contour>
      <point x="76.4692" y="0" type="line"/>
      <point x="320.469" y="0" type="line"/>
      <point x="495.469" y="1000" type="line"/>
      <point x="251.469" y="1000" type="line"/>
    </contour>
  </outline>
</glyph>
<glyph name="Lslash" format="2">
  <advance width="1402"/>
  <unicode hex="0141"/>
  <outline>
    <contour>
      <point x="100" y="0" type="line"/>
      <point x="198" y="562" type="line"/>
      <point x="9" y="497" type="line"/>
      <point x="15" y="536" type="line"/>
      <point x="204" y="601" type="line"/>
      <point x="344" y="1400" type="line"/>
      <point x="608" y="1400" type="line"/>
      <point x="485" y="697" type="line"/>
      <point x="1022" y="881" type="line"/>
      <point x="1016" y="842" type="line"/>
      <point x="479" y="658" type="line"/>
      <point x="370" y="36" type="line"/>
      <point x="1278" y="36" type="line"/>
      <point x="1272" y="0" type="line"/>
    </contour>
  </outline>
</glyph>
<glyph name="lslash" format="2">
  <advance width="644"/>
  <unicode hex="0142"/>
  <outline>
    <contour>
      <point x="78" y="0" type="line"/>
      <point x="326" y="0" type="line"/>
      <point x="579" y="1448" type="line"/>
      <point x="331" y="1448" type="line"/>
    </contour>
    <contour>
      <point x="626" y="827" type="line"/>
      <point x="31" y="623" type="line"/>
      <point x="24" y="587" type="line"/>
      <point x="620" y="791" type="line"/>
    </contour>
  </outline>
  <guideline y="724"/>
</glyph>
<glyph name="Eng" format="2">
  <advance width="1678"/>
  <unicode hex="014A"/>
  <outline>
    <contour>
      <point x="100" y="0" type="line"/>
      <point x="136" y="0" type="line"/>
      <point x="324" y="1080" type="line"/>
      <point x="1286" y="-90" type="line"/>
      <point x="1338" y="0" type="line"/>
      <point x="1582" y="1400" type="line"/>
      <point x="1546" y="1400" type="line"/>
      <point x="1352" y="284" type="line"/>
      <point x="430" y="1400" type="line"/>
      <point x="344" y="1400" type="line"/>
    </contour>
    <contour>
      <point x="649" y="-396" type="line"/>
      <point x="653" y="-428" type="line"/>
      <point x="1097" y="-428" type="line" smooth="yes"/>
      <point x="1137" y="-428"/>
      <point x="1202" y="-406"/>
      <point x="1252" y="-364"/>
      <point x="1284" y="-303"/>
      <point x="1291" y="-263" type="qcurve" smooth="yes"/>
      <point x="1338" y="0" type="line"/>
      <point x="1302" y="0" type="line"/>
      <point x="1256" y="-260" type="line" smooth="yes"/>
      <point x="1244" y="-326"/>
      <point x="1169" y="-396"/>
      <point x="1103" y="-396" type="qcurve" smooth="yes"/>
    </contour>
  </outline>
  <guideline x="846"/>
  <guideline x="631"/>
</glyph>
<glyph name="eng" format="2">
  <advance width="1425"/>
  <unicode hex="014B"/>
  <anchor x="1020" y="1150" name="top"/>
  <anchor x="566" y="-150" name="bottom"/>
  <anchor x="64" y="504" name="left"/>
  <outline>
    <contour>
      <point x="76" y="0" type="line"/>
      <point x="324" y="0" type="line"/>
      <point x="494" y="974" type="line"/>
      <point x="1030" y="974" type="line"/>
      <point x="1030" y="974"/>
      <point x="1030" y="974"/>
      <point x="1030" y="974" type="qcurve"/>
      <point x="791" y="-396" type="line"/>
      <point x="791" y="-396"/>
      <point x="791" y="-396"/>
      <point x="791" y="-396" type="qcurve"/>
      <point x="517" y="-396" type="line"/>
      <point x="517" y="-428" type="line"/>
      <point x="719" y="-428" type="line" smooth="yes"/>
      <point x="804" y="-428"/>
      <point x="924" y="-420"/>
      <point x="1008" y="-372"/>
      <point x="1061" y="-269"/>
      <point x="1078" y="-174" type="qcurve" smooth="yes"/>
      <point x="1240" y="756" type="line" smooth="yes"/>
      <point x="1252" y="823"/>
      <point x="1232" y="918"/>
      <point x="1166" y="978"/>
      <point x="1051" y="1006"/>
      <point x="966" y="1006" type="qcurve" smooth="yes"/>
      <point x="576" y="1006" type="line" smooth="yes"/>
      <point x="549" y="1006"/>
      <point x="508" y="992"/>
      <point x="495" y="978" type="qcurve"/>
      <point x="499" y="1000" type="line"/>
      <point x="251" y="1000" type="line"/>
    </contour>
  </outline>
  <guideline angle="260.07" color="1,0,0,1" x="592" y="-0"/>
  <guideline angle="260.134" color="1,0,0,1" x="200" y="-0"/>
</glyph>
<glyph name="OE" format="2">
  <advance width="2645.52"/>
  <unicode hex="0152"/>
  <outline>
    <contour>
      <point x="411" y="0" type="line"/>
      <point x="2515" y="0" type="line"/>
      <point x="2520" y="26" type="line"/>
      <point x="1526" y="26" type="line"/>
      <point x="1643" y="700" type="line"/>
      <point x="2231" y="700" type="line"/>
      <point x="2237" y="736" type="line"/>
      <point x="1649" y="736" type="line"/>
      <point x="1761" y="1374" type="line"/>
      <point x="2735" y="1374" type="line"/>
      <point x="2739" y="1400" type="line"/>
      <point x="655" y="1400" type="line" smooth="yes"/>
      <point x="580" y="1400"/>
      <point x="451" y="1382"/>
      <point x="351" y="1325"/>
      <point x="282" y="1222"/>
      <point x="267" y="1136" type="qcurve" smooth="yes"/>
      <point x="117" y="276" type="line" smooth="yes"/>
      <point x="102" y="188"/>
      <point x="130" y="80"/>
      <point x="208" y="20"/>
      <point x="331" y="0"/>
      <point x="411" y="0" type="qcurve"/>
    </contour>
    <contour>
      <point x="1262" y="26" type="line"/>
      <point x="338" y="26" type="line"/>
      <point x="338" y="26"/>
      <point x="338" y="26"/>
      <point x="338" y="26"/>
      <point x="338" y="26"/>
      <point x="338" y="26" type="qcurve"/>
      <point x="573" y="1374" type="line"/>
      <point x="573" y="1374"/>
      <point x="573" y="1374"/>
      <point x="573" y="1374"/>
      <point x="573" y="1374"/>
      <point x="573" y="1374" type="qcurve"/>
      <point x="1497" y="1374" type="line"/>
    </contour>
  </outline>
  <guideline angle="260.096" color="1,0,0,1" x="1497.45" y="1374"/>
</glyph>
<glyph name="oe" format="2">
  <advance width="2148"/>
  <unicode hex="0153"/>
  <anchor x="1956" y="1150" name="top"/>
  <anchor x="1729" y="-150" name="bottom"/>
  <outline>
    <contour>
      <point x="323" y="-6" type="line"/>
      <point x="829" y="-6" type="line" smooth="yes"/>
      <point x="874" y="-6"/>
      <point x="941" y="27"/>
      <point x="964" y="57" type="qcurve"/>
      <point x="977" y="27"/>
      <point x="1032" y="-6"/>
      <point x="1077" y="-6" type="qcurve" smooth="yes"/>
      <point x="1577" y="-6" type="line" smooth="yes"/>
      <point x="1634" y="-6"/>
      <point x="1736" y="11"/>
      <point x="1817" y="56"/>
      <point x="1874" y="135"/>
      <point x="1885" y="198" type="qcurve" smooth="yes"/>
      <point x="1896" y="262" type="line"/>
      <point x="1656" y="308" type="line"/>
      <point x="1607" y="26" type="line"/>
      <point x="1607" y="26"/>
      <point x="1607" y="26"/>
      <point x="1607" y="26" type="qcurve"/>
      <point x="1083" y="26" type="line"/>
      <point x="1083" y="26"/>
      <point x="1083" y="26"/>
      <point x="1083" y="26" type="qcurve"/>
      <point x="1165" y="497" type="line"/>
      <point x="1945" y="497" type="line"/>
      <point x="1999" y="810" type="line" smooth="yes"/>
      <point x="2010" y="871"/>
      <point x="1979" y="947"/>
      <point x="1912" y="990"/>
      <point x="1816" y="1006"/>
      <point x="1762" y="1006" type="qcurve" smooth="yes"/>
      <point x="1254" y="1006" type="line" smooth="yes"/>
      <point x="1209" y="1006"/>
      <point x="1142" y="974"/>
      <point x="1119" y="944" type="qcurve"/>
      <point x="1106" y="974"/>
      <point x="1051" y="1006"/>
      <point x="1006" y="1006" type="qcurve" smooth="yes"/>
      <point x="500" y="1006" type="line" smooth="yes"/>
      <point x="445" y="1006"/>
      <point x="343" y="990"/>
      <point x="260" y="947"/>
      <point x="202" y="871"/>
      <point x="191" y="810" type="qcurve" smooth="yes"/>
      <point x="85" y="198" type="line" smooth="yes"/>
      <point x="74" y="135"/>
      <point x="102" y="56"/>
      <point x="168" y="11"/>
      <point x="265" y="-6"/>
      <point x="323" y="-6" type="qcurve"/>
    </contour>
    <contour>
      <point x="1702" y="529" type="line"/>
      <point x="1170" y="529" type="line"/>
      <point x="1248" y="974" type="line"/>
      <point x="1248" y="974"/>
      <point x="1248" y="974"/>
      <point x="1248" y="974" type="qcurve"/>
      <point x="1780" y="974" type="line"/>
      <point x="1780" y="974"/>
      <point x="1780" y="974"/>
      <point x="1780" y="974" type="qcurve"/>
    </contour>
    <contour>
      <point x="303" y="26" type="line"/>
      <point x="468" y="974" type="line"/>
      <point x="468" y="974"/>
      <point x="468" y="974"/>
      <point x="468" y="974" type="qcurve"/>
      <point x="1000" y="974" type="line"/>
      <point x="1000" y="974"/>
      <point x="1000" y="974"/>
      <point x="1000" y="974" type="qcurve"/>
      <point x="835" y="26" type="line"/>
      <point x="835" y="26"/>
      <point x="835" y="26"/>
      <point x="835" y="26" type="qcurve"/>
      <point x="303" y="26" type="line"/>
      <point x="303" y="26"/>
      <point x="303" y="26"/>
      <point x="303" y="26" type="qcurve"/>
    </contour>
  </outline>
  <guideline x="954" y="-0" angle="260.11" color="1,0,0,1"/>
</glyph>
<glyph name="uni018F" format="2">
  <advance width="1769"/>
  <unicode hex="018F"/>
  <anchor x="1032" y="1560" name="top"/>
  <anchor x="732" y="-160" name="bottom"/>
  <outline>
    <contour>
      <point x="343.429" y="-10" type="line" smooth="yes"/>
      <point x="270.429" y="-10"/>
      <point x="167.429" y="12"/>
      <point x="107.429" y="67"/>
      <point x="89.4289" y="163"/>
      <point x="102.429" y="236" type="qcurve" smooth="yes"/>
      <point x="183.429" y="700" type="line"/>
      <point x="1318.43" y="700" type="line"/>
      <point x="1435.43" y="1374" type="line"/>
      <point x="1435.43" y="1374"/>
      <point x="1435.43" y="1374"/>
      <point x="1435.43" y="1374"/>
      <point x="1435.43" y="1374"/>
      <point x="1435.43" y="1374" type="qcurve"/>
      <point x="571.429" y="1374" type="line"/>
      <point x="571.429" y="1374"/>
      <point x="571.429" y="1374"/>
      <point x="571.429" y="1374"/>
      <point x="571.429" y="1374"/>
      <point x="571.429" y="1374" type="qcurve"/>
      <point x="502.429" y="980" type="line"/>
      <point x="246.429" y="1038" type="line"/>
      <point x="270.429" y="1176" type="line" smooth="yes"/>
      <point x="282.429" y="1247"/>
      <point x="334.429" y="1338"/>
      <point x="414.429" y="1390"/>
      <point x="523.429" y="1410"/>
      <point x="593.429" y="1410" type="qcurve" smooth="yes"/>
      <point x="1423.43" y="1410" type="line" smooth="yes"/>
      <point x="1494.43" y="1410"/>
      <point x="1596.43" y="1390"/>
      <point x="1657.43" y="1338"/>
      <point x="1676.43" y="1247"/>
      <point x="1664.43" y="1176" type="qcurve" smooth="yes"/>
      <point x="1500.43" y="236" type="line" smooth="yes"/>
      <point x="1487.43" y="163"/>
      <point x="1437.43" y="68"/>
      <point x="1358.43" y="12"/>
      <point x="1248.43" y="-10"/>
      <point x="1175.43" y="-10" type="qcurve" smooth="yes"/>
    </contour>
    <contour>
      <point x="441.429" y="664" type="line"/>
      <point x="330.429" y="26" type="line"/>
      <point x="330.429" y="26"/>
      <point x="330.429" y="26"/>
      <point x="330.429" y="26"/>
      <point x="330.429" y="26"/>
      <point x="330.429" y="26" type="qcurve"/>
      <point x="1200.43" y="26" type="line"/>
      <point x="1200.43" y="26"/>
      <point x="1200.43" y="26"/>
      <point x="1200.43" y="26"/>
      <point x="1200.43" y="26"/>
      <point x="1200.43" y="26" type="qcurve"/>
      <point x="1311.43" y="664" type="line"/>
    </contour>
  </outline>
</glyph>
<glyph name="florin" format="2">
  <advance width="1301"/>
  <unicode hex="0192"/>
  <outline>
    <contour>
      <point x="-195" y="-428" type="line"/>
      <point x="-174" y="-396" type="line"/>
      <point x="178" y="-396" type="line"/>
      <point x="178" y="-396"/>
      <point x="178" y="-396"/>
      <point x="178" y="-396" type="qcurve"/>
      <point x="601" y="808" type="line"/>
      <point x="459" y="808" type="line"/>
      <point x="470" y="840" type="line"/>
      <point x="612" y="840" type="line"/>
      <point x="736" y="1194" type="line" smooth="yes"/>
      <point x="759" y="1261"/>
      <point x="828" y="1357"/>
      <point x="915" y="1419"/>
      <point x="1021" y="1448"/>
      <point x="1082" y="1448" type="qcurve" smooth="yes"/>
      <point x="1436" y="1448" type="line"/>
      <point x="1414" y="1416" type="line"/>
      <point x="1062" y="1416" type="line"/>
      <point x="1062" y="1416"/>
      <point x="1062" y="1416"/>
      <point x="1062" y="1416" type="qcurve"/>
      <point x="860" y="840" type="line"/>
      <point x="1162" y="840" type="line"/>
      <point x="1151" y="808" type="line"/>
      <point x="849" y="808" type="line"/>
      <point x="505" y="-174" type="line" smooth="yes"/>
      <point x="471" y="-269"/>
      <point x="400" y="-372"/>
      <point x="308" y="-420"/>
      <point x="186" y="-428"/>
      <point x="101" y="-428" type="qcurve" smooth="yes"/>
    </contour>
  </outline>
</glyph>
<glyph name="uni0237" format="2">
  <advance width="643"/>
  <unicode hex="0237"/>
  <anchor x="405" y="1150" name="top"/>
  <outline>
    <contour>
      <point x="-451.608" y="-396" type="line"/>
      <point x="-451.608" y="-428" type="line"/>
      <point x="-61.6085" y="-428" type="line" smooth="yes"/>
      <point x="23.3915" y="-428"/>
      <point x="143.392" y="-420"/>
      <point x="227.392" y="-372"/>
      <point x="280.392" y="-269"/>
      <point x="297.392" y="-174" type="qcurve" smooth="yes"/>
      <point x="502.392" y="1000" type="line"/>
      <point x="254.392" y="1000" type="line"/>
      <point x="10.3915" y="-396" type="line"/>
      <point x="10.3915" y="-396"/>
      <point x="10.3915" y="-396"/>
      <point x="10.3915" y="-396" type="qcurve"/>
    </contour>
  </outline>
</glyph>
<glyph name="acutecomb" format="2">
  <unicode hex="0301"/>
  <anchor x="81" y="1150" name="_top"/>
  <anchor x="-70" y="1085" name="_topright"/>
  <outline>
    <contour>
      <point x="-110" y="1085" type="line"/>
      <point x="192" y="1448" type="line"/>
      <point x="455" y="1448" type="line"/>
      <point x="-68" y="1085" type="line"/>
    </contour>
  </outline>
</glyph>
<glyph name="uni0302" format="2">
  <unicode hex="0302"/>
  <anchor x="81" y="1150" name="_top"/>
  <anchor x="159" y="1598" name="_bottom"/>
  <anchor x="500" y="1267" name="topright"/>
  <anchor x="150" y="1548" name="top"/>
  <outline>
    <contour>
      <point x="-274" y="1085" type="line"/>
      <point x="77" y="1448" type="line"/>
      <point x="225" y="1448" type="line"/>
      <point x="468" y="1085" type="line"/>
      <point x="240" y="1085" type="line"/>
      <point x="65" y="1395" type="line"/>
      <point x="-232" y="1085" type="line"/>
    </contour>
  </outline>
</glyph>
<glyph name="tildecomb" format="2">
  <unicode hex="0303"/>
  <anchor x="81" y="1150" name="_top"/>
  <anchor x="134" y="1456" name="top"/>
  <outline>
    <contour>
      <point x="-250" y="1146" type="line"/>
      <point x="-224" y="1218"/>
      <point x="-175" y="1316"/>
      <point x="-121" y="1375"/>
      <point x="-59" y="1401"/>
      <point x="-21" y="1401" type="qcurve" smooth="yes"/>
      <point x="12" y="1401"/>
      <point x="70" y="1386"/>
      <point x="123" y="1364"/>
      <point x="172" y="1337"/>
      <point x="222" y="1315"/>
      <point x="275" y="1300"/>
      <point x="304" y="1300" type="qcurve" smooth="yes"/>
      <point x="320" y="1300"/>
      <point x="354" y="1308"/>
      <point x="385" y="1328"/>
      <point x="412" y="1363"/>
      <point x="422" y="1389" type="qcurve"/>
      <point x="452" y="1384" type="line"/>
      <point x="426" y="1311"/>
      <point x="376" y="1214"/>
      <point x="322" y="1155"/>
      <point x="261" y="1130"/>
      <point x="223" y="1130" type="qcurve" smooth="yes"/>
      <point x="190" y="1130"/>
      <point x="132" y="1145"/>
      <point x="79" y="1167"/>
      <point x="30" y="1194"/>
      <point x="-20" y="1216"/>
      <point x="-73" y="1231"/>
      <point x="-102" y="1231" type="qcurve" smooth="yes"/>
      <point x="-118" y="1231"/>
      <point x="-152" y="1223"/>
      <point x="-183" y="1203"/>
      <point x="-211" y="1168"/>
      <point x="-221" y="1142" type="qcurve"/>
    </contour>
  </outline>
  <guideline x="-450"/>
  <guideline x="210"/>
  <guideline x="-420"/>
  <guideline x="180"/>
</glyph>
<glyph name="uni0304" format="2">
  <unicode hex="0304"/>
  <anchor x="81" y="1150" name="_top"/>
  <anchor x="118" y="1366" name="top"/>
  <outline>
    <contour>
      <point x="-230" y="1234" type="line"/>
      <point x="420" y="1234" type="line"/>
      <point x="426" y="1266" type="line"/>
      <point x="-224" y="1266" type="line"/>
    </contour>
  </outline>
</glyph>
<glyph name="uni0306" format="2">
  <unicode hex="0306"/>
  <anchor x="81" y="1150" name="_top"/>
  <anchor x="144" y="1510" name="top"/>
  <outline>
    <contour>
      <point x="-162" y="1410" type="line"/>
      <point x="-178" y="1319"/>
      <point x="-172" y="1200"/>
      <point x="-118" y="1130"/>
      <point x="-11" y="1103"/>
      <point x="75" y="1103" type="qcurve" smooth="yes"/>
      <point x="160" y="1103"/>
      <point x="276" y="1130"/>
      <point x="354" y="1200"/>
      <point x="400" y="1319"/>
      <point x="416" y="1410" type="qcurve"/>
      <point x="261" y="1410" type="line"/>
      <point x="245" y="1314"/>
      <point x="214" y="1205"/>
      <point x="175" y="1149"/>
      <point x="121" y="1135"/>
      <point x="80" y="1135" type="qcurve" smooth="yes"/>
      <point x="38" y="1135"/>
      <point x="-12" y="1149"/>
      <point x="-32" y="1205"/>
      <point x="-24" y="1314"/>
      <point x="-7" y="1410" type="qcurve"/>
    </contour>
  </outline>
</glyph>
<glyph name="uni0308" format="2">
  <unicode hex="0308"/>
  <anchor x="81" y="1150" name="_top"/>
  <anchor x="151" y="1550" name="_bottom"/>
  <anchor x="133" y="1450" name="top"/>
  <outline>
    <contour>
      <point x="-224" y="1240" type="line" smooth="yes"/>
      <point x="-230" y="1207"/>
      <point x="-232" y="1171"/>
      <point x="-218" y="1153"/>
      <point x="-182" y="1150"/>
      <point x="-149" y="1150" type="qcurve" smooth="yes"/>
      <point x="-89" y="1150" type="line" smooth="yes"/>
      <point x="-56" y="1150"/>
      <point x="-19" y="1153"/>
      <point x="1" y="1171"/>
      <point x="10" y="1207"/>
      <point x="16" y="1240" type="qcurve" smooth="yes"/>
      <point x="27" y="1302" type="line" smooth="yes"/>
      <point x="33" y="1334"/>
      <point x="36" y="1370"/>
      <point x="22" y="1387"/>
      <point x="-14" y="1390"/>
      <point x="-47" y="1390" type="qcurve" smooth="yes"/>
      <point x="-107" y="1390" type="line" smooth="yes"/>
      <point x="-140" y="1390"/>
      <point x="-177" y="1387"/>
      <point x="-198" y="1370"/>
      <point x="-207" y="1334"/>
      <point x="-213" y="1302" type="qcurve" smooth="yes"/>
    </contour>
    <contour>
      <point x="176" y="1240" type="line" smooth="yes"/>
      <point x="170" y="1207"/>
      <point x="168" y="1171"/>
      <point x="182" y="1153"/>
      <point x="218" y="1150"/>
      <point x="251" y="1150" type="qcurve" smooth="yes"/>
      <point x="311" y="1150" type="line" smooth="yes"/>
      <point x="344" y="1150"/>
      <point x="381" y="1153"/>
      <point x="401" y="1171"/>
      <point x="410" y="1207"/>
      <point x="416" y="1240" type="qcurve" smooth="yes"/>
      <point x="427" y="1302" type="line" smooth="yes"/>
      <point x="433" y="1334"/>
      <point x="436" y="1370"/>
      <point x="422" y="1387"/>
      <point x="386" y="1390"/>
      <point x="353" y="1390" type="qcurve" smooth="yes"/>
      <point x="293" y="1390" type="line" smooth="yes"/>
      <point x="260" y="1390"/>
      <point x="223" y="1387"/>
      <point x="202" y="1370"/>
      <point x="193" y="1334"/>
      <point x="187" y="1302" type="qcurve" smooth="yes"/>
    </contour>
  </outline>
</glyph>
<glyph name="uni0309" format="2">
  <unicode hex="0309"/>
  <anchor x="58" y="1150" name="_top"/>
  <anchor x="55" y="1100" name="_topright"/>
  <outline>
    <contour>
      <point x="-5" y="1100" type="line"/>
      <point x="107" y="1100" type="line"/>
      <point x="137" y="1114"/>
      <point x="199" y="1145"/>
      <point x="251" y="1185"/>
      <point x="288" y="1236"/>
      <point x="294" y="1270" type="qcurve" smooth="yes"/>
      <point x="300" y="1303"/>
      <point x="281" y="1356"/>
      <point x="236" y="1393"/>
      <point x="167" y="1413"/>
      <point x="124" y="1413" type="qcurve" smooth="yes"/>
      <point x="93" y="1413"/>
      <point x="39" y="1405"/>
      <point x="-8" y="1393"/>
      <point x="-48" y="1376"/>
      <point x="-63" y="1367" type="qcurve"/>
      <point x="-53" y="1342" type="line"/>
      <point x="-36" y="1353"/>
      <point x="12" y="1369"/>
      <point x="36" y="1369" type="qcurve" smooth="yes"/>
      <point x="73" y="1369"/>
      <point x="117" y="1320"/>
      <point x="107" y="1265" type="qcurve" smooth="yes"/>
      <point x="100" y="1222"/>
      <point x="40" y="1137"/>
      <point x="-5" y="1100" type="qcurve"/>
    </contour>
  </outline>
</glyph>
<glyph name="uni030A" format="2">
  <unicode hex="030A"/>
  <anchor x="77" y="1150" name="_top"/>
  <anchor x="145" y="1540" name="top"/>
  <outline>
    <contour>
      <point x="-102" y="1267" type="line"/>
      <point x="-111" y="1216"/>
      <point x="-108" y="1152"/>
      <point x="-71" y="1116"/>
      <point x="5" y="1103"/>
      <point x="68" y="1103" type="qcurve" smooth="yes"/>
      <point x="131" y="1103"/>
      <point x="212" y="1116"/>
      <point x="261" y="1152"/>
      <point x="287" y="1216"/>
      <point x="296" y="1267" type="qcurve" smooth="yes"/>
      <point x="305" y="1318"/>
      <point x="302" y="1382"/>
      <point x="265" y="1418"/>
      <point x="189" y="1430"/>
      <point x="126" y="1430" type="qcurve" smooth="yes"/>
      <point x="63" y="1430"/>
      <point x="-18" y="1418"/>
      <point x="-67" y="1382"/>
      <point x="-93" y="1318"/>
      <point x="-102" y="1267" type="qcurve"/>
    </contour>
    <contour>
      <point x="25" y="1267" type="line"/>
      <point x="33" y="1312"/>
      <point x="47" y="1365"/>
      <point x="67" y="1393"/>
      <point x="97" y="1401"/>
      <point x="121" y="1401" type="qcurve" smooth="yes"/>
      <point x="146" y="1401"/>
      <point x="173" y="1393"/>
      <point x="182" y="1365"/>
      <point x="177" y="1312"/>
      <point x="169" y="1267" type="qcurve" smooth="yes"/>
      <point x="161" y="1222"/>
      <point x="147" y="1168"/>
      <point x="127" y="1139"/>
      <point x="97" y="1131"/>
      <point x="73" y="1131" type="qcurve" smooth="yes"/>
      <point x="53" y="1131"/>
      <point x="27" y="1139"/>
      <point x="15" y="1168"/>
      <point x="17" y="1222"/>
      <point x="25" y="1267" type="qcurve"/>
    </contour>
  </outline>
</glyph>
<glyph name="uni031B" format="2">
  <unicode hex="031B"/>
  <anchor x="55" y="1000" name="_horn"/>
  <outline>
    <contour>
      <point x="49" y="970" type="line"/>
      <point x="145" y="970"/>
      <point x="278" y="999"/>
      <point x="366" y="1058"/>
      <point x="414" y="1148"/>
      <point x="424" y="1208" type="qcurve" smooth="yes"/>
      <point x="430" y="1244"/>
      <point x="433" y="1328"/>
      <point x="430" y="1377" type="qcurve"/>
      <point x="239" y="1342" type="line"/>
      <point x="238" y="1294"/>
      <point x="232" y="1213"/>
      <point x="226" y="1179" type="qcurve" smooth="yes"/>
      <point x="218" y="1131"/>
      <point x="190" y="1064"/>
      <point x="148" y="1020"/>
      <point x="92" y="1000"/>
      <point x="55" y="1000" type="qcurve"/>
    </contour>
  </outline>
</glyph>
<glyph name="uni0327" format="2">
  <unicode hex="0327"/>
  <anchor x="-26" y="-150" name="_bottom"/>
  <outline>
    <contour>
      <point x="-32" y="0" type="line"/>
      <point x="-139" y="-161" type="line"/>
      <point x="-118" y="-147"/>
      <point x="-91" y="-138"/>
      <point x="-80" y="-138" type="qcurve" smooth="yes"/>
      <point x="-63" y="-138"/>
      <point x="-38" y="-154"/>
      <point x="-25" y="-186"/>
      <point x="-23" y="-235"/>
      <point x="-29" y="-268" type="qcurve" smooth="yes"/>
      <point x="-35" y="-301"/>
      <point x="-55" y="-353"/>
      <point x="-80" y="-390"/>
      <point x="-111" y="-409"/>
      <point x="-128" y="-409" type="qcurve" smooth="yes"/>
      <point x="-150" y="-409"/>
      <point x="-188" y="-383"/>
      <point x="-198" y="-366" type="qcurve"/>
      <point x="-225" y="-382" type="line"/>
      <point x="-215" y="-396"/>
      <point x="-189" y="-417"/>
      <point x="-156" y="-431"/>
      <point x="-113" y="-438"/>
      <point x="-87" y="-438" type="qcurve" smooth="yes"/>
      <point x="-41" y="-438"/>
      <point x="37" y="-416"/>
      <point x="97" y="-373"/>
      <point x="138" y="-308"/>
      <point x="145" y="-265" type="qcurve" smooth="yes"/>
      <point x="152" y="-226"/>
      <point x="130" y="-167"/>
      <point x="78" y="-128"/>
      <point x="1" y="-108"/>
      <point x="-47" y="-108" type="qcurve"/>
      <point x="22" y="0" type="line"/>
    </contour>
  </outline>
</glyph>
<glyph name="uni0328" format="2">
  <unicode hex="0328"/>
  <anchor x="-26" y="-150" name="_bottom"/>
  <anchor x="-2" y="0" name="_ogonek"/>
  <outline>
    <contour>
      <point x="-2" y="0" type="line"/>
      <point x="-17" y="-13"/>
      <point x="-42" y="-42"/>
      <point x="-61" y="-73"/>
      <point x="-74" y="-106"/>
      <point x="-77" y="-122" type="qcurve" smooth="yes"/>
      <point x="-82" y="-149"/>
      <point x="-70" y="-193"/>
      <point x="-39" y="-224"/>
      <point x="9" y="-240"/>
      <point x="41" y="-240" type="qcurve" smooth="yes"/>
      <point x="56" y="-240"/>
      <point x="86" y="-236"/>
      <point x="116" y="-229"/>
      <point x="146" y="-218"/>
      <point x="162" y="-210" type="qcurve"/>
      <point x="96" y="-379" type="line"/>
      <point x="72" y="-399"/>
      <point x="-4" y="-421"/>
      <point x="-46" y="-421" type="qcurve" smooth="yes"/>
      <point x="-95" y="-421"/>
      <point x="-173" y="-390"/>
      <point x="-224" y="-334"/>
      <point x="-245" y="-258"/>
      <point x="-237" y="-213" type="qcurve"/>
      <point x="-215" y="-189"/>
      <point x="-164" y="-134"/>
      <point x="-112" y="-79"/>
      <point x="-61" y="-24"/>
      <point x="-39" y="0" type="qcurve"/>
    </contour>
  </outline>
</glyph>
<glyph name="uni0402" format="2">
  <advance width="1979"/>
  <unicode hex="0402"/>
  <outline>
    <contour>
      <point x="447" y="0" type="line"/>
      <point x="711" y="0" type="line"/>
      <point x="861" y="862" type="line"/>
      <point x="1373" y="862" type="line" smooth="yes"/>
      <point x="1430" y="862"/>
      <point x="1512" y="833"/>
      <point x="1561" y="781"/>
      <point x="1579" y="707"/>
      <point x="1571" y="662" type="qcurve" smooth="yes"/>
      <point x="1496" y="236" type="line" smooth="yes"/>
      <point x="1488" y="191"/>
      <point x="1445" y="117"/>
      <point x="1378" y="65"/>
      <point x="1286" y="36"/>
      <point x="1229" y="36" type="qcurve" smooth="yes"/>
      <point x="1034" y="36" type="line"/>
      <point x="1028" y="0" type="line"/>
      <point x="1375" y="0" type="line" smooth="yes"/>
      <point x="1451" y="0"/>
      <point x="1581" y="22"/>
      <point x="1683" y="82"/>
      <point x="1752" y="189"/>
      <point x="1767" y="274" type="qcurve" smooth="yes"/>
      <point x="1828" y="624" type="line" smooth="yes"/>
      <point x="1843" y="710"/>
      <point x="1811" y="817"/>
      <point x="1730" y="877"/>
      <point x="1608" y="898"/>
      <point x="1532" y="898" type="qcurve" smooth="yes"/>
      <point x="868" y="898" type="line"/>
      <point x="949" y="1364" type="line"/>
      <point x="1503" y="1364" type="line"/>
      <point x="1509" y="1400" type="line"/>
      <point x="137" y="1400" type="line"/>
      <point x="131" y="1364" type="line"/>
      <point x="685" y="1364" type="line"/>
    </contour>
  </outline>
  <guideline x="685" y="1364" angle="260.085" color="1,0,0,1"/>
</glyph>
<glyph name="uni0404" format="2">
  <advance width="1723"/>
  <unicode hex="0404"/>
  <anchor x="1035" y="1550" name="top"/>
  <outline>
    <contour>
      <point x="349.505" y="-10" type="line"/>
      <point x="1171.5" y="-10" type="line" smooth="yes"/>
      <point x="1244.5" y="-10"/>
      <point x="1355.5" y="12"/>
      <point x="1434.5" y="67"/>
      <point x="1485.5" y="163"/>
      <point x="1498.5" y="236" type="qcurve" smooth="yes"/>
      <point x="1525.5" y="389" type="line"/>
      <point x="1255.5" y="445" type="line"/>
      <point x="1182.5" y="30" type="line"/>
      <point x="1182.5" y="30"/>
      <point x="1182.5" y="30"/>
      <point x="1182.5" y="30"/>
      <point x="1182.5" y="30"/>
      <point x="1182.5" y="30" type="qcurve"/>
      <point x="354.505" y="30" type="line"/>
      <point x="354.505" y="30"/>
      <point x="354.505" y="30"/>
      <point x="354.505" y="30"/>
      <point x="354.505" y="30"/>
      <point x="354.505" y="30" type="qcurve"/>
      <point x="471.505" y="700" type="line"/>
      <point x="1163.5" y="700" type="line"/>
      <point x="1169.5" y="736" type="line"/>
      <point x="477.505" y="736" type="line"/>
      <point x="588.505" y="1370" type="line"/>
      <point x="588.505" y="1370"/>
      <point x="588.505" y="1370"/>
      <point x="588.505" y="1370"/>
      <point x="588.505" y="1370"/>
      <point x="588.505" y="1370" type="qcurve"/>
      <point x="1412.5" y="1370" type="line"/>
      <point x="1412.5" y="1370"/>
      <point x="1412.5" y="1370"/>
      <point x="1412.5" y="1370"/>
      <point x="1412.5" y="1370"/>
      <point x="1412.5" y="1370" type="qcurve"/>
      <point x="1345.5" y="986" type="line"/>
      <point x="1634.5" y="1038" type="line"/>
      <point x="1658.5" y="1176" type="line" smooth="yes"/>
      <point x="1670.5" y="1247"/>
      <point x="1650.5" y="1338"/>
      <point x="1589.5" y="1390"/>
      <point x="1487.5" y="1410"/>
      <point x="1417.5" y="1410" type="qcurve" smooth="yes"/>
      <point x="597.505" y="1410" type="line" smooth="yes"/>
      <point x="527.505" y="1410"/>
      <point x="417.505" y="1390"/>
      <point x="338.505" y="1338"/>
      <point x="286.505" y="1247"/>
      <point x="274.505" y="1176" type="qcurve" smooth="yes"/>
      <point x="110.505" y="236" type="line" smooth="yes"/>
      <point x="97.5048" y="163"/>
      <point x="114.505" y="68"/>
      <point x="174.505" y="12"/>
      <point x="276.505" y="-10"/>
      <point x="349.505" y="-10" type="qcurve"/>
    </contour>
  </outline>
  <guideline x="972" y="-0" angle="260.074" color="1,0,0,1"/>
</glyph>
<glyph name="uni040A" format="2">
  <advance width="2546"/>
  <unicode hex="040A"/>
  <outline>
    <contour>
      <point x="100" y="0" type="line"/>
      <point x="364" y="0" type="line"/>
      <point x="494" y="742" type="line"/>
      <point x="1257" y="742" type="line"/>
      <point x="1127" y="0" type="line"/>
      <point x="1950" y="0" type="line" smooth="yes"/>
      <point x="2022" y="0"/>
      <point x="2149" y="21"/>
      <point x="2250" y="81"/>
      <point x="2319" y="188"/>
      <point x="2334" y="273" type="qcurve" smooth="yes"/>
      <point x="2374" y="505" type="line" smooth="yes"/>
      <point x="2389" y="591"/>
      <point x="2357" y="697"/>
      <point x="2278" y="757"/>
      <point x="2158" y="778"/>
      <point x="2086" y="778" type="qcurve" smooth="yes"/>
      <point x="1527" y="778" type="line"/>
      <point x="1635" y="1400" type="line"/>
      <point x="1371" y="1400" type="line"/>
      <point x="1263" y="778" type="line"/>
      <point x="500" y="778" type="line"/>
      <point x="608" y="1400" type="line"/>
      <point x="344" y="1400" type="line"/>
    </contour>
    <contour>
      <point x="1397" y="36" type="line"/>
      <point x="1521" y="742" type="line"/>
      <point x="1924" y="742" type="line" smooth="yes"/>
      <point x="1980" y="742"/>
      <point x="2060" y="714"/>
      <point x="2108" y="661"/>
      <point x="2125" y="588"/>
      <point x="2117" y="543" type="qcurve" smooth="yes"/>
      <point x="2063" y="235" type="line" smooth="yes"/>
      <point x="2055" y="190"/>
      <point x="2013" y="117"/>
      <point x="1946" y="65"/>
      <point x="1856" y="36"/>
      <point x="1800" y="36" type="qcurve" smooth="yes"/>
    </contour>
  </outline>
</glyph>
<glyph name="uni040F" format="2">
  <advance width="1810"/>
  <unicode hex="040F"/>
  <outline>
    <contour>
      <point x="100" y="0" type="line"/>
      <point x="648" y="0" type="line"/>
      <point x="728" y="-260" type="line"/>
      <point x="878" y="-260" type="line"/>
      <point x="923" y="0" type="line"/>
      <point x="1470" y="0" type="line"/>
      <point x="1714" y="1400" type="line"/>
      <point x="1450" y="1400" type="line"/>
      <point x="1212" y="36" type="line"/>
      <point x="370" y="36" type="line"/>
      <point x="608" y="1400" type="line"/>
      <point x="344" y="1400" type="line"/>
    </contour>
  </outline>
  <guideline angle="260.097" color="1,0,0,1" x="785" y="0"/>
</glyph>
<glyph name="uni0411" format="2">
  <advance width="1632"/>
  <unicode hex="0411"/>
  <outline>
    <contour>
      <point x="100" y="0" type="line"/>
      <point x="1028" y="0" type="line" smooth="yes"/>
      <point x="1104" y="0"/>
      <point x="1234" y="22"/>
      <point x="1336" y="82"/>
      <point x="1405" y="189"/>
      <point x="1420" y="274" type="qcurve" smooth="yes"/>
      <point x="1481" y="624" type="line" smooth="yes"/>
      <point x="1496" y="710"/>
      <point x="1464" y="817"/>
      <point x="1383" y="877"/>
      <point x="1261" y="898"/>
      <point x="1185" y="898" type="qcurve" smooth="yes"/>
      <point x="521" y="898" type="line"/>
      <point x="602" y="1364" type="line"/>
      <point x="1545" y="1364" type="line"/>
      <point x="1551" y="1400" type="line"/>
      <point x="344" y="1400" type="line"/>
    </contour>
    <contour>
      <point x="370" y="36" type="line"/>
      <point x="514" y="862" type="line"/>
      <point x="1026" y="862" type="line" smooth="yes"/>
      <point x="1140" y="862"/>
      <point x="1239" y="752"/>
      <point x="1224" y="662" type="qcurve"/>
      <point x="1149" y="236" type="line" smooth="yes"/>
      <point x="1141" y="191"/>
      <point x="1098" y="117"/>
      <point x="1031" y="65"/>
      <point x="939" y="36"/>
      <point x="882" y="36" type="qcurve" smooth="yes"/>
    </contour>
  </outline>
</glyph>
<glyph name="uni0413" format="2">
  <advance width="1364"/>
  <unicode hex="0413"/>
  <anchor x="940" y="1550" name="top"/>
  <outline>
    <contour>
      <point x="100" y="0" type="line"/>
      <point x="364" y="0" type="line"/>
      <point x="602" y="1364" type="line"/>
      <point x="1475" y="1364" type="line"/>
      <point x="1481" y="1400" type="line"/>
      <point x="344" y="1400" type="line"/>
    </contour>
  </outline>
</glyph>
<glyph name="uni0414" format="2">
  <advance width="1893"/>
  <unicode hex="0414"/>
  <outline>
    <contour>
      <point x="173" y="0" type="line"/>
      <point x="1479" y="0" type="line"/>
      <point x="1562" y="-260" type="line"/>
      <point x="1717" y="-260" type="line"/>
      <point x="1768" y="36" type="line"/>
      <point x="1610" y="36" type="line"/>
      <point x="1156" y="1400" type="line"/>
      <point x="1020" y="1400" type="line"/>
      <point x="104" y="36" type="line"/>
      <point x="-104" y="36" type="line"/>
      <point x="-155" y="-260" type="line"/>
      <point x="0" y="-260" type="line"/>
    </contour>
    <contour>
      <point x="148" y="36" type="line"/>
      <point x="929" y="1202" type="line"/>
      <point x="1300" y="36" type="line"/>
    </contour>
  </outline>
</glyph>
<glyph name="uni0416" format="2">
  <advance width="2217"/>
  <unicode hex="0416"/>
  <anchor x="1259" y="1550" name="top"/>
  <anchor x="962" y="-150" name="bottom"/>
  <outline>
    <contour>
      <point x="-120" y="0" type="line"/>
      <point x="254" y="0" type="line"/>
      <point x="967" y="631" type="line"/>
      <point x="857" y="0" type="line"/>
      <point x="1121" y="0" type="line"/>
      <point x="1231" y="630" type="line"/>
      <point x="1723" y="0" type="line"/>
      <point x="2097" y="0" type="line"/>
      <point x="1431" y="835" type="line"/>
      <point x="2261" y="1400" type="line"/>
      <point x="2202" y="1400" type="line"/>
      <point x="1253" y="754" type="line"/>
      <point x="1365" y="1400" type="line"/>
      <point x="1101" y="1400" type="line"/>
      <point x="988" y="753" type="line"/>
      <point x="263" y="1400" type="line"/>
      <point x="204" y="1400" type="line"/>
      <point x="838" y="835" type="line"/>
    </contour>
  </outline>
</glyph>
<glyph name="uni0417" format="2">
  <advance width="1549.9"/>
  <unicode hex="0417"/>
  <anchor x="971" y="1550" name="top"/>
  <anchor x="679" y="0" name="ogonek"/>
  <outline>
    <contour>
      <point x="97.2111" y="394" type="line"/>
      <point x="73.2111" y="260" type="line" smooth="yes"/>
      <point x="61.2111" y="194"/>
      <point x="84.2111" y="97"/>
      <point x="152.211" y="32"/>
      <point x="266.211" y="0"/>
      <point x="346.211" y="0" type="qcurve" smooth="yes"/>
      <point x="946.211" y="0" type="line" smooth="yes"/>
      <point x="1043.21" y="0"/>
      <point x="1180.21" y="28"/>
      <point x="1271.21" y="92"/>
      <point x="1325.21" y="197"/>
      <point x="1338.21" y="274" type="qcurve" smooth="yes"/>
      <point x="1371.21" y="465" type="line" smooth="yes"/>
      <point x="1380.21" y="519"/>
      <point x="1374.21" y="605"/>
      <point x="1341.21" y="669"/>
      <point x="1280.21" y="711"/>
      <point x="1236.21" y="723" type="qcurve"/>
      <point x="1280.21" y="735"/>
      <point x="1349.21" y="777"/>
      <point x="1401.21" y="839"/>
      <point x="1435.21" y="921"/>
      <point x="1444.21" y="973" type="qcurve" smooth="yes"/>
      <point x="1471.21" y="1126" type="line" smooth="yes"/>
      <point x="1483.21" y="1196"/>
      <point x="1459.21" y="1299"/>
      <point x="1385.21" y="1367"/>
      <point x="1261.21" y="1400"/>
      <point x="1174.21" y="1400" type="qcurve" smooth="yes"/>
      <point x="590.211" y="1400" type="line" smooth="yes"/>
      <point x="500.211" y="1400"/>
      <point x="374.211" y="1375"/>
      <point x="290.211" y="1317"/>
      <point x="241.211" y="1222"/>
      <point x="229.211" y="1152" type="qcurve" smooth="yes"/>
      <point x="200.211" y="988" type="line"/>
      <point x="456.211" y="940" type="line"/>
      <point x="530.211" y="1364" type="line"/>
      <point x="530.211" y="1364"/>
      <point x="530.211" y="1364"/>
      <point x="530.211" y="1364"/>
      <point x="530.211" y="1364"/>
      <point x="530.211" y="1364" type="qcurve"/>
      <point x="1016.21" y="1364" type="line" smooth="yes"/>
      <point x="1074.21" y="1364"/>
      <point x="1157.21" y="1339"/>
      <point x="1206.21" y="1289"/>
      <point x="1222.21" y="1214"/>
      <point x="1213.21" y="1164" type="qcurve" smooth="yes"/>
      <point x="1173.21" y="935" type="line" smooth="yes"/>
      <point x="1165.21" y="889"/>
      <point x="1121.21" y="816"/>
      <point x="1053.21" y="765"/>
      <point x="962.211" y="739"/>
      <point x="907.211" y="739" type="qcurve" smooth="yes"/>
      <point x="639.211" y="739" type="line"/>
      <point x="633.211" y="703" type="line"/>
      <point x="917.211" y="703" type="line" smooth="yes"/>
      <point x="972.211" y="703"/>
      <point x="1053.21" y="676"/>
      <point x="1104.21" y="625"/>
      <point x="1122.21" y="550"/>
      <point x="1114.21" y="503" type="qcurve" smooth="yes"/>
      <point x="1067.21" y="236" type="line" smooth="yes"/>
      <point x="1057.21" y="180"/>
      <point x="1020.21" y="104"/>
      <point x="957.211" y="57"/>
      <point x="865.211" y="36"/>
      <point x="800.211" y="36" type="qcurve" smooth="yes"/>
      <point x="298.211" y="36" type="line"/>
      <point x="298.211" y="36"/>
      <point x="298.211" y="36"/>
      <point x="298.211" y="36"/>
      <point x="298.211" y="36"/>
      <point x="298.211" y="36" type="qcurve"/>
      <point x="369.211" y="442" type="line"/>
    </contour>
  </outline>
</glyph>
<glyph name="uni0418" format="2">
  <advance width="1858"/>
  <unicode hex="0418"/>
  <anchor x="784" y="-150" name="bottom"/>
  <anchor x="1081" y="1550" name="top"/>
  <outline>
    <contour>
      <point x="100" y="0" type="line"/>
      <point x="354" y="0" type="line"/>
      <point x="1484" y="1320" type="line"/>
      <point x="1254" y="0" type="line"/>
      <point x="1518" y="0" type="line"/>
      <point x="1762" y="1400" type="line"/>
      <point x="1508" y="1400" type="line"/>
      <point x="377" y="73" type="line"/>
      <point x="608" y="1400" type="line"/>
      <point x="344" y="1400" type="line"/>
    </contour>
  </outline>
</glyph>
<glyph name="uni0423" format="2">
  <advance width="1720"/>
  <unicode hex="0423"/>
  <anchor x="995" y="1550" name="top"/>
  <outline>
    <contour>
      <point x="392.151" y="-18" type="line"/>
      <point x="1048.15" y="-18" type="line" smooth="yes"/>
      <point x="1128.15" y="-18"/>
      <point x="1259.15" y="0"/>
      <point x="1357.15" y="51"/>
      <point x="1420.15" y="140"/>
      <point x="1432.15" y="210" type="qcurve" smooth="yes"/>
      <point x="1639.15" y="1400" type="line"/>
      <point x="1375.15" y="1400" type="line"/>
      <point x="1237.15" y="608" type="line"/>
      <point x="453.151" y="608" type="line"/>
      <point x="453.151" y="608"/>
      <point x="453.151" y="608"/>
      <point x="453.151" y="608"/>
      <point x="453.151" y="608"/>
      <point x="453.151" y="608" type="qcurve"/>
      <point x="591.151" y="1400" type="line"/>
      <point x="327.151" y="1400" type="line"/>
      <point x="223.151" y="804" type="line" smooth="yes"/>
      <point x="211.151" y="733"/>
      <point x="242.151" y="642"/>
      <point x="322.151" y="591"/>
      <point x="446.151" y="572"/>
      <point x="525.151" y="572" type="qcurve" smooth="yes"/>
      <point x="1231.15" y="572" type="line"/>
      <point x="1134.15" y="18" type="line"/>
      <point x="1134.15" y="18"/>
      <point x="1134.15" y="18"/>
      <point x="1134.15" y="18"/>
      <point x="1134.15" y="18"/>
      <point x="1134.15" y="18" type="qcurve"/>
      <point x="320.151" y="18" type="line"/>
      <point x="320.151" y="18"/>
      <point x="320.151" y="18"/>
      <point x="320.151" y="18"/>
      <point x="320.151" y="18"/>
      <point x="320.151" y="18" type="qcurve"/>
      <point x="386.151" y="398" type="line"/>
      <point x="113.151" y="346" type="line"/>
      <point x="90.1514" y="212" type="line" smooth="yes"/>
      <point x="78.1514" y="141"/>
      <point x="109.151" y="51"/>
      <point x="189.151" y="0"/>
      <point x="313.151" y="-18"/>
      <point x="392.151" y="-18" type="qcurve"/>
    </contour>
  </outline>
</glyph>
<glyph name="uni0424" format="2">
  <advance width="2257"/>
  <unicode hex="0424"/>
  <anchor x="1593" y="1550" name="top"/>
  <anchor x="1296" y="-150" name="bottom"/>
  <outline>
    <contour>
      <point x="877" y="0" type="line"/>
      <point x="1141" y="0" type="line"/>
      <point x="1178" y="210" type="line"/>
      <point x="1642" y="210" type="line" smooth="yes"/>
      <point x="1717" y="210"/>
      <point x="1847" y="232"/>
      <point x="1949" y="292"/>
      <point x="2018" y="399"/>
      <point x="2033" y="484" type="qcurve" smooth="yes"/>
      <point x="2122" y="989" type="line" smooth="yes"/>
      <point x="2136" y="1075"/>
      <point x="2104" y="1182"/>
      <point x="2023" y="1242"/>
      <point x="1900" y="1263"/>
      <point x="1825" y="1263" type="qcurve" smooth="yes"/>
      <point x="1361" y="1263" type="line"/>
      <point x="1395" y="1458" type="line"/>
      <point x="1131" y="1458" type="line"/>
      <point x="1097" y="1263" type="line"/>
      <point x="633" y="1263" type="line" smooth="yes"/>
      <point x="557" y="1263"/>
      <point x="427" y="1242"/>
      <point x="325" y="1182"/>
      <point x="256" y="1075"/>
      <point x="242" y="989" type="qcurve" smooth="yes"/>
      <point x="153" y="484" type="line" smooth="yes"/>
      <point x="138" y="399"/>
      <point x="170" y="292"/>
      <point x="251" y="232"/>
      <point x="374" y="210"/>
      <point x="450" y="210" type="qcurve" smooth="yes"/>
      <point x="914" y="210" type="line"/>
    </contour>
    <contour>
      <point x="1184" y="246" type="line"/>
      <point x="1355" y="1227" type="line"/>
      <point x="1667" y="1227" type="line" smooth="yes"/>
      <point x="1724" y="1227"/>
      <point x="1805" y="1198"/>
      <point x="1855" y="1146"/>
      <point x="1871" y="1072"/>
      <point x="1864" y="1027" type="qcurve"/>
      <point x="1763" y="446" type="line" smooth="yes"/>
      <point x="1755" y="401"/>
      <point x="1712" y="327"/>
      <point x="1644" y="275"/>
      <point x="1553" y="246"/>
      <point x="1496" y="246" type="qcurve" smooth="yes"/>
    </contour>
    <contour>
      <point x="608" y="246" type="line" smooth="yes"/>
      <point x="551" y="246"/>
      <point x="469" y="275"/>
      <point x="420" y="327"/>
      <point x="403" y="401"/>
      <point x="411" y="446" type="qcurve" smooth="yes"/>
      <point x="512" y="1027" type="line" smooth="yes"/>
      <point x="519" y="1072"/>
      <point x="562" y="1146"/>
      <point x="630" y="1198"/>
      <point x="722" y="1227"/>
      <point x="779" y="1227" type="qcurve" smooth="yes"/>
      <point x="1091" y="1227" type="line"/>
      <point x="920" y="246" type="line"/>
    </contour>
  </outline>
  <guideline angle="90" x="1040" y="0"/>
</glyph>
<glyph name="uni0426" format="2">
  <advance width="1851"/>
  <unicode hex="0426"/>
  <outline>
    <contour>
      <point x="100" y="0" type="line"/>
      <point x="1365" y="0" type="line"/>
      <point x="1445" y="-260" type="line"/>
      <point x="1595" y="-260" type="line"/>
      <point x="1646" y="36" type="line"/>
      <point x="1476" y="36" type="line"/>
      <point x="1714" y="1400" type="line"/>
      <point x="1450" y="1400" type="line"/>
      <point x="1212" y="36" type="line"/>
      <point x="370" y="36" type="line"/>
      <point x="608" y="1400" type="line"/>
      <point x="344" y="1400" type="line"/>
    </contour>
  </outline>
</glyph>
<glyph name="uni0428" format="2">
  <advance width="2320"/>
  <unicode hex="0428"/>
  <outline>
    <contour>
      <point x="100" y="0" type="line"/>
      <point x="1980" y="0" type="line"/>
      <point x="2224" y="1400" type="line"/>
      <point x="1960" y="1400" type="line"/>
      <point x="1722" y="36" type="line"/>
      <point x="1178" y="36" type="line"/>
      <point x="1416" y="1400" type="line"/>
      <point x="1152" y="1400" type="line"/>
      <point x="914" y="36" type="line"/>
      <point x="370" y="36" type="line"/>
      <point x="608" y="1400" type="line"/>
      <point x="344" y="1400" type="line"/>
    </contour>
  </outline>
</glyph>
<glyph name="uni0429" format="2">
  <advance width="2369.84"/>
  <unicode hex="0429"/>
  <outline>
    <contour>
      <point x="100" y="0" type="line"/>
      <point x="1884" y="0" type="line"/>
      <point x="1964" y="-260" type="line"/>
      <point x="2114" y="-260" type="line"/>
      <point x="2165" y="36" type="line"/>
      <point x="1986" y="36" type="line"/>
      <point x="2224" y="1400" type="line"/>
      <point x="1960" y="1400" type="line"/>
      <point x="1722" y="36" type="line"/>
      <point x="1178" y="36" type="line"/>
      <point x="1416" y="1400" type="line"/>
      <point x="1152" y="1400" type="line"/>
      <point x="914" y="36" type="line"/>
      <point x="370" y="36" type="line"/>
      <point x="608" y="1400" type="line"/>
      <point x="344" y="1400" type="line"/>
    </contour>
  </outline>
</glyph>
